M48
; DRILL file {KiCad 5.1.5+dfsg1-2build2} date Sat Mar  6 11:49:00 2021
; FORMAT={-:-/ absolute / metric / decimal}
; #@! TF.CreationDate,2021-03-06T11:49:00+01:00
; #@! TF.GenerationSoftware,Kicad,Pcbnew,5.1.5+dfsg1-2build2
FMAT,2
METRIC
T1C0.400
T2C0.600
T3C2.200
T4C0.500
T5C0.650
T6C2.200
%
G90
G05
T1
X52.077Y-59.951
X52.077Y-78.451
X56.585Y-59.57
X56.585Y-78.07
X58.49Y-59.507
X58.49Y-78.007
X60.205Y-59.507
X60.205Y-78.007
X61.475Y-59.507
X61.475Y-78.007
X66.091Y-60.885
X66.091Y-79.385
X72.077Y-59.951
X72.077Y-78.451
X76.585Y-59.57
X76.585Y-78.07
X78.49Y-59.507
X78.49Y-78.007
X80.205Y-59.507
X80.205Y-78.007
X81.475Y-59.507
X81.475Y-78.007
X86.091Y-60.885
X86.091Y-79.385
T3
X65.983Y-70.514
X85.983Y-70.514
X65.983Y-52.014
X85.983Y-52.014
T4
X87.901Y-77.75
X60.0Y-66.401
X63.0Y-66.401
X67.901Y-57.25
X67.901Y-54.25
X50.099Y-56.25
X70.099Y-80.75
X55.0Y-66.401
X70.099Y-54.25
X70.099Y-57.25
X87.901Y-55.25
X50.099Y-59.25
X50.099Y-62.25
X87.901Y-78.75
X67.901Y-78.75
X70.099Y-60.25
X70.099Y-72.75
X70.099Y-75.75
X62.0Y-68.599
X59.0Y-68.599
X81.0Y-68.599
X67.901Y-75.75
X67.901Y-72.75
X87.901Y-74.75
X58.0Y-66.401
X67.901Y-62.25
X67.901Y-59.25
X70.099Y-78.75
X56.0Y-68.599
X76.0Y-66.401
X79.0Y-66.401
X82.0Y-66.401
X87.901Y-73.75
X78.0Y-68.599
X75.0Y-68.599
X50.099Y-74.75
X50.099Y-77.75
X50.099Y-80.75
X87.901Y-60.25
X61.0Y-66.401
X87.901Y-75.75
X67.901Y-56.25
X50.099Y-54.25
X50.099Y-57.25
X70.099Y-55.25
X70.099Y-58.25
X87.901Y-57.25
X87.901Y-54.25
X50.099Y-60.25
X67.901Y-80.75
X67.901Y-77.75
X87.901Y-76.75
X70.099Y-61.25
X70.099Y-73.75
X70.099Y-76.75
X87.901Y-80.75
X61.0Y-68.599
X83.0Y-68.599
X80.0Y-68.599
X67.901Y-74.75
X50.099Y-72.75
X56.0Y-66.401
X59.0Y-66.401
X67.901Y-61.25
X87.901Y-79.75
X70.099Y-79.75
X58.0Y-68.599
X55.0Y-68.599
X77.0Y-66.401
X80.0Y-66.401
X87.901Y-72.75
X77.0Y-68.599
X50.099Y-75.75
X50.099Y-78.75
X87.901Y-62.25
X87.901Y-59.25
X62.0Y-66.401
X67.901Y-58.25
X67.901Y-55.25
X50.099Y-55.25
X50.099Y-58.25
X83.0Y-66.401
X70.099Y-56.25
X87.901Y-56.25
X50.099Y-61.25
X67.901Y-79.75
X70.099Y-59.25
X70.099Y-62.25
X70.099Y-74.75
X63.0Y-68.599
X60.0Y-68.599
X82.0Y-68.599
X79.0Y-68.599
X67.901Y-76.75
X67.901Y-73.75
X50.099Y-73.75
X57.0Y-66.401
X67.901Y-60.25
X70.099Y-77.75
X57.0Y-68.599
X75.0Y-66.401
X78.0Y-66.401
X81.0Y-66.401
X76.0Y-68.599
X50.099Y-76.75
X50.099Y-79.75
X87.901Y-61.25
X87.901Y-58.25
T5
X56.108Y-74.765
X61.888Y-74.765
X56.108Y-56.265
X61.888Y-56.265
X76.108Y-74.765
X81.888Y-74.765
X76.108Y-56.265
X81.888Y-56.265
T6
X86.0Y-64.5
X72.0Y-52.0
X72.0Y-64.5
X66.0Y-83.0
X72.0Y-70.5
X52.0Y-70.5
X66.0Y-64.5
X52.0Y-52.0
X52.0Y-83.0
X72.0Y-83.0
X86.0Y-83.0
X52.0Y-64.5
T2
X54.678Y-71.415G85X54.678Y-70.815
G05
X54.678Y-75.845G85X54.678Y-74.745
G05
X63.318Y-71.415G85X63.318Y-70.815
G05
X63.318Y-75.845G85X63.318Y-74.745
G05
X54.678Y-52.915G85X54.678Y-52.315
G05
X54.678Y-57.345G85X54.678Y-56.245
G05
X63.318Y-52.915G85X63.318Y-52.315
G05
X63.318Y-57.345G85X63.318Y-56.245
G05
X74.678Y-71.415G85X74.678Y-70.815
G05
X74.678Y-75.845G85X74.678Y-74.745
G05
X83.318Y-71.415G85X83.318Y-70.815
G05
X83.318Y-75.845G85X83.318Y-74.745
G05
X74.678Y-52.915G85X74.678Y-52.315
G05
X74.678Y-57.345G85X74.678Y-56.245
G05
X83.318Y-52.915G85X83.318Y-52.315
G05
X83.318Y-57.345G85X83.318Y-56.245
G05
T0
M30
