G04 #@! TF.GenerationSoftware,KiCad,Pcbnew,5.1.5+dfsg1-2build2*
G04 #@! TF.CreationDate,2021-03-06T11:28:30+01:00*
G04 #@! TF.ProjectId,sDB_panel,7344425f-7061-46e6-956c-2e6b69636164,rev?*
G04 #@! TF.SameCoordinates,Original*
G04 #@! TF.FileFunction,Legend,Top*
G04 #@! TF.FilePolarity,Positive*
%FSLAX46Y46*%
G04 Gerber Fmt 4.6, Leading zero omitted, Abs format (unit mm)*
G04 Created by KiCad (PCBNEW 5.1.5+dfsg1-2build2) date 2021-03-06 11:28:30*
%MOMM*%
%LPD*%
G04 APERTURE LIST*
G04 #@! TA.AperFunction,Profile*
%ADD10C,0.100000*%
G04 #@! TD*
%ADD11C,0.120000*%
%ADD12C,0.150000*%
G04 APERTURE END LIST*
D10*
X47999000Y-72258800D02*
X47999000Y-62741200D01*
X48001400Y-72307000D02*
X47999000Y-72258800D01*
X48008400Y-72354600D02*
X48001400Y-72307000D01*
X48020100Y-72401200D02*
X48008400Y-72354600D01*
X48036300Y-72446500D02*
X48020100Y-72401200D01*
X48056900Y-72490000D02*
X48036300Y-72446500D01*
X48081600Y-72531200D02*
X48056900Y-72490000D01*
X48110200Y-72569900D02*
X48081600Y-72531200D01*
X48142500Y-72605500D02*
X48110200Y-72569900D01*
X48178200Y-72637800D02*
X48142500Y-72605500D01*
X48216800Y-72666400D02*
X48178200Y-72637800D01*
X48258000Y-72691100D02*
X48216800Y-72666400D01*
X48301500Y-72711700D02*
X48258000Y-72691100D01*
X48346800Y-72727900D02*
X48301500Y-72711700D01*
X48393400Y-72739600D02*
X48346800Y-72727900D01*
X48441000Y-72746600D02*
X48393400Y-72739600D01*
X48489200Y-72749000D02*
X48441000Y-72746600D01*
X49508800Y-72749000D02*
X48489200Y-72749000D01*
X49557000Y-72746600D02*
X49508800Y-72749000D01*
X49604600Y-72739600D02*
X49557000Y-72746600D01*
X49651200Y-72727900D02*
X49604600Y-72739600D01*
X49696500Y-72711700D02*
X49651200Y-72727900D01*
X49740000Y-72691100D02*
X49696500Y-72711700D01*
X49781200Y-72666400D02*
X49740000Y-72691100D01*
X49819800Y-72637800D02*
X49781200Y-72666400D01*
X49855500Y-72605500D02*
X49819800Y-72637800D01*
X49887800Y-72569900D02*
X49855500Y-72605500D01*
X49916400Y-72531200D02*
X49887800Y-72569900D01*
X49941100Y-72490000D02*
X49916400Y-72531200D01*
X49961700Y-72446500D02*
X49941100Y-72490000D01*
X49977900Y-72401200D02*
X49961700Y-72446500D01*
X49989600Y-72354600D02*
X49977900Y-72401200D01*
X49996600Y-72307000D02*
X49989600Y-72354600D01*
X49999000Y-72258800D02*
X49996600Y-72307000D01*
X49999000Y-70499800D02*
X49999000Y-72258800D01*
X50010100Y-70291100D02*
X49999000Y-70499800D01*
X50041700Y-70090500D02*
X50010100Y-70291100D01*
X50097000Y-69881900D02*
X50041700Y-70090500D01*
X50175000Y-69680300D02*
X50097000Y-69881900D01*
X50267100Y-69499800D02*
X50175000Y-69680300D01*
X50377500Y-69329400D02*
X50267100Y-69499800D01*
X50513300Y-69161000D02*
X50377500Y-69329400D01*
X50661000Y-69013300D02*
X50513300Y-69161000D01*
X50818700Y-68885300D02*
X50661000Y-69013300D01*
X50999800Y-68767100D02*
X50818700Y-68885300D01*
X51186000Y-68672300D02*
X50999800Y-68767100D01*
X51375500Y-68599300D02*
X51186000Y-68672300D01*
X51590500Y-68541700D02*
X51375500Y-68599300D01*
X51791100Y-68510100D02*
X51590500Y-68541700D01*
X52000100Y-68499000D02*
X51791100Y-68510100D01*
X54508800Y-68499000D02*
X52000100Y-68499000D01*
X54557000Y-68496600D02*
X54508800Y-68499000D01*
X54604600Y-68489600D02*
X54557000Y-68496600D01*
X54651200Y-68477900D02*
X54604600Y-68489600D01*
X54696500Y-68461700D02*
X54651200Y-68477900D01*
X54740000Y-68441100D02*
X54696500Y-68461700D01*
X54781200Y-68416400D02*
X54740000Y-68441100D01*
X54819800Y-68387800D02*
X54781200Y-68416400D01*
X54855500Y-68355500D02*
X54819800Y-68387800D01*
X54887800Y-68319800D02*
X54855500Y-68355500D01*
X54916400Y-68281200D02*
X54887800Y-68319800D01*
X54941100Y-68240000D02*
X54916400Y-68281200D01*
X54961700Y-68196500D02*
X54941100Y-68240000D01*
X54977900Y-68151200D02*
X54961700Y-68196500D01*
X54989600Y-68104600D02*
X54977900Y-68151200D01*
X54996600Y-68057000D02*
X54989600Y-68104600D01*
X54999000Y-68008800D02*
X54996600Y-68057000D01*
X54999000Y-66991200D02*
X54999000Y-68008800D01*
X54996600Y-66943000D02*
X54999000Y-66991200D01*
X54989600Y-66895400D02*
X54996600Y-66943000D01*
X54977900Y-66848800D02*
X54989600Y-66895400D01*
X54961700Y-66803500D02*
X54977900Y-66848800D01*
X54941100Y-66760000D02*
X54961700Y-66803500D01*
X54916400Y-66718800D02*
X54941100Y-66760000D01*
X54887800Y-66680200D02*
X54916400Y-66718800D01*
X54855500Y-66644500D02*
X54887800Y-66680200D01*
X54819800Y-66612200D02*
X54855500Y-66644500D01*
X54781200Y-66583600D02*
X54819800Y-66612200D01*
X54740000Y-66558900D02*
X54781200Y-66583600D01*
X54696500Y-66538300D02*
X54740000Y-66558900D01*
X54651200Y-66522100D02*
X54696500Y-66538300D01*
X54604600Y-66510400D02*
X54651200Y-66522100D01*
X54557000Y-66503400D02*
X54604600Y-66510400D01*
X54508800Y-66501000D02*
X54557000Y-66503400D01*
X52003200Y-66501000D02*
X54508800Y-66501000D01*
X51797200Y-66490400D02*
X52003200Y-66501000D01*
X51584200Y-66457200D02*
X51797200Y-66490400D01*
X51381900Y-66403000D02*
X51584200Y-66457200D01*
X51186400Y-66327900D02*
X51381900Y-66403000D01*
X50999300Y-66232600D02*
X51186400Y-66327900D01*
X50824100Y-66118800D02*
X50999300Y-66232600D01*
X50661400Y-65987100D02*
X50824100Y-66118800D01*
X50513300Y-65839000D02*
X50661400Y-65987100D01*
X50385300Y-65681300D02*
X50513300Y-65839000D01*
X50264100Y-65494600D02*
X50385300Y-65681300D01*
X50172000Y-65313500D02*
X50264100Y-65494600D01*
X50095300Y-65112200D02*
X50172000Y-65313500D01*
X50042900Y-64916200D02*
X50095300Y-65112200D01*
X50011000Y-64715700D02*
X50042900Y-64916200D01*
X49999200Y-64503200D02*
X50011000Y-64715700D01*
X49999000Y-62741200D02*
X49999200Y-64503200D01*
X49996600Y-62693000D02*
X49999000Y-62741200D01*
X49989600Y-62645400D02*
X49996600Y-62693000D01*
X49977900Y-62598800D02*
X49989600Y-62645400D01*
X49961700Y-62553500D02*
X49977900Y-62598800D01*
X49941100Y-62510000D02*
X49961700Y-62553500D01*
X49916400Y-62468800D02*
X49941100Y-62510000D01*
X49887800Y-62430200D02*
X49916400Y-62468800D01*
X49855500Y-62394500D02*
X49887800Y-62430200D01*
X49819800Y-62362200D02*
X49855500Y-62394500D01*
X49781200Y-62333600D02*
X49819800Y-62362200D01*
X49740000Y-62308900D02*
X49781200Y-62333600D01*
X49696500Y-62288300D02*
X49740000Y-62308900D01*
X49651200Y-62272100D02*
X49696500Y-62288300D01*
X49604600Y-62260400D02*
X49651200Y-62272100D01*
X49557000Y-62253400D02*
X49604600Y-62260400D01*
X49508800Y-62251000D02*
X49557000Y-62253400D01*
X48489200Y-62251000D02*
X49508800Y-62251000D01*
X48441000Y-62253400D02*
X48489200Y-62251000D01*
X48393400Y-62260400D02*
X48441000Y-62253400D01*
X48346800Y-62272100D02*
X48393400Y-62260400D01*
X48301500Y-62288300D02*
X48346800Y-62272100D01*
X48258000Y-62308900D02*
X48301500Y-62288300D01*
X48216800Y-62333600D02*
X48258000Y-62308900D01*
X48178200Y-62362200D02*
X48216800Y-62333600D01*
X48142500Y-62394500D02*
X48178200Y-62362200D01*
X48110200Y-62430200D02*
X48142500Y-62394500D01*
X48081600Y-62468800D02*
X48110200Y-62430200D01*
X48056900Y-62510000D02*
X48081600Y-62468800D01*
X48036300Y-62553500D02*
X48056900Y-62510000D01*
X48020100Y-62598800D02*
X48036300Y-62553500D01*
X48008400Y-62645400D02*
X48020100Y-62598800D01*
X48001400Y-62693000D02*
X48008400Y-62645400D01*
X47999000Y-62741200D02*
X48001400Y-62693000D01*
X65996700Y-68499000D02*
X63491200Y-68499000D01*
X66208900Y-68510100D02*
X65996700Y-68499000D01*
X66416300Y-68543000D02*
X66208900Y-68510100D01*
X66624500Y-68599300D02*
X66416300Y-68543000D01*
X66813600Y-68672100D02*
X66624500Y-68599300D01*
X66994600Y-68764100D02*
X66813600Y-68672100D01*
X67175900Y-68881200D02*
X66994600Y-68764100D01*
X67338600Y-69013000D02*
X67175900Y-68881200D01*
X67482400Y-69156400D02*
X67338600Y-69013000D01*
X67622400Y-69329400D02*
X67482400Y-69156400D01*
X67732900Y-69499800D02*
X67622400Y-69329400D01*
X67827700Y-69686000D02*
X67732900Y-69499800D01*
X67902800Y-69881500D02*
X67827700Y-69686000D01*
X67955600Y-70077800D02*
X67902800Y-69881500D01*
X67989800Y-70290600D02*
X67955600Y-70077800D01*
X68001000Y-70500100D02*
X67989800Y-70290600D01*
X68001000Y-72258800D02*
X68001000Y-70500100D01*
X68003400Y-72307000D02*
X68001000Y-72258800D01*
X68010400Y-72354600D02*
X68003400Y-72307000D01*
X68022100Y-72401200D02*
X68010400Y-72354600D01*
X68038300Y-72446500D02*
X68022100Y-72401200D01*
X68058900Y-72490000D02*
X68038300Y-72446500D01*
X68083600Y-72531200D02*
X68058900Y-72490000D01*
X68112200Y-72569900D02*
X68083600Y-72531200D01*
X68144500Y-72605500D02*
X68112200Y-72569900D01*
X68180200Y-72637800D02*
X68144500Y-72605500D01*
X68218800Y-72666400D02*
X68180200Y-72637800D01*
X68260000Y-72691100D02*
X68218800Y-72666400D01*
X68303500Y-72711700D02*
X68260000Y-72691100D01*
X68348800Y-72727900D02*
X68303500Y-72711700D01*
X68395400Y-72739600D02*
X68348800Y-72727900D01*
X68443000Y-72746600D02*
X68395400Y-72739600D01*
X68491200Y-72749000D02*
X68443000Y-72746600D01*
X69508800Y-72749000D02*
X68491200Y-72749000D01*
X69557000Y-72746600D02*
X69508800Y-72749000D01*
X69604600Y-72739600D02*
X69557000Y-72746600D01*
X69651200Y-72727900D02*
X69604600Y-72739600D01*
X69696500Y-72711700D02*
X69651200Y-72727900D01*
X69740000Y-72691100D02*
X69696500Y-72711700D01*
X69781200Y-72666400D02*
X69740000Y-72691100D01*
X69819900Y-72637800D02*
X69781200Y-72666400D01*
X69855500Y-72605500D02*
X69819900Y-72637800D01*
X69887800Y-72569900D02*
X69855500Y-72605500D01*
X69916400Y-72531200D02*
X69887800Y-72569900D01*
X69941100Y-72490000D02*
X69916400Y-72531200D01*
X69961700Y-72446500D02*
X69941100Y-72490000D01*
X69977900Y-72401200D02*
X69961700Y-72446500D01*
X69989600Y-72354600D02*
X69977900Y-72401200D01*
X69996600Y-72307000D02*
X69989600Y-72354600D01*
X69999000Y-72258800D02*
X69996600Y-72307000D01*
X69999100Y-70499800D02*
X69999000Y-72258800D01*
X70010100Y-70291100D02*
X69999100Y-70499800D01*
X70041700Y-70090500D02*
X70010100Y-70291100D01*
X70097000Y-69881900D02*
X70041700Y-70090500D01*
X70175000Y-69680300D02*
X70097000Y-69881900D01*
X70267100Y-69499800D02*
X70175000Y-69680300D01*
X70377600Y-69329400D02*
X70267100Y-69499800D01*
X70513300Y-69161000D02*
X70377600Y-69329400D01*
X70661000Y-69013300D02*
X70513300Y-69161000D01*
X70818700Y-68885300D02*
X70661000Y-69013300D01*
X70999800Y-68767100D02*
X70818700Y-68885300D01*
X71186000Y-68672300D02*
X70999800Y-68767100D01*
X71375500Y-68599300D02*
X71186000Y-68672300D01*
X71590500Y-68541700D02*
X71375500Y-68599300D01*
X71791200Y-68510100D02*
X71590500Y-68541700D01*
X72000100Y-68499000D02*
X71791200Y-68510100D01*
X74508800Y-68499000D02*
X72000100Y-68499000D01*
X74557000Y-68496600D02*
X74508800Y-68499000D01*
X74604600Y-68489600D02*
X74557000Y-68496600D01*
X74651200Y-68477900D02*
X74604600Y-68489600D01*
X74696500Y-68461700D02*
X74651200Y-68477900D01*
X74740000Y-68441100D02*
X74696500Y-68461700D01*
X74781200Y-68416400D02*
X74740000Y-68441100D01*
X74819900Y-68387800D02*
X74781200Y-68416400D01*
X74855500Y-68355500D02*
X74819900Y-68387800D01*
X74887800Y-68319800D02*
X74855500Y-68355500D01*
X74916400Y-68281200D02*
X74887800Y-68319800D01*
X74941100Y-68240000D02*
X74916400Y-68281200D01*
X74961700Y-68196500D02*
X74941100Y-68240000D01*
X74977900Y-68151200D02*
X74961700Y-68196500D01*
X74989600Y-68104600D02*
X74977900Y-68151200D01*
X74996600Y-68057000D02*
X74989600Y-68104600D01*
X74999000Y-68008800D02*
X74996600Y-68057000D01*
X74999000Y-66991200D02*
X74999000Y-68008800D01*
X74996600Y-66943000D02*
X74999000Y-66991200D01*
X74989600Y-66895400D02*
X74996600Y-66943000D01*
X74977900Y-66848800D02*
X74989600Y-66895400D01*
X74961700Y-66803500D02*
X74977900Y-66848800D01*
X74941100Y-66760000D02*
X74961700Y-66803500D01*
X74916400Y-66718800D02*
X74941100Y-66760000D01*
X74887800Y-66680200D02*
X74916400Y-66718800D01*
X74855500Y-66644500D02*
X74887800Y-66680200D01*
X74819900Y-66612200D02*
X74855500Y-66644500D01*
X74781200Y-66583600D02*
X74819900Y-66612200D01*
X74740000Y-66558900D02*
X74781200Y-66583600D01*
X74696500Y-66538300D02*
X74740000Y-66558900D01*
X74651200Y-66522100D02*
X74696500Y-66538300D01*
X74604600Y-66510400D02*
X74651200Y-66522100D01*
X74557000Y-66503400D02*
X74604600Y-66510400D01*
X74508800Y-66501000D02*
X74557000Y-66503400D01*
X72003200Y-66501000D02*
X74508800Y-66501000D01*
X71791100Y-66489900D02*
X72003200Y-66501000D01*
X71583700Y-66457000D02*
X71791100Y-66489900D01*
X71375500Y-66400700D02*
X71583700Y-66457000D01*
X71186400Y-66327900D02*
X71375500Y-66400700D01*
X71005400Y-66235900D02*
X71186400Y-66327900D01*
X70824100Y-66118800D02*
X71005400Y-66235900D01*
X70661400Y-65987100D02*
X70824100Y-66118800D01*
X70517700Y-65843600D02*
X70661400Y-65987100D01*
X70377600Y-65670600D02*
X70517700Y-65843600D01*
X70267100Y-65500200D02*
X70377600Y-65670600D01*
X70172300Y-65314000D02*
X70267100Y-65500200D01*
X70097200Y-65118500D02*
X70172300Y-65314000D01*
X70044400Y-64922200D02*
X70097200Y-65118500D01*
X70010200Y-64709400D02*
X70044400Y-64922200D01*
X69999000Y-64499900D02*
X70010200Y-64709400D01*
X69999000Y-62741200D02*
X69999000Y-64499900D01*
X69996600Y-62693000D02*
X69999000Y-62741200D01*
X69989600Y-62645400D02*
X69996600Y-62693000D01*
X69977900Y-62598800D02*
X69989600Y-62645400D01*
X69961700Y-62553500D02*
X69977900Y-62598800D01*
X69941100Y-62510000D02*
X69961700Y-62553500D01*
X69916400Y-62468800D02*
X69941100Y-62510000D01*
X69887800Y-62430200D02*
X69916400Y-62468800D01*
X69855500Y-62394500D02*
X69887800Y-62430200D01*
X69819800Y-62362200D02*
X69855500Y-62394500D01*
X69781200Y-62333600D02*
X69819800Y-62362200D01*
X69740000Y-62308900D02*
X69781200Y-62333600D01*
X69696500Y-62288300D02*
X69740000Y-62308900D01*
X69651200Y-62272100D02*
X69696500Y-62288300D01*
X69604600Y-62260400D02*
X69651200Y-62272100D01*
X69557000Y-62253400D02*
X69604600Y-62260400D01*
X69508800Y-62251000D02*
X69557000Y-62253400D01*
X68491200Y-62251000D02*
X69508800Y-62251000D01*
X68443000Y-62253400D02*
X68491200Y-62251000D01*
X68395400Y-62260400D02*
X68443000Y-62253400D01*
X68348800Y-62272100D02*
X68395400Y-62260400D01*
X68303500Y-62288300D02*
X68348800Y-62272100D01*
X68260000Y-62308900D02*
X68303500Y-62288300D01*
X68218800Y-62333600D02*
X68260000Y-62308900D01*
X68180200Y-62362200D02*
X68218800Y-62333600D01*
X68144500Y-62394500D02*
X68180200Y-62362200D01*
X68112200Y-62430200D02*
X68144500Y-62394500D01*
X68083600Y-62468800D02*
X68112200Y-62430200D01*
X68058900Y-62510000D02*
X68083600Y-62468800D01*
X68038300Y-62553500D02*
X68058900Y-62510000D01*
X68022100Y-62598800D02*
X68038300Y-62553500D01*
X68010400Y-62645400D02*
X68022100Y-62598800D01*
X68003400Y-62693000D02*
X68010400Y-62645400D01*
X68001000Y-62741200D02*
X68003400Y-62693000D01*
X68001000Y-64496800D02*
X68001000Y-62741200D01*
X67989800Y-64709400D02*
X68001000Y-64496800D01*
X67955600Y-64922400D02*
X67989800Y-64709400D01*
X67903000Y-65118100D02*
X67955600Y-64922400D01*
X67830400Y-65307700D02*
X67903000Y-65118100D01*
X67732900Y-65500200D02*
X67830400Y-65307700D01*
X67614700Y-65681300D02*
X67732900Y-65500200D01*
X67486700Y-65839000D02*
X67614700Y-65681300D01*
X67339000Y-65986700D02*
X67486700Y-65839000D01*
X67176200Y-66118600D02*
X67339000Y-65986700D01*
X67006100Y-66229300D02*
X67176200Y-66118600D01*
X66807700Y-66330400D02*
X67006100Y-66229300D01*
X66618000Y-66403000D02*
X66807700Y-66330400D01*
X66415700Y-66457200D02*
X66618000Y-66403000D01*
X66209400Y-66489800D02*
X66415700Y-66457200D01*
X65999900Y-66501000D02*
X66209400Y-66489800D01*
X63491200Y-66501000D02*
X65999900Y-66501000D01*
X63443000Y-66503400D02*
X63491200Y-66501000D01*
X63395400Y-66510400D02*
X63443000Y-66503400D01*
X63348800Y-66522100D02*
X63395400Y-66510400D01*
X63303500Y-66538300D02*
X63348800Y-66522100D01*
X63260000Y-66558900D02*
X63303500Y-66538300D01*
X63218800Y-66583600D02*
X63260000Y-66558900D01*
X63180200Y-66612200D02*
X63218800Y-66583600D01*
X63144500Y-66644500D02*
X63180200Y-66612200D01*
X63112200Y-66680200D02*
X63144500Y-66644500D01*
X63083600Y-66718800D02*
X63112200Y-66680200D01*
X63058900Y-66760000D02*
X63083600Y-66718800D01*
X63038300Y-66803500D02*
X63058900Y-66760000D01*
X63022100Y-66848800D02*
X63038300Y-66803500D01*
X63010400Y-66895400D02*
X63022100Y-66848800D01*
X63003400Y-66943000D02*
X63010400Y-66895400D01*
X63001000Y-66991200D02*
X63003400Y-66943000D01*
X63001000Y-68008800D02*
X63001000Y-66991200D01*
X63003400Y-68057000D02*
X63001000Y-68008800D01*
X63010400Y-68104600D02*
X63003400Y-68057000D01*
X63022100Y-68151200D02*
X63010400Y-68104600D01*
X63038300Y-68196500D02*
X63022100Y-68151200D01*
X63058900Y-68240000D02*
X63038300Y-68196500D01*
X63083600Y-68281200D02*
X63058900Y-68240000D01*
X63112200Y-68319900D02*
X63083600Y-68281200D01*
X63144500Y-68355500D02*
X63112200Y-68319900D01*
X63180200Y-68387800D02*
X63144500Y-68355500D01*
X63218800Y-68416400D02*
X63180200Y-68387800D01*
X63260000Y-68441100D02*
X63218800Y-68416400D01*
X63303500Y-68461700D02*
X63260000Y-68441100D01*
X63348800Y-68477900D02*
X63303500Y-68461700D01*
X63395400Y-68489600D02*
X63348800Y-68477900D01*
X63443000Y-68496600D02*
X63395400Y-68489600D01*
X63491200Y-68499000D02*
X63443000Y-68496600D01*
X90000000Y-62741200D02*
X90000000Y-72258800D01*
X89997600Y-62693000D02*
X90000000Y-62741200D01*
X89990600Y-62645400D02*
X89997600Y-62693000D01*
X89978900Y-62598800D02*
X89990600Y-62645400D01*
X89962700Y-62553500D02*
X89978900Y-62598800D01*
X89942100Y-62510000D02*
X89962700Y-62553500D01*
X89917400Y-62468800D02*
X89942100Y-62510000D01*
X89888800Y-62430200D02*
X89917400Y-62468800D01*
X89856500Y-62394500D02*
X89888800Y-62430200D01*
X89820900Y-62362200D02*
X89856500Y-62394500D01*
X89782200Y-62333600D02*
X89820900Y-62362200D01*
X89741000Y-62308900D02*
X89782200Y-62333600D01*
X89697500Y-62288300D02*
X89741000Y-62308900D01*
X89652300Y-62272100D02*
X89697500Y-62288300D01*
X89605600Y-62260400D02*
X89652300Y-62272100D01*
X89558000Y-62253400D02*
X89605600Y-62260400D01*
X89509800Y-62251000D02*
X89558000Y-62253400D01*
X88491300Y-62251000D02*
X89509800Y-62251000D01*
X88443000Y-62253400D02*
X88491300Y-62251000D01*
X88395400Y-62260400D02*
X88443000Y-62253400D01*
X88348800Y-62272100D02*
X88395400Y-62260400D01*
X88303500Y-62288300D02*
X88348800Y-62272100D01*
X88260000Y-62308900D02*
X88303500Y-62288300D01*
X88218800Y-62333600D02*
X88260000Y-62308900D01*
X88180200Y-62362200D02*
X88218800Y-62333600D01*
X88144500Y-62394500D02*
X88180200Y-62362200D01*
X88112200Y-62430200D02*
X88144500Y-62394500D01*
X88083600Y-62468800D02*
X88112200Y-62430200D01*
X88058900Y-62510000D02*
X88083600Y-62468800D01*
X88038300Y-62553500D02*
X88058900Y-62510000D01*
X88022100Y-62598800D02*
X88038300Y-62553500D01*
X88010400Y-62645400D02*
X88022100Y-62598800D01*
X88003400Y-62693000D02*
X88010400Y-62645400D01*
X88001000Y-62741200D02*
X88003400Y-62693000D01*
X88001000Y-64500200D02*
X88001000Y-62741200D01*
X87989900Y-64708900D02*
X88001000Y-64500200D01*
X87958300Y-64909500D02*
X87989900Y-64708900D01*
X87903000Y-65118100D02*
X87958300Y-64909500D01*
X87825000Y-65319800D02*
X87903000Y-65118100D01*
X87732900Y-65500200D02*
X87825000Y-65319800D01*
X87622500Y-65670600D02*
X87732900Y-65500200D01*
X87486700Y-65839000D02*
X87622500Y-65670600D01*
X87339000Y-65986700D02*
X87486700Y-65839000D01*
X87181300Y-66114700D02*
X87339000Y-65986700D01*
X87000200Y-66232900D02*
X87181300Y-66114700D01*
X86814000Y-66327700D02*
X87000200Y-66232900D01*
X86624500Y-66400700D02*
X86814000Y-66327700D01*
X86409500Y-66458300D02*
X86624500Y-66400700D01*
X86208900Y-66489900D02*
X86409500Y-66458300D01*
X85999900Y-66501000D02*
X86208900Y-66489900D01*
X83491300Y-66501000D02*
X85999900Y-66501000D01*
X83443000Y-66503400D02*
X83491300Y-66501000D01*
X83395400Y-66510400D02*
X83443000Y-66503400D01*
X83348800Y-66522100D02*
X83395400Y-66510400D01*
X83303500Y-66538300D02*
X83348800Y-66522100D01*
X83260000Y-66558900D02*
X83303500Y-66538300D01*
X83218800Y-66583600D02*
X83260000Y-66558900D01*
X83180200Y-66612200D02*
X83218800Y-66583600D01*
X83144500Y-66644500D02*
X83180200Y-66612200D01*
X83112200Y-66680200D02*
X83144500Y-66644500D01*
X83083600Y-66718800D02*
X83112200Y-66680200D01*
X83058900Y-66760000D02*
X83083600Y-66718800D01*
X83038300Y-66803500D02*
X83058900Y-66760000D01*
X83022100Y-66848800D02*
X83038300Y-66803500D01*
X83010400Y-66895400D02*
X83022100Y-66848800D01*
X83003400Y-66943000D02*
X83010400Y-66895400D01*
X83001000Y-66991200D02*
X83003400Y-66943000D01*
X83001000Y-68008800D02*
X83001000Y-66991200D01*
X83003400Y-68057000D02*
X83001000Y-68008800D01*
X83010400Y-68104600D02*
X83003400Y-68057000D01*
X83022100Y-68151200D02*
X83010400Y-68104600D01*
X83038300Y-68196500D02*
X83022100Y-68151200D01*
X83058900Y-68240000D02*
X83038300Y-68196500D01*
X83083600Y-68281200D02*
X83058900Y-68240000D01*
X83112200Y-68319900D02*
X83083600Y-68281200D01*
X83144500Y-68355500D02*
X83112200Y-68319900D01*
X83180200Y-68387800D02*
X83144500Y-68355500D01*
X83218800Y-68416400D02*
X83180200Y-68387800D01*
X83260000Y-68441100D02*
X83218800Y-68416400D01*
X83303500Y-68461700D02*
X83260000Y-68441100D01*
X83348800Y-68477900D02*
X83303500Y-68461700D01*
X83395400Y-68489600D02*
X83348800Y-68477900D01*
X83443000Y-68496600D02*
X83395400Y-68489600D01*
X83491300Y-68499000D02*
X83443000Y-68496600D01*
X85996900Y-68499000D02*
X83491300Y-68499000D01*
X86202800Y-68509600D02*
X85996900Y-68499000D01*
X86415800Y-68542900D02*
X86202800Y-68509600D01*
X86618100Y-68597000D02*
X86415800Y-68542900D01*
X86813600Y-68672100D02*
X86618100Y-68597000D01*
X87000700Y-68767400D02*
X86813600Y-68672100D01*
X87175900Y-68881200D02*
X87000700Y-68767400D01*
X87338600Y-69013000D02*
X87175900Y-68881200D01*
X87486800Y-69161000D02*
X87338600Y-69013000D01*
X87614700Y-69318700D02*
X87486800Y-69161000D01*
X87735900Y-69505400D02*
X87614700Y-69318700D01*
X87828000Y-69686500D02*
X87735900Y-69505400D01*
X87904700Y-69887800D02*
X87828000Y-69686500D01*
X87957100Y-70083800D02*
X87904700Y-69887800D01*
X87989000Y-70284300D02*
X87957100Y-70083800D01*
X88000800Y-70496800D02*
X87989000Y-70284300D01*
X88001000Y-72258800D02*
X88000800Y-70496800D01*
X88003400Y-72307000D02*
X88001000Y-72258800D01*
X88010400Y-72354600D02*
X88003400Y-72307000D01*
X88022100Y-72401200D02*
X88010400Y-72354600D01*
X88038300Y-72446500D02*
X88022100Y-72401200D01*
X88058900Y-72490000D02*
X88038300Y-72446500D01*
X88083600Y-72531200D02*
X88058900Y-72490000D01*
X88112200Y-72569900D02*
X88083600Y-72531200D01*
X88144500Y-72605500D02*
X88112200Y-72569900D01*
X88180200Y-72637800D02*
X88144500Y-72605500D01*
X88218800Y-72666400D02*
X88180200Y-72637800D01*
X88260000Y-72691100D02*
X88218800Y-72666400D01*
X88303500Y-72711700D02*
X88260000Y-72691100D01*
X88348800Y-72727900D02*
X88303500Y-72711700D01*
X88395400Y-72739600D02*
X88348800Y-72727900D01*
X88443000Y-72746600D02*
X88395400Y-72739600D01*
X88491200Y-72749000D02*
X88443000Y-72746600D01*
X89509800Y-72749000D02*
X88491200Y-72749000D01*
X89558000Y-72746600D02*
X89509800Y-72749000D01*
X89605600Y-72739600D02*
X89558000Y-72746600D01*
X89652300Y-72727900D02*
X89605600Y-72739600D01*
X89697500Y-72711700D02*
X89652300Y-72727900D01*
X89741000Y-72691100D02*
X89697500Y-72711700D01*
X89782200Y-72666400D02*
X89741000Y-72691100D01*
X89820900Y-72637800D02*
X89782200Y-72666400D01*
X89856500Y-72605500D02*
X89820900Y-72637800D01*
X89888800Y-72569900D02*
X89856500Y-72605500D01*
X89917400Y-72531200D02*
X89888800Y-72569900D01*
X89942100Y-72490000D02*
X89917400Y-72531200D01*
X89962700Y-72446500D02*
X89942100Y-72490000D01*
X89978900Y-72401200D02*
X89962700Y-72446500D01*
X89990600Y-72354600D02*
X89978900Y-72401200D01*
X89997600Y-72307000D02*
X89990600Y-72354600D01*
X90000000Y-72258800D02*
X89997600Y-72307000D01*
X47986700Y-49999000D02*
X45009600Y-49999100D01*
X47992300Y-49999700D02*
X47986700Y-49999000D01*
X47996900Y-50003100D02*
X47992300Y-49999700D01*
X47999000Y-50011300D02*
X47996900Y-50003100D01*
X47999000Y-53758800D02*
X47999000Y-50011300D01*
X48001400Y-53807000D02*
X47999000Y-53758800D01*
X48008400Y-53854600D02*
X48001400Y-53807000D01*
X48020100Y-53901200D02*
X48008400Y-53854600D01*
X48036300Y-53946500D02*
X48020100Y-53901200D01*
X48056900Y-53990000D02*
X48036300Y-53946500D01*
X48081600Y-54031200D02*
X48056900Y-53990000D01*
X48110200Y-54069800D02*
X48081600Y-54031200D01*
X48142500Y-54105500D02*
X48110200Y-54069800D01*
X48178200Y-54137800D02*
X48142500Y-54105500D01*
X48216800Y-54166400D02*
X48178200Y-54137800D01*
X48258000Y-54191100D02*
X48216800Y-54166400D01*
X48301500Y-54211700D02*
X48258000Y-54191100D01*
X48346800Y-54227900D02*
X48301500Y-54211700D01*
X48393400Y-54239600D02*
X48346800Y-54227900D01*
X48441000Y-54246600D02*
X48393400Y-54239600D01*
X48489200Y-54249000D02*
X48441000Y-54246600D01*
X49508800Y-54249000D02*
X48489200Y-54249000D01*
X49557000Y-54246600D02*
X49508800Y-54249000D01*
X49604600Y-54239600D02*
X49557000Y-54246600D01*
X49651200Y-54227900D02*
X49604600Y-54239600D01*
X49696500Y-54211700D02*
X49651200Y-54227900D01*
X49740000Y-54191100D02*
X49696500Y-54211700D01*
X49781200Y-54166400D02*
X49740000Y-54191100D01*
X49819800Y-54137800D02*
X49781200Y-54166400D01*
X49855500Y-54105500D02*
X49819800Y-54137800D01*
X49887800Y-54069800D02*
X49855500Y-54105500D01*
X49916400Y-54031200D02*
X49887800Y-54069800D01*
X49941100Y-53990000D02*
X49916400Y-54031200D01*
X49961700Y-53946500D02*
X49941100Y-53990000D01*
X49977900Y-53901200D02*
X49961700Y-53946500D01*
X49989600Y-53854600D02*
X49977900Y-53901200D01*
X49996600Y-53807000D02*
X49989600Y-53854600D01*
X49999000Y-53758800D02*
X49996600Y-53807000D01*
X49999000Y-52003200D02*
X49999000Y-53758800D01*
X50010100Y-51791100D02*
X49999000Y-52003200D01*
X50042900Y-51584200D02*
X50010100Y-51791100D01*
X50095200Y-51388100D02*
X50042900Y-51584200D01*
X50172300Y-51185900D02*
X50095200Y-51388100D01*
X50270700Y-50994000D02*
X50172300Y-51185900D01*
X50381200Y-50824100D02*
X50270700Y-50994000D01*
X50508800Y-50666200D02*
X50381200Y-50824100D01*
X50661000Y-50513300D02*
X50508800Y-50666200D01*
X50824200Y-50381100D02*
X50661000Y-50513300D01*
X51005400Y-50264100D02*
X50824200Y-50381100D01*
X51186000Y-50172300D02*
X51005400Y-50264100D01*
X51375500Y-50099300D02*
X51186000Y-50172300D01*
X51583800Y-50042900D02*
X51375500Y-50099300D01*
X51791100Y-50010100D02*
X51583800Y-50042900D01*
X52003300Y-49999000D02*
X51791100Y-50010100D01*
X65996700Y-49999000D02*
X52003300Y-49999000D01*
X66209400Y-50010200D02*
X65996700Y-49999000D01*
X66422200Y-50044400D02*
X66209400Y-50010200D01*
X66618600Y-50097200D02*
X66422200Y-50044400D01*
X66814100Y-50172300D02*
X66618600Y-50097200D01*
X67000700Y-50267400D02*
X66814100Y-50172300D01*
X67181300Y-50385300D02*
X67000700Y-50267400D01*
X67343600Y-50517600D02*
X67181300Y-50385300D01*
X67486700Y-50661000D02*
X67343600Y-50517600D01*
X67614700Y-50818700D02*
X67486700Y-50661000D01*
X67732600Y-50999400D02*
X67614700Y-50818700D01*
X67825100Y-51180500D02*
X67732600Y-50999400D01*
X67904800Y-51388000D02*
X67825100Y-51180500D01*
X67957200Y-51584300D02*
X67904800Y-51388000D01*
X67990400Y-51797200D02*
X67957200Y-51584300D01*
X68001000Y-52003100D02*
X67990400Y-51797200D01*
X68001000Y-53758800D02*
X68001000Y-52003100D01*
X68003400Y-53807000D02*
X68001000Y-53758800D01*
X68010400Y-53854600D02*
X68003400Y-53807000D01*
X68022100Y-53901200D02*
X68010400Y-53854600D01*
X68038300Y-53946500D02*
X68022100Y-53901200D01*
X68058900Y-53990000D02*
X68038300Y-53946500D01*
X68083600Y-54031200D02*
X68058900Y-53990000D01*
X68112200Y-54069800D02*
X68083600Y-54031200D01*
X68144500Y-54105500D02*
X68112200Y-54069800D01*
X68180200Y-54137800D02*
X68144500Y-54105500D01*
X68218800Y-54166400D02*
X68180200Y-54137800D01*
X68260000Y-54191100D02*
X68218800Y-54166400D01*
X68303500Y-54211700D02*
X68260000Y-54191100D01*
X68348800Y-54227900D02*
X68303500Y-54211700D01*
X68395400Y-54239600D02*
X68348800Y-54227900D01*
X68443000Y-54246600D02*
X68395400Y-54239600D01*
X68491200Y-54249000D02*
X68443000Y-54246600D01*
X69508800Y-54249000D02*
X68491200Y-54249000D01*
X69557000Y-54246600D02*
X69508800Y-54249000D01*
X69604600Y-54239600D02*
X69557000Y-54246600D01*
X69651200Y-54227900D02*
X69604600Y-54239600D01*
X69696500Y-54211700D02*
X69651200Y-54227900D01*
X69740000Y-54191100D02*
X69696500Y-54211700D01*
X69781200Y-54166400D02*
X69740000Y-54191100D01*
X69819900Y-54137800D02*
X69781200Y-54166400D01*
X69855500Y-54105500D02*
X69819900Y-54137800D01*
X69887800Y-54069800D02*
X69855500Y-54105500D01*
X69916400Y-54031200D02*
X69887800Y-54069800D01*
X69941100Y-53990000D02*
X69916400Y-54031200D01*
X69961700Y-53946500D02*
X69941100Y-53990000D01*
X69977900Y-53901200D02*
X69961700Y-53946500D01*
X69989600Y-53854600D02*
X69977900Y-53901200D01*
X69996600Y-53807000D02*
X69989600Y-53854600D01*
X69999000Y-53758800D02*
X69996600Y-53807000D01*
X69999000Y-52003300D02*
X69999000Y-53758800D01*
X70010100Y-51791100D02*
X69999000Y-52003300D01*
X70044400Y-51577600D02*
X70010100Y-51791100D01*
X70097200Y-51381400D02*
X70044400Y-51577600D01*
X70172100Y-51186400D02*
X70097200Y-51381400D01*
X70267100Y-50999800D02*
X70172100Y-51186400D01*
X70381500Y-50823700D02*
X70267100Y-50999800D01*
X70513300Y-50661000D02*
X70381500Y-50823700D01*
X70666200Y-50508800D02*
X70513300Y-50661000D01*
X70829400Y-50377600D02*
X70666200Y-50508800D01*
X70999400Y-50267400D02*
X70829400Y-50377600D01*
X71180200Y-50175000D02*
X70999400Y-50267400D01*
X71381500Y-50097200D02*
X71180200Y-50175000D01*
X71583800Y-50042900D02*
X71381500Y-50097200D01*
X71791200Y-50010100D02*
X71583800Y-50042900D01*
X72003300Y-49999000D02*
X71791200Y-50010100D01*
X85996700Y-49999000D02*
X72003300Y-49999000D01*
X86209400Y-50010200D02*
X85996700Y-49999000D01*
X86422400Y-50044400D02*
X86209400Y-50010200D01*
X86618100Y-50097000D02*
X86422400Y-50044400D01*
X86807700Y-50169600D02*
X86618100Y-50097000D01*
X87000200Y-50267100D02*
X86807700Y-50169600D01*
X87175900Y-50381200D02*
X87000200Y-50267100D01*
X87339000Y-50513300D02*
X87175900Y-50381200D01*
X87491200Y-50666200D02*
X87339000Y-50513300D01*
X87618600Y-50823800D02*
X87491200Y-50666200D01*
X87729300Y-50993900D02*
X87618600Y-50823800D01*
X87827800Y-51186000D02*
X87729300Y-50993900D01*
X87902800Y-51381500D02*
X87827800Y-51186000D01*
X87955600Y-51577600D02*
X87902800Y-51381500D01*
X87989900Y-51791100D02*
X87955600Y-51577600D01*
X88001000Y-52003100D02*
X87989900Y-51791100D01*
X88001000Y-53758800D02*
X88001000Y-52003100D01*
X88003400Y-53807000D02*
X88001000Y-53758800D01*
X88010400Y-53854600D02*
X88003400Y-53807000D01*
X88022100Y-53901200D02*
X88010400Y-53854600D01*
X88038300Y-53946500D02*
X88022100Y-53901200D01*
X88058900Y-53990000D02*
X88038300Y-53946500D01*
X88083600Y-54031200D02*
X88058900Y-53990000D01*
X88112200Y-54069800D02*
X88083600Y-54031200D01*
X88144500Y-54105500D02*
X88112200Y-54069800D01*
X88180200Y-54137800D02*
X88144500Y-54105500D01*
X88218800Y-54166400D02*
X88180200Y-54137800D01*
X88260000Y-54191100D02*
X88218800Y-54166400D01*
X88303500Y-54211700D02*
X88260000Y-54191100D01*
X88348800Y-54227900D02*
X88303500Y-54211700D01*
X88395400Y-54239600D02*
X88348800Y-54227900D01*
X88443000Y-54246600D02*
X88395400Y-54239600D01*
X88491200Y-54249000D02*
X88443000Y-54246600D01*
X89509800Y-54249000D02*
X88491200Y-54249000D01*
X89558000Y-54246600D02*
X89509800Y-54249000D01*
X89605600Y-54239600D02*
X89558000Y-54246600D01*
X89652300Y-54227900D02*
X89605600Y-54239600D01*
X89697500Y-54211700D02*
X89652300Y-54227900D01*
X89741000Y-54191100D02*
X89697500Y-54211700D01*
X89782200Y-54166400D02*
X89741000Y-54191100D01*
X89820900Y-54137800D02*
X89782200Y-54166400D01*
X89856500Y-54105500D02*
X89820900Y-54137800D01*
X89888800Y-54069800D02*
X89856500Y-54105500D01*
X89917400Y-54031200D02*
X89888800Y-54069800D01*
X89942100Y-53990000D02*
X89917400Y-54031200D01*
X89962700Y-53946500D02*
X89942100Y-53990000D01*
X89978900Y-53901200D02*
X89962700Y-53946500D01*
X89990600Y-53854600D02*
X89978900Y-53901200D01*
X89997600Y-53807000D02*
X89990600Y-53854600D01*
X90000000Y-53758800D02*
X89997600Y-53807000D01*
X90000000Y-50011300D02*
X90000000Y-53758800D01*
X90002700Y-50002400D02*
X90000000Y-50011300D01*
X90006800Y-49999700D02*
X90002700Y-50002400D01*
X90012300Y-49999000D02*
X90006800Y-49999700D01*
X92988700Y-49999000D02*
X90012300Y-49999000D01*
X92996900Y-50001100D02*
X92988700Y-49999000D01*
X93000300Y-50005700D02*
X92996900Y-50001100D01*
X93001000Y-50011300D02*
X93000300Y-50005700D01*
X93001000Y-84988700D02*
X93001000Y-50011300D01*
X92998900Y-84996900D02*
X93001000Y-84988700D01*
X92994300Y-85000300D02*
X92998900Y-84996900D01*
X92988700Y-85001000D02*
X92994300Y-85000300D01*
X90012300Y-85001000D02*
X92988700Y-85001000D01*
X90006800Y-85000300D02*
X90012300Y-85001000D01*
X90002700Y-84997600D02*
X90006800Y-85000300D01*
X90000000Y-84988700D02*
X90002700Y-84997600D01*
X90000000Y-81241300D02*
X90000000Y-84988700D01*
X89997600Y-81193000D02*
X90000000Y-81241300D01*
X89990600Y-81145400D02*
X89997600Y-81193000D01*
X89978900Y-81098800D02*
X89990600Y-81145400D01*
X89962700Y-81053500D02*
X89978900Y-81098800D01*
X89942100Y-81010000D02*
X89962700Y-81053500D01*
X89917400Y-80968800D02*
X89942100Y-81010000D01*
X89888800Y-80930200D02*
X89917400Y-80968800D01*
X89856500Y-80894500D02*
X89888800Y-80930200D01*
X89820900Y-80862200D02*
X89856500Y-80894500D01*
X89782200Y-80833600D02*
X89820900Y-80862200D01*
X89741000Y-80808900D02*
X89782200Y-80833600D01*
X89697500Y-80788300D02*
X89741000Y-80808900D01*
X89652300Y-80772100D02*
X89697500Y-80788300D01*
X89605600Y-80760400D02*
X89652300Y-80772100D01*
X89558000Y-80753400D02*
X89605600Y-80760400D01*
X89509800Y-80751000D02*
X89558000Y-80753400D01*
X88491300Y-80751000D02*
X89509800Y-80751000D01*
X88443000Y-80753400D02*
X88491300Y-80751000D01*
X88395400Y-80760400D02*
X88443000Y-80753400D01*
X88348800Y-80772100D02*
X88395400Y-80760400D01*
X88303500Y-80788300D02*
X88348800Y-80772100D01*
X88260000Y-80808900D02*
X88303500Y-80788300D01*
X88218800Y-80833600D02*
X88260000Y-80808900D01*
X88180200Y-80862200D02*
X88218800Y-80833600D01*
X88144500Y-80894500D02*
X88180200Y-80862200D01*
X88112200Y-80930200D02*
X88144500Y-80894500D01*
X88083600Y-80968800D02*
X88112200Y-80930200D01*
X88058900Y-81010000D02*
X88083600Y-80968800D01*
X88038300Y-81053500D02*
X88058900Y-81010000D01*
X88022100Y-81098800D02*
X88038300Y-81053500D01*
X88010400Y-81145400D02*
X88022100Y-81098800D01*
X88003400Y-81193000D02*
X88010400Y-81145400D01*
X88001000Y-81241300D02*
X88003400Y-81193000D01*
X88001000Y-82996900D02*
X88001000Y-81241300D01*
X87989900Y-83208900D02*
X88001000Y-82996900D01*
X87957200Y-83415800D02*
X87989900Y-83208900D01*
X87904800Y-83612000D02*
X87957200Y-83415800D01*
X87827700Y-83814100D02*
X87904800Y-83612000D01*
X87729300Y-84006000D02*
X87827700Y-83814100D01*
X87618800Y-84175900D02*
X87729300Y-84006000D01*
X87491200Y-84333800D02*
X87618800Y-84175900D01*
X87339000Y-84486800D02*
X87491200Y-84333800D01*
X87176300Y-84618600D02*
X87339000Y-84486800D01*
X87000200Y-84732900D02*
X87176300Y-84618600D01*
X86807700Y-84830400D02*
X87000200Y-84732900D01*
X86618500Y-84902800D02*
X86807700Y-84830400D01*
X86422400Y-84955600D02*
X86618500Y-84902800D01*
X86209400Y-84989800D02*
X86422400Y-84955600D01*
X85996700Y-85001000D02*
X86209400Y-84989800D01*
X72003300Y-85001000D02*
X85996700Y-85001000D01*
X71791100Y-84989900D02*
X72003300Y-85001000D01*
X71583700Y-84957100D02*
X71791100Y-84989900D01*
X71381400Y-84902800D02*
X71583700Y-84957100D01*
X71180300Y-84825000D02*
X71381400Y-84902800D01*
X70994000Y-84729300D02*
X71180300Y-84825000D01*
X70824100Y-84618800D02*
X70994000Y-84729300D01*
X70666200Y-84491200D02*
X70824100Y-84618800D01*
X70513300Y-84339000D02*
X70666200Y-84491200D01*
X70381400Y-84176300D02*
X70513300Y-84339000D01*
X70267400Y-84000600D02*
X70381400Y-84176300D01*
X70172000Y-83813600D02*
X70267400Y-84000600D01*
X70097200Y-83618500D02*
X70172000Y-83813600D01*
X70044400Y-83422400D02*
X70097200Y-83618500D01*
X70010100Y-83208900D02*
X70044400Y-83422400D01*
X69999000Y-82996700D02*
X70010100Y-83208900D01*
X69999000Y-81241300D02*
X69999000Y-82996700D01*
X69996600Y-81193000D02*
X69999000Y-81241300D01*
X69989600Y-81145400D02*
X69996600Y-81193000D01*
X69977900Y-81098800D02*
X69989600Y-81145400D01*
X69961700Y-81053500D02*
X69977900Y-81098800D01*
X69941100Y-81010000D02*
X69961700Y-81053500D01*
X69916400Y-80968800D02*
X69941100Y-81010000D01*
X69887800Y-80930200D02*
X69916400Y-80968800D01*
X69855500Y-80894500D02*
X69887800Y-80930200D01*
X69819800Y-80862200D02*
X69855500Y-80894500D01*
X69781200Y-80833600D02*
X69819800Y-80862200D01*
X69740000Y-80808900D02*
X69781200Y-80833600D01*
X69696500Y-80788300D02*
X69740000Y-80808900D01*
X69651200Y-80772100D02*
X69696500Y-80788300D01*
X69604600Y-80760400D02*
X69651200Y-80772100D01*
X69557000Y-80753400D02*
X69604600Y-80760400D01*
X69508800Y-80751000D02*
X69557000Y-80753400D01*
X68491200Y-80751000D02*
X69508800Y-80751000D01*
X68443000Y-80753400D02*
X68491200Y-80751000D01*
X68395400Y-80760400D02*
X68443000Y-80753400D01*
X68348800Y-80772100D02*
X68395400Y-80760400D01*
X68303500Y-80788300D02*
X68348800Y-80772100D01*
X68260000Y-80808900D02*
X68303500Y-80788300D01*
X68218800Y-80833600D02*
X68260000Y-80808900D01*
X68180200Y-80862200D02*
X68218800Y-80833600D01*
X68144500Y-80894500D02*
X68180200Y-80862200D01*
X68112200Y-80930200D02*
X68144500Y-80894500D01*
X68083600Y-80968800D02*
X68112200Y-80930200D01*
X68058900Y-81010000D02*
X68083600Y-80968800D01*
X68038300Y-81053500D02*
X68058900Y-81010000D01*
X68022100Y-81098800D02*
X68038300Y-81053500D01*
X68010400Y-81145400D02*
X68022100Y-81098800D01*
X68003400Y-81193000D02*
X68010400Y-81145400D01*
X68001000Y-81241300D02*
X68003400Y-81193000D01*
X68001000Y-82996900D02*
X68001000Y-81241300D01*
X67990400Y-83202800D02*
X68001000Y-82996900D01*
X67955600Y-83422400D02*
X67990400Y-83202800D01*
X67902800Y-83618600D02*
X67955600Y-83422400D01*
X67825100Y-83819500D02*
X67902800Y-83618600D01*
X67732600Y-84000700D02*
X67825100Y-83819500D01*
X67618500Y-84176300D02*
X67732600Y-84000700D01*
X67486700Y-84339000D02*
X67618500Y-84176300D01*
X67333800Y-84491200D02*
X67486700Y-84339000D01*
X67170600Y-84622400D02*
X67333800Y-84491200D01*
X67000600Y-84732700D02*
X67170600Y-84622400D01*
X66819800Y-84825000D02*
X67000600Y-84732700D01*
X66618500Y-84902800D02*
X66819800Y-84825000D01*
X66422200Y-84955600D02*
X66618500Y-84902800D01*
X66209400Y-84989800D02*
X66422200Y-84955600D01*
X65996700Y-85001000D02*
X66209400Y-84989800D01*
X52003300Y-85001000D02*
X65996700Y-85001000D01*
X51791100Y-84989900D02*
X52003300Y-85001000D01*
X51583700Y-84957100D02*
X51791100Y-84989900D01*
X51375500Y-84900700D02*
X51583700Y-84957100D01*
X51186400Y-84827900D02*
X51375500Y-84900700D01*
X51005400Y-84735900D02*
X51186400Y-84827900D01*
X50824100Y-84618800D02*
X51005400Y-84735900D01*
X50661000Y-84486700D02*
X50824100Y-84618800D01*
X50508800Y-84333800D02*
X50661000Y-84486700D01*
X50381400Y-84176300D02*
X50508800Y-84333800D01*
X50270700Y-84006100D02*
X50381400Y-84176300D01*
X50172300Y-83814000D02*
X50270700Y-84006100D01*
X50097200Y-83618500D02*
X50172300Y-83814000D01*
X50044400Y-83422400D02*
X50097200Y-83618500D01*
X50010100Y-83208900D02*
X50044400Y-83422400D01*
X49999000Y-82996900D02*
X50010100Y-83208900D01*
X49999000Y-81241300D02*
X49999000Y-82996900D01*
X49996600Y-81193000D02*
X49999000Y-81241300D01*
X49989600Y-81145400D02*
X49996600Y-81193000D01*
X49977900Y-81098800D02*
X49989600Y-81145400D01*
X49961700Y-81053500D02*
X49977900Y-81098800D01*
X49941100Y-81010000D02*
X49961700Y-81053500D01*
X49916400Y-80968800D02*
X49941100Y-81010000D01*
X49887800Y-80930200D02*
X49916400Y-80968800D01*
X49855500Y-80894500D02*
X49887800Y-80930200D01*
X49819800Y-80862200D02*
X49855500Y-80894500D01*
X49781200Y-80833600D02*
X49819800Y-80862200D01*
X49740000Y-80808900D02*
X49781200Y-80833600D01*
X49696500Y-80788300D02*
X49740000Y-80808900D01*
X49651200Y-80772100D02*
X49696500Y-80788300D01*
X49604600Y-80760400D02*
X49651200Y-80772100D01*
X49557000Y-80753400D02*
X49604600Y-80760400D01*
X49508800Y-80751000D02*
X49557000Y-80753400D01*
X48489200Y-80751000D02*
X49508800Y-80751000D01*
X48441000Y-80753400D02*
X48489200Y-80751000D01*
X48393400Y-80760400D02*
X48441000Y-80753400D01*
X48346800Y-80772100D02*
X48393400Y-80760400D01*
X48301500Y-80788300D02*
X48346800Y-80772100D01*
X48258000Y-80808900D02*
X48301500Y-80788300D01*
X48216800Y-80833600D02*
X48258000Y-80808900D01*
X48178200Y-80862200D02*
X48216800Y-80833600D01*
X48142500Y-80894500D02*
X48178200Y-80862200D01*
X48110200Y-80930200D02*
X48142500Y-80894500D01*
X48081600Y-80968800D02*
X48110200Y-80930200D01*
X48056900Y-81010000D02*
X48081600Y-80968800D01*
X48036300Y-81053500D02*
X48056900Y-81010000D01*
X48020100Y-81098800D02*
X48036300Y-81053500D01*
X48008400Y-81145400D02*
X48020100Y-81098800D01*
X48001400Y-81193000D02*
X48008400Y-81145400D01*
X47999000Y-81241300D02*
X48001400Y-81193000D01*
X47999000Y-84988700D02*
X47999000Y-81241300D01*
X47996900Y-84996900D02*
X47999000Y-84988700D01*
X47992300Y-85000300D02*
X47996900Y-84996900D01*
X47986700Y-85001000D02*
X47992300Y-85000300D01*
X45012300Y-85001000D02*
X47986700Y-85001000D01*
X45004100Y-84998900D02*
X45012300Y-85001000D01*
X45000700Y-84994300D02*
X45004100Y-84998900D01*
X45000000Y-84988700D02*
X45000700Y-84994300D01*
X45000000Y-50011300D02*
X45000000Y-84988700D01*
X45002100Y-50003100D02*
X45000000Y-50011300D01*
X45009600Y-49999100D02*
X45002100Y-50003100D01*
D11*
G04 #@! TO.C,J2*
X75888010Y-82658510D02*
X75888010Y-80158510D01*
X75888010Y-80158510D02*
X76938010Y-80158510D01*
X76938010Y-80158510D02*
X76938010Y-79168510D01*
X82108010Y-82658510D02*
X82108010Y-80158510D01*
X82108010Y-80158510D02*
X81058010Y-80158510D01*
X77058010Y-84628510D02*
X80938010Y-84628510D01*
G04 #@! TO.C,L1*
X87020010Y-76746252D02*
X87020010Y-75075768D01*
X85200010Y-76746252D02*
X85200010Y-75075768D01*
G04 #@! TO.C,R1*
X74758010Y-79640768D02*
X74758010Y-79166252D01*
X73713010Y-79640768D02*
X73713010Y-79166252D01*
G04 #@! TO.C,R2*
X84283010Y-79640768D02*
X84283010Y-79166252D01*
X83238010Y-79640768D02*
X83238010Y-79166252D01*
G04 #@! TO.C,J1*
X83699010Y-68799010D02*
X74299010Y-68799010D01*
X74298010Y-74064510D02*
X74298010Y-72064510D01*
X74298010Y-70164510D02*
X74298010Y-68799010D01*
X83698010Y-74064510D02*
X83698010Y-72064510D01*
X83698010Y-70164510D02*
X83699010Y-68799010D01*
G04 #@! TO.C,D1*
X71226510Y-77347510D02*
X71226510Y-74797510D01*
X72926510Y-77347510D02*
X72926510Y-74797510D01*
X71226510Y-77347510D02*
X72926510Y-77347510D01*
G04 #@! TO.C,J2*
X55888001Y-82658510D02*
X55888001Y-80158510D01*
X55888001Y-80158510D02*
X56938001Y-80158510D01*
X56938001Y-80158510D02*
X56938001Y-79168510D01*
X62108001Y-82658510D02*
X62108001Y-80158510D01*
X62108001Y-80158510D02*
X61058001Y-80158510D01*
X57058001Y-84628510D02*
X60938001Y-84628510D01*
G04 #@! TO.C,L1*
X67020001Y-76746252D02*
X67020001Y-75075768D01*
X65200001Y-76746252D02*
X65200001Y-75075768D01*
G04 #@! TO.C,R1*
X54758001Y-79640768D02*
X54758001Y-79166252D01*
X53713001Y-79640768D02*
X53713001Y-79166252D01*
G04 #@! TO.C,R2*
X64283001Y-79640768D02*
X64283001Y-79166252D01*
X63238001Y-79640768D02*
X63238001Y-79166252D01*
G04 #@! TO.C,J1*
X63699001Y-68799010D02*
X54299001Y-68799010D01*
X54298001Y-74064510D02*
X54298001Y-72064510D01*
X54298001Y-70164510D02*
X54298001Y-68799010D01*
X63698001Y-74064510D02*
X63698001Y-72064510D01*
X63698001Y-70164510D02*
X63699001Y-68799010D01*
G04 #@! TO.C,D1*
X51226501Y-77347510D02*
X51226501Y-74797510D01*
X52926501Y-77347510D02*
X52926501Y-74797510D01*
X51226501Y-77347510D02*
X52926501Y-77347510D01*
G04 #@! TO.C,J2*
X75888010Y-64158501D02*
X75888010Y-61658501D01*
X75888010Y-61658501D02*
X76938010Y-61658501D01*
X76938010Y-61658501D02*
X76938010Y-60668501D01*
X82108010Y-64158501D02*
X82108010Y-61658501D01*
X82108010Y-61658501D02*
X81058010Y-61658501D01*
X77058010Y-66128501D02*
X80938010Y-66128501D01*
G04 #@! TO.C,L1*
X87020010Y-58246243D02*
X87020010Y-56575759D01*
X85200010Y-58246243D02*
X85200010Y-56575759D01*
G04 #@! TO.C,R1*
X74758010Y-61140759D02*
X74758010Y-60666243D01*
X73713010Y-61140759D02*
X73713010Y-60666243D01*
G04 #@! TO.C,R2*
X84283010Y-61140759D02*
X84283010Y-60666243D01*
X83238010Y-61140759D02*
X83238010Y-60666243D01*
G04 #@! TO.C,J1*
X83699010Y-50299001D02*
X74299010Y-50299001D01*
X74298010Y-55564501D02*
X74298010Y-53564501D01*
X74298010Y-51664501D02*
X74298010Y-50299001D01*
X83698010Y-55564501D02*
X83698010Y-53564501D01*
X83698010Y-51664501D02*
X83699010Y-50299001D01*
G04 #@! TO.C,D1*
X71226510Y-58847501D02*
X71226510Y-56297501D01*
X72926510Y-58847501D02*
X72926510Y-56297501D01*
X71226510Y-58847501D02*
X72926510Y-58847501D01*
G04 #@! TO.C,J2*
X55888001Y-64158501D02*
X55888001Y-61658501D01*
X55888001Y-61658501D02*
X56938001Y-61658501D01*
X56938001Y-61658501D02*
X56938001Y-60668501D01*
X62108001Y-64158501D02*
X62108001Y-61658501D01*
X62108001Y-61658501D02*
X61058001Y-61658501D01*
X57058001Y-66128501D02*
X60938001Y-66128501D01*
G04 #@! TO.C,L1*
X67020001Y-58246243D02*
X67020001Y-56575759D01*
X65200001Y-58246243D02*
X65200001Y-56575759D01*
G04 #@! TO.C,R1*
X54758001Y-61140759D02*
X54758001Y-60666243D01*
X53713001Y-61140759D02*
X53713001Y-60666243D01*
G04 #@! TO.C,R2*
X64283001Y-61140759D02*
X64283001Y-60666243D01*
X63238001Y-61140759D02*
X63238001Y-60666243D01*
G04 #@! TO.C,J1*
X63699001Y-50299001D02*
X54299001Y-50299001D01*
X54298001Y-55564501D02*
X54298001Y-53564501D01*
X54298001Y-51664501D02*
X54298001Y-50299001D01*
X63698001Y-55564501D02*
X63698001Y-53564501D01*
X63698001Y-51664501D02*
X63699001Y-50299001D01*
G04 #@! TO.C,D1*
X51226501Y-58847501D02*
X51226501Y-56297501D01*
X52926501Y-58847501D02*
X52926501Y-56297501D01*
X51226501Y-58847501D02*
X52926501Y-58847501D01*
G04 #@! TD*
G04 #@! TO.C,J2*
D12*
X78664676Y-81268890D02*
X78664676Y-81983176D01*
X78617057Y-82126033D01*
X78521819Y-82221271D01*
X78378962Y-82268890D01*
X78283724Y-82268890D01*
X79093248Y-81364129D02*
X79140867Y-81316510D01*
X79236105Y-81268890D01*
X79474200Y-81268890D01*
X79569438Y-81316510D01*
X79617057Y-81364129D01*
X79664676Y-81459367D01*
X79664676Y-81554605D01*
X79617057Y-81697462D01*
X79045629Y-82268890D01*
X79664676Y-82268890D01*
G04 #@! TO.C,L1*
X86562390Y-76014176D02*
X86562390Y-76490367D01*
X85562390Y-76490367D01*
X86562390Y-75157033D02*
X86562390Y-75728462D01*
X86562390Y-75442748D02*
X85562390Y-75442748D01*
X85705248Y-75537986D01*
X85800486Y-75633224D01*
X85848105Y-75728462D01*
G04 #@! TO.C,R1*
X73290890Y-79633676D02*
X72814700Y-79967010D01*
X73290890Y-80205105D02*
X72290890Y-80205105D01*
X72290890Y-79824152D01*
X72338510Y-79728914D01*
X72386129Y-79681295D01*
X72481367Y-79633676D01*
X72624224Y-79633676D01*
X72719462Y-79681295D01*
X72767081Y-79728914D01*
X72814700Y-79824152D01*
X72814700Y-80205105D01*
X73290890Y-78681295D02*
X73290890Y-79252724D01*
X73290890Y-78967010D02*
X72290890Y-78967010D01*
X72433748Y-79062248D01*
X72528986Y-79157486D01*
X72576605Y-79252724D01*
G04 #@! TO.C,R2*
X85673390Y-79570176D02*
X85197200Y-79903510D01*
X85673390Y-80141605D02*
X84673390Y-80141605D01*
X84673390Y-79760652D01*
X84721010Y-79665414D01*
X84768629Y-79617795D01*
X84863867Y-79570176D01*
X85006724Y-79570176D01*
X85101962Y-79617795D01*
X85149581Y-79665414D01*
X85197200Y-79760652D01*
X85197200Y-80141605D01*
X84768629Y-79189224D02*
X84721010Y-79141605D01*
X84673390Y-79046367D01*
X84673390Y-78808271D01*
X84721010Y-78713033D01*
X84768629Y-78665414D01*
X84863867Y-78617795D01*
X84959105Y-78617795D01*
X85101962Y-78665414D01*
X85673390Y-79236843D01*
X85673390Y-78617795D01*
G04 #@! TO.C,J1*
X78664676Y-71426390D02*
X78664676Y-72140676D01*
X78617057Y-72283533D01*
X78521819Y-72378771D01*
X78378962Y-72426390D01*
X78283724Y-72426390D01*
X79664676Y-72426390D02*
X79093248Y-72426390D01*
X79378962Y-72426390D02*
X79378962Y-71426390D01*
X79283724Y-71569248D01*
X79188486Y-71664486D01*
X79093248Y-71712105D01*
G04 #@! TO.C,D1*
X72528890Y-76522105D02*
X71528890Y-76522105D01*
X71528890Y-76284010D01*
X71576510Y-76141152D01*
X71671748Y-76045914D01*
X71766986Y-75998295D01*
X71957462Y-75950676D01*
X72100319Y-75950676D01*
X72290795Y-75998295D01*
X72386033Y-76045914D01*
X72481271Y-76141152D01*
X72528890Y-76284010D01*
X72528890Y-76522105D01*
X72528890Y-74998295D02*
X72528890Y-75569724D01*
X72528890Y-75284010D02*
X71528890Y-75284010D01*
X71671748Y-75379248D01*
X71766986Y-75474486D01*
X71814605Y-75569724D01*
G04 #@! TO.C,J2*
X58664667Y-81268890D02*
X58664667Y-81983176D01*
X58617048Y-82126033D01*
X58521810Y-82221271D01*
X58378953Y-82268890D01*
X58283715Y-82268890D01*
X59093239Y-81364129D02*
X59140858Y-81316510D01*
X59236096Y-81268890D01*
X59474191Y-81268890D01*
X59569429Y-81316510D01*
X59617048Y-81364129D01*
X59664667Y-81459367D01*
X59664667Y-81554605D01*
X59617048Y-81697462D01*
X59045620Y-82268890D01*
X59664667Y-82268890D01*
G04 #@! TO.C,L1*
X66562381Y-76014176D02*
X66562381Y-76490367D01*
X65562381Y-76490367D01*
X66562381Y-75157033D02*
X66562381Y-75728462D01*
X66562381Y-75442748D02*
X65562381Y-75442748D01*
X65705239Y-75537986D01*
X65800477Y-75633224D01*
X65848096Y-75728462D01*
G04 #@! TO.C,R1*
X53290881Y-79633676D02*
X52814691Y-79967010D01*
X53290881Y-80205105D02*
X52290881Y-80205105D01*
X52290881Y-79824152D01*
X52338501Y-79728914D01*
X52386120Y-79681295D01*
X52481358Y-79633676D01*
X52624215Y-79633676D01*
X52719453Y-79681295D01*
X52767072Y-79728914D01*
X52814691Y-79824152D01*
X52814691Y-80205105D01*
X53290881Y-78681295D02*
X53290881Y-79252724D01*
X53290881Y-78967010D02*
X52290881Y-78967010D01*
X52433739Y-79062248D01*
X52528977Y-79157486D01*
X52576596Y-79252724D01*
G04 #@! TO.C,R2*
X65673381Y-79570176D02*
X65197191Y-79903510D01*
X65673381Y-80141605D02*
X64673381Y-80141605D01*
X64673381Y-79760652D01*
X64721001Y-79665414D01*
X64768620Y-79617795D01*
X64863858Y-79570176D01*
X65006715Y-79570176D01*
X65101953Y-79617795D01*
X65149572Y-79665414D01*
X65197191Y-79760652D01*
X65197191Y-80141605D01*
X64768620Y-79189224D02*
X64721001Y-79141605D01*
X64673381Y-79046367D01*
X64673381Y-78808271D01*
X64721001Y-78713033D01*
X64768620Y-78665414D01*
X64863858Y-78617795D01*
X64959096Y-78617795D01*
X65101953Y-78665414D01*
X65673381Y-79236843D01*
X65673381Y-78617795D01*
G04 #@! TO.C,J1*
X58664667Y-71426390D02*
X58664667Y-72140676D01*
X58617048Y-72283533D01*
X58521810Y-72378771D01*
X58378953Y-72426390D01*
X58283715Y-72426390D01*
X59664667Y-72426390D02*
X59093239Y-72426390D01*
X59378953Y-72426390D02*
X59378953Y-71426390D01*
X59283715Y-71569248D01*
X59188477Y-71664486D01*
X59093239Y-71712105D01*
G04 #@! TO.C,D1*
X52528881Y-76522105D02*
X51528881Y-76522105D01*
X51528881Y-76284010D01*
X51576501Y-76141152D01*
X51671739Y-76045914D01*
X51766977Y-75998295D01*
X51957453Y-75950676D01*
X52100310Y-75950676D01*
X52290786Y-75998295D01*
X52386024Y-76045914D01*
X52481262Y-76141152D01*
X52528881Y-76284010D01*
X52528881Y-76522105D01*
X52528881Y-74998295D02*
X52528881Y-75569724D01*
X52528881Y-75284010D02*
X51528881Y-75284010D01*
X51671739Y-75379248D01*
X51766977Y-75474486D01*
X51814596Y-75569724D01*
G04 #@! TO.C,J2*
X78664676Y-62768881D02*
X78664676Y-63483167D01*
X78617057Y-63626024D01*
X78521819Y-63721262D01*
X78378962Y-63768881D01*
X78283724Y-63768881D01*
X79093248Y-62864120D02*
X79140867Y-62816501D01*
X79236105Y-62768881D01*
X79474200Y-62768881D01*
X79569438Y-62816501D01*
X79617057Y-62864120D01*
X79664676Y-62959358D01*
X79664676Y-63054596D01*
X79617057Y-63197453D01*
X79045629Y-63768881D01*
X79664676Y-63768881D01*
G04 #@! TO.C,L1*
X86562390Y-57514167D02*
X86562390Y-57990358D01*
X85562390Y-57990358D01*
X86562390Y-56657024D02*
X86562390Y-57228453D01*
X86562390Y-56942739D02*
X85562390Y-56942739D01*
X85705248Y-57037977D01*
X85800486Y-57133215D01*
X85848105Y-57228453D01*
G04 #@! TO.C,R1*
X73290890Y-61133667D02*
X72814700Y-61467001D01*
X73290890Y-61705096D02*
X72290890Y-61705096D01*
X72290890Y-61324143D01*
X72338510Y-61228905D01*
X72386129Y-61181286D01*
X72481367Y-61133667D01*
X72624224Y-61133667D01*
X72719462Y-61181286D01*
X72767081Y-61228905D01*
X72814700Y-61324143D01*
X72814700Y-61705096D01*
X73290890Y-60181286D02*
X73290890Y-60752715D01*
X73290890Y-60467001D02*
X72290890Y-60467001D01*
X72433748Y-60562239D01*
X72528986Y-60657477D01*
X72576605Y-60752715D01*
G04 #@! TO.C,R2*
X85673390Y-61070167D02*
X85197200Y-61403501D01*
X85673390Y-61641596D02*
X84673390Y-61641596D01*
X84673390Y-61260643D01*
X84721010Y-61165405D01*
X84768629Y-61117786D01*
X84863867Y-61070167D01*
X85006724Y-61070167D01*
X85101962Y-61117786D01*
X85149581Y-61165405D01*
X85197200Y-61260643D01*
X85197200Y-61641596D01*
X84768629Y-60689215D02*
X84721010Y-60641596D01*
X84673390Y-60546358D01*
X84673390Y-60308262D01*
X84721010Y-60213024D01*
X84768629Y-60165405D01*
X84863867Y-60117786D01*
X84959105Y-60117786D01*
X85101962Y-60165405D01*
X85673390Y-60736834D01*
X85673390Y-60117786D01*
G04 #@! TO.C,J1*
X78664676Y-52926381D02*
X78664676Y-53640667D01*
X78617057Y-53783524D01*
X78521819Y-53878762D01*
X78378962Y-53926381D01*
X78283724Y-53926381D01*
X79664676Y-53926381D02*
X79093248Y-53926381D01*
X79378962Y-53926381D02*
X79378962Y-52926381D01*
X79283724Y-53069239D01*
X79188486Y-53164477D01*
X79093248Y-53212096D01*
G04 #@! TO.C,D1*
X72528890Y-58022096D02*
X71528890Y-58022096D01*
X71528890Y-57784001D01*
X71576510Y-57641143D01*
X71671748Y-57545905D01*
X71766986Y-57498286D01*
X71957462Y-57450667D01*
X72100319Y-57450667D01*
X72290795Y-57498286D01*
X72386033Y-57545905D01*
X72481271Y-57641143D01*
X72528890Y-57784001D01*
X72528890Y-58022096D01*
X72528890Y-56498286D02*
X72528890Y-57069715D01*
X72528890Y-56784001D02*
X71528890Y-56784001D01*
X71671748Y-56879239D01*
X71766986Y-56974477D01*
X71814605Y-57069715D01*
G04 #@! TO.C,J2*
X58664667Y-62768881D02*
X58664667Y-63483167D01*
X58617048Y-63626024D01*
X58521810Y-63721262D01*
X58378953Y-63768881D01*
X58283715Y-63768881D01*
X59093239Y-62864120D02*
X59140858Y-62816501D01*
X59236096Y-62768881D01*
X59474191Y-62768881D01*
X59569429Y-62816501D01*
X59617048Y-62864120D01*
X59664667Y-62959358D01*
X59664667Y-63054596D01*
X59617048Y-63197453D01*
X59045620Y-63768881D01*
X59664667Y-63768881D01*
G04 #@! TO.C,L1*
X66562381Y-57514167D02*
X66562381Y-57990358D01*
X65562381Y-57990358D01*
X66562381Y-56657024D02*
X66562381Y-57228453D01*
X66562381Y-56942739D02*
X65562381Y-56942739D01*
X65705239Y-57037977D01*
X65800477Y-57133215D01*
X65848096Y-57228453D01*
G04 #@! TO.C,R1*
X53290881Y-61133667D02*
X52814691Y-61467001D01*
X53290881Y-61705096D02*
X52290881Y-61705096D01*
X52290881Y-61324143D01*
X52338501Y-61228905D01*
X52386120Y-61181286D01*
X52481358Y-61133667D01*
X52624215Y-61133667D01*
X52719453Y-61181286D01*
X52767072Y-61228905D01*
X52814691Y-61324143D01*
X52814691Y-61705096D01*
X53290881Y-60181286D02*
X53290881Y-60752715D01*
X53290881Y-60467001D02*
X52290881Y-60467001D01*
X52433739Y-60562239D01*
X52528977Y-60657477D01*
X52576596Y-60752715D01*
G04 #@! TO.C,R2*
X65673381Y-61070167D02*
X65197191Y-61403501D01*
X65673381Y-61641596D02*
X64673381Y-61641596D01*
X64673381Y-61260643D01*
X64721001Y-61165405D01*
X64768620Y-61117786D01*
X64863858Y-61070167D01*
X65006715Y-61070167D01*
X65101953Y-61117786D01*
X65149572Y-61165405D01*
X65197191Y-61260643D01*
X65197191Y-61641596D01*
X64768620Y-60689215D02*
X64721001Y-60641596D01*
X64673381Y-60546358D01*
X64673381Y-60308262D01*
X64721001Y-60213024D01*
X64768620Y-60165405D01*
X64863858Y-60117786D01*
X64959096Y-60117786D01*
X65101953Y-60165405D01*
X65673381Y-60736834D01*
X65673381Y-60117786D01*
G04 #@! TO.C,J1*
X58664667Y-52926381D02*
X58664667Y-53640667D01*
X58617048Y-53783524D01*
X58521810Y-53878762D01*
X58378953Y-53926381D01*
X58283715Y-53926381D01*
X59664667Y-53926381D02*
X59093239Y-53926381D01*
X59378953Y-53926381D02*
X59378953Y-52926381D01*
X59283715Y-53069239D01*
X59188477Y-53164477D01*
X59093239Y-53212096D01*
G04 #@! TO.C,D1*
X52528881Y-58022096D02*
X51528881Y-58022096D01*
X51528881Y-57784001D01*
X51576501Y-57641143D01*
X51671739Y-57545905D01*
X51766977Y-57498286D01*
X51957453Y-57450667D01*
X52100310Y-57450667D01*
X52290786Y-57498286D01*
X52386024Y-57545905D01*
X52481262Y-57641143D01*
X52528881Y-57784001D01*
X52528881Y-58022096D01*
X52528881Y-56498286D02*
X52528881Y-57069715D01*
X52528881Y-56784001D02*
X51528881Y-56784001D01*
X51671739Y-56879239D01*
X51766977Y-56974477D01*
X51814596Y-57069715D01*
G04 #@! TD*
M02*
