G04 #@! TF.GenerationSoftware,KiCad,Pcbnew,5.1.5+dfsg1-2build2*
G04 #@! TF.CreationDate,2021-03-05T15:17:46+01:00*
G04 #@! TF.ProjectId,sDB_panel,7344425f-7061-46e6-956c-2e6b69636164,rev?*
G04 #@! TF.SameCoordinates,Original*
G04 #@! TF.FileFunction,Paste,Top*
G04 #@! TF.FilePolarity,Positive*
%FSLAX46Y46*%
G04 Gerber Fmt 4.6, Leading zero omitted, Abs format (unit mm)*
G04 Created by KiCad (PCBNEW 5.1.5+dfsg1-2build2) date 2021-03-05 15:17:46*
%MOMM*%
%LPD*%
G04 APERTURE LIST*
G04 #@! TA.AperFunction,Profile*
%ADD10C,0.100000*%
G04 #@! TD*
%ADD11C,0.350000*%
%ADD12R,0.300000X1.450000*%
%ADD13R,0.600000X1.450000*%
%ADD14R,0.450000X0.600000*%
G04 APERTURE END LIST*
D10*
X47999000Y-72258800D02*
X47999000Y-62741200D01*
X48001400Y-72307000D02*
X47999000Y-72258800D01*
X48008400Y-72354600D02*
X48001400Y-72307000D01*
X48020100Y-72401200D02*
X48008400Y-72354600D01*
X48036300Y-72446500D02*
X48020100Y-72401200D01*
X48056900Y-72490000D02*
X48036300Y-72446500D01*
X48081600Y-72531200D02*
X48056900Y-72490000D01*
X48110200Y-72569900D02*
X48081600Y-72531200D01*
X48142500Y-72605500D02*
X48110200Y-72569900D01*
X48178200Y-72637800D02*
X48142500Y-72605500D01*
X48216800Y-72666400D02*
X48178200Y-72637800D01*
X48258000Y-72691100D02*
X48216800Y-72666400D01*
X48301500Y-72711700D02*
X48258000Y-72691100D01*
X48346800Y-72727900D02*
X48301500Y-72711700D01*
X48393400Y-72739600D02*
X48346800Y-72727900D01*
X48441000Y-72746600D02*
X48393400Y-72739600D01*
X48489200Y-72749000D02*
X48441000Y-72746600D01*
X49508800Y-72749000D02*
X48489200Y-72749000D01*
X49557000Y-72746600D02*
X49508800Y-72749000D01*
X49604600Y-72739600D02*
X49557000Y-72746600D01*
X49651200Y-72727900D02*
X49604600Y-72739600D01*
X49696500Y-72711700D02*
X49651200Y-72727900D01*
X49740000Y-72691100D02*
X49696500Y-72711700D01*
X49781200Y-72666400D02*
X49740000Y-72691100D01*
X49819800Y-72637800D02*
X49781200Y-72666400D01*
X49855500Y-72605500D02*
X49819800Y-72637800D01*
X49887800Y-72569900D02*
X49855500Y-72605500D01*
X49916400Y-72531200D02*
X49887800Y-72569900D01*
X49941100Y-72490000D02*
X49916400Y-72531200D01*
X49961700Y-72446500D02*
X49941100Y-72490000D01*
X49977900Y-72401200D02*
X49961700Y-72446500D01*
X49989600Y-72354600D02*
X49977900Y-72401200D01*
X49996600Y-72307000D02*
X49989600Y-72354600D01*
X49999000Y-72258800D02*
X49996600Y-72307000D01*
X49999000Y-70499800D02*
X49999000Y-72258800D01*
X50010100Y-70291100D02*
X49999000Y-70499800D01*
X50041700Y-70090500D02*
X50010100Y-70291100D01*
X50097000Y-69881900D02*
X50041700Y-70090500D01*
X50175000Y-69680300D02*
X50097000Y-69881900D01*
X50267100Y-69499800D02*
X50175000Y-69680300D01*
X50377500Y-69329400D02*
X50267100Y-69499800D01*
X50513300Y-69161000D02*
X50377500Y-69329400D01*
X50661000Y-69013300D02*
X50513300Y-69161000D01*
X50818700Y-68885300D02*
X50661000Y-69013300D01*
X50999800Y-68767100D02*
X50818700Y-68885300D01*
X51186000Y-68672300D02*
X50999800Y-68767100D01*
X51375500Y-68599300D02*
X51186000Y-68672300D01*
X51590500Y-68541700D02*
X51375500Y-68599300D01*
X51791100Y-68510100D02*
X51590500Y-68541700D01*
X52000100Y-68499000D02*
X51791100Y-68510100D01*
X54508800Y-68499000D02*
X52000100Y-68499000D01*
X54557000Y-68496600D02*
X54508800Y-68499000D01*
X54604600Y-68489600D02*
X54557000Y-68496600D01*
X54651200Y-68477900D02*
X54604600Y-68489600D01*
X54696500Y-68461700D02*
X54651200Y-68477900D01*
X54740000Y-68441100D02*
X54696500Y-68461700D01*
X54781200Y-68416400D02*
X54740000Y-68441100D01*
X54819800Y-68387800D02*
X54781200Y-68416400D01*
X54855500Y-68355500D02*
X54819800Y-68387800D01*
X54887800Y-68319800D02*
X54855500Y-68355500D01*
X54916400Y-68281200D02*
X54887800Y-68319800D01*
X54941100Y-68240000D02*
X54916400Y-68281200D01*
X54961700Y-68196500D02*
X54941100Y-68240000D01*
X54977900Y-68151200D02*
X54961700Y-68196500D01*
X54989600Y-68104600D02*
X54977900Y-68151200D01*
X54996600Y-68057000D02*
X54989600Y-68104600D01*
X54999000Y-68008800D02*
X54996600Y-68057000D01*
X54999000Y-66991200D02*
X54999000Y-68008800D01*
X54996600Y-66943000D02*
X54999000Y-66991200D01*
X54989600Y-66895400D02*
X54996600Y-66943000D01*
X54977900Y-66848800D02*
X54989600Y-66895400D01*
X54961700Y-66803500D02*
X54977900Y-66848800D01*
X54941100Y-66760000D02*
X54961700Y-66803500D01*
X54916400Y-66718800D02*
X54941100Y-66760000D01*
X54887800Y-66680200D02*
X54916400Y-66718800D01*
X54855500Y-66644500D02*
X54887800Y-66680200D01*
X54819800Y-66612200D02*
X54855500Y-66644500D01*
X54781200Y-66583600D02*
X54819800Y-66612200D01*
X54740000Y-66558900D02*
X54781200Y-66583600D01*
X54696500Y-66538300D02*
X54740000Y-66558900D01*
X54651200Y-66522100D02*
X54696500Y-66538300D01*
X54604600Y-66510400D02*
X54651200Y-66522100D01*
X54557000Y-66503400D02*
X54604600Y-66510400D01*
X54508800Y-66501000D02*
X54557000Y-66503400D01*
X52003200Y-66501000D02*
X54508800Y-66501000D01*
X51797200Y-66490400D02*
X52003200Y-66501000D01*
X51584200Y-66457200D02*
X51797200Y-66490400D01*
X51381900Y-66403000D02*
X51584200Y-66457200D01*
X51186400Y-66327900D02*
X51381900Y-66403000D01*
X50999300Y-66232600D02*
X51186400Y-66327900D01*
X50824100Y-66118800D02*
X50999300Y-66232600D01*
X50661400Y-65987100D02*
X50824100Y-66118800D01*
X50513300Y-65839000D02*
X50661400Y-65987100D01*
X50385300Y-65681300D02*
X50513300Y-65839000D01*
X50264100Y-65494600D02*
X50385300Y-65681300D01*
X50172000Y-65313500D02*
X50264100Y-65494600D01*
X50095300Y-65112200D02*
X50172000Y-65313500D01*
X50042900Y-64916200D02*
X50095300Y-65112200D01*
X50011000Y-64715700D02*
X50042900Y-64916200D01*
X49999200Y-64503200D02*
X50011000Y-64715700D01*
X49999000Y-62741200D02*
X49999200Y-64503200D01*
X49996600Y-62693000D02*
X49999000Y-62741200D01*
X49989600Y-62645400D02*
X49996600Y-62693000D01*
X49977900Y-62598800D02*
X49989600Y-62645400D01*
X49961700Y-62553500D02*
X49977900Y-62598800D01*
X49941100Y-62510000D02*
X49961700Y-62553500D01*
X49916400Y-62468800D02*
X49941100Y-62510000D01*
X49887800Y-62430200D02*
X49916400Y-62468800D01*
X49855500Y-62394500D02*
X49887800Y-62430200D01*
X49819800Y-62362200D02*
X49855500Y-62394500D01*
X49781200Y-62333600D02*
X49819800Y-62362200D01*
X49740000Y-62308900D02*
X49781200Y-62333600D01*
X49696500Y-62288300D02*
X49740000Y-62308900D01*
X49651200Y-62272100D02*
X49696500Y-62288300D01*
X49604600Y-62260400D02*
X49651200Y-62272100D01*
X49557000Y-62253400D02*
X49604600Y-62260400D01*
X49508800Y-62251000D02*
X49557000Y-62253400D01*
X48489200Y-62251000D02*
X49508800Y-62251000D01*
X48441000Y-62253400D02*
X48489200Y-62251000D01*
X48393400Y-62260400D02*
X48441000Y-62253400D01*
X48346800Y-62272100D02*
X48393400Y-62260400D01*
X48301500Y-62288300D02*
X48346800Y-62272100D01*
X48258000Y-62308900D02*
X48301500Y-62288300D01*
X48216800Y-62333600D02*
X48258000Y-62308900D01*
X48178200Y-62362200D02*
X48216800Y-62333600D01*
X48142500Y-62394500D02*
X48178200Y-62362200D01*
X48110200Y-62430200D02*
X48142500Y-62394500D01*
X48081600Y-62468800D02*
X48110200Y-62430200D01*
X48056900Y-62510000D02*
X48081600Y-62468800D01*
X48036300Y-62553500D02*
X48056900Y-62510000D01*
X48020100Y-62598800D02*
X48036300Y-62553500D01*
X48008400Y-62645400D02*
X48020100Y-62598800D01*
X48001400Y-62693000D02*
X48008400Y-62645400D01*
X47999000Y-62741200D02*
X48001400Y-62693000D01*
X65996700Y-68499000D02*
X63491200Y-68499000D01*
X66208900Y-68510100D02*
X65996700Y-68499000D01*
X66416300Y-68543000D02*
X66208900Y-68510100D01*
X66624500Y-68599300D02*
X66416300Y-68543000D01*
X66813600Y-68672100D02*
X66624500Y-68599300D01*
X66994600Y-68764100D02*
X66813600Y-68672100D01*
X67175900Y-68881200D02*
X66994600Y-68764100D01*
X67338600Y-69013000D02*
X67175900Y-68881200D01*
X67482400Y-69156400D02*
X67338600Y-69013000D01*
X67622400Y-69329400D02*
X67482400Y-69156400D01*
X67732900Y-69499800D02*
X67622400Y-69329400D01*
X67827700Y-69686000D02*
X67732900Y-69499800D01*
X67902800Y-69881500D02*
X67827700Y-69686000D01*
X67955600Y-70077800D02*
X67902800Y-69881500D01*
X67989800Y-70290600D02*
X67955600Y-70077800D01*
X68001000Y-70500100D02*
X67989800Y-70290600D01*
X68001000Y-72258800D02*
X68001000Y-70500100D01*
X68003400Y-72307000D02*
X68001000Y-72258800D01*
X68010400Y-72354600D02*
X68003400Y-72307000D01*
X68022100Y-72401200D02*
X68010400Y-72354600D01*
X68038300Y-72446500D02*
X68022100Y-72401200D01*
X68058900Y-72490000D02*
X68038300Y-72446500D01*
X68083600Y-72531200D02*
X68058900Y-72490000D01*
X68112200Y-72569900D02*
X68083600Y-72531200D01*
X68144500Y-72605500D02*
X68112200Y-72569900D01*
X68180200Y-72637800D02*
X68144500Y-72605500D01*
X68218800Y-72666400D02*
X68180200Y-72637800D01*
X68260000Y-72691100D02*
X68218800Y-72666400D01*
X68303500Y-72711700D02*
X68260000Y-72691100D01*
X68348800Y-72727900D02*
X68303500Y-72711700D01*
X68395400Y-72739600D02*
X68348800Y-72727900D01*
X68443000Y-72746600D02*
X68395400Y-72739600D01*
X68491200Y-72749000D02*
X68443000Y-72746600D01*
X69508800Y-72749000D02*
X68491200Y-72749000D01*
X69557000Y-72746600D02*
X69508800Y-72749000D01*
X69604600Y-72739600D02*
X69557000Y-72746600D01*
X69651200Y-72727900D02*
X69604600Y-72739600D01*
X69696500Y-72711700D02*
X69651200Y-72727900D01*
X69740000Y-72691100D02*
X69696500Y-72711700D01*
X69781200Y-72666400D02*
X69740000Y-72691100D01*
X69819900Y-72637800D02*
X69781200Y-72666400D01*
X69855500Y-72605500D02*
X69819900Y-72637800D01*
X69887800Y-72569900D02*
X69855500Y-72605500D01*
X69916400Y-72531200D02*
X69887800Y-72569900D01*
X69941100Y-72490000D02*
X69916400Y-72531200D01*
X69961700Y-72446500D02*
X69941100Y-72490000D01*
X69977900Y-72401200D02*
X69961700Y-72446500D01*
X69989600Y-72354600D02*
X69977900Y-72401200D01*
X69996600Y-72307000D02*
X69989600Y-72354600D01*
X69999000Y-72258800D02*
X69996600Y-72307000D01*
X69999100Y-70499800D02*
X69999000Y-72258800D01*
X70010100Y-70291100D02*
X69999100Y-70499800D01*
X70041700Y-70090500D02*
X70010100Y-70291100D01*
X70097000Y-69881900D02*
X70041700Y-70090500D01*
X70175000Y-69680300D02*
X70097000Y-69881900D01*
X70267100Y-69499800D02*
X70175000Y-69680300D01*
X70377600Y-69329400D02*
X70267100Y-69499800D01*
X70513300Y-69161000D02*
X70377600Y-69329400D01*
X70661000Y-69013300D02*
X70513300Y-69161000D01*
X70818700Y-68885300D02*
X70661000Y-69013300D01*
X70999800Y-68767100D02*
X70818700Y-68885300D01*
X71186000Y-68672300D02*
X70999800Y-68767100D01*
X71375500Y-68599300D02*
X71186000Y-68672300D01*
X71590500Y-68541700D02*
X71375500Y-68599300D01*
X71791200Y-68510100D02*
X71590500Y-68541700D01*
X72000100Y-68499000D02*
X71791200Y-68510100D01*
X74508800Y-68499000D02*
X72000100Y-68499000D01*
X74557000Y-68496600D02*
X74508800Y-68499000D01*
X74604600Y-68489600D02*
X74557000Y-68496600D01*
X74651200Y-68477900D02*
X74604600Y-68489600D01*
X74696500Y-68461700D02*
X74651200Y-68477900D01*
X74740000Y-68441100D02*
X74696500Y-68461700D01*
X74781200Y-68416400D02*
X74740000Y-68441100D01*
X74819900Y-68387800D02*
X74781200Y-68416400D01*
X74855500Y-68355500D02*
X74819900Y-68387800D01*
X74887800Y-68319800D02*
X74855500Y-68355500D01*
X74916400Y-68281200D02*
X74887800Y-68319800D01*
X74941100Y-68240000D02*
X74916400Y-68281200D01*
X74961700Y-68196500D02*
X74941100Y-68240000D01*
X74977900Y-68151200D02*
X74961700Y-68196500D01*
X74989600Y-68104600D02*
X74977900Y-68151200D01*
X74996600Y-68057000D02*
X74989600Y-68104600D01*
X74999000Y-68008800D02*
X74996600Y-68057000D01*
X74999000Y-66991200D02*
X74999000Y-68008800D01*
X74996600Y-66943000D02*
X74999000Y-66991200D01*
X74989600Y-66895400D02*
X74996600Y-66943000D01*
X74977900Y-66848800D02*
X74989600Y-66895400D01*
X74961700Y-66803500D02*
X74977900Y-66848800D01*
X74941100Y-66760000D02*
X74961700Y-66803500D01*
X74916400Y-66718800D02*
X74941100Y-66760000D01*
X74887800Y-66680200D02*
X74916400Y-66718800D01*
X74855500Y-66644500D02*
X74887800Y-66680200D01*
X74819900Y-66612200D02*
X74855500Y-66644500D01*
X74781200Y-66583600D02*
X74819900Y-66612200D01*
X74740000Y-66558900D02*
X74781200Y-66583600D01*
X74696500Y-66538300D02*
X74740000Y-66558900D01*
X74651200Y-66522100D02*
X74696500Y-66538300D01*
X74604600Y-66510400D02*
X74651200Y-66522100D01*
X74557000Y-66503400D02*
X74604600Y-66510400D01*
X74508800Y-66501000D02*
X74557000Y-66503400D01*
X72003200Y-66501000D02*
X74508800Y-66501000D01*
X71791100Y-66489900D02*
X72003200Y-66501000D01*
X71583700Y-66457000D02*
X71791100Y-66489900D01*
X71375500Y-66400700D02*
X71583700Y-66457000D01*
X71186400Y-66327900D02*
X71375500Y-66400700D01*
X71005400Y-66235900D02*
X71186400Y-66327900D01*
X70824100Y-66118800D02*
X71005400Y-66235900D01*
X70661400Y-65987100D02*
X70824100Y-66118800D01*
X70517700Y-65843600D02*
X70661400Y-65987100D01*
X70377600Y-65670600D02*
X70517700Y-65843600D01*
X70267100Y-65500200D02*
X70377600Y-65670600D01*
X70172300Y-65314000D02*
X70267100Y-65500200D01*
X70097200Y-65118500D02*
X70172300Y-65314000D01*
X70044400Y-64922200D02*
X70097200Y-65118500D01*
X70010200Y-64709400D02*
X70044400Y-64922200D01*
X69999000Y-64499900D02*
X70010200Y-64709400D01*
X69999000Y-62741200D02*
X69999000Y-64499900D01*
X69996600Y-62693000D02*
X69999000Y-62741200D01*
X69989600Y-62645400D02*
X69996600Y-62693000D01*
X69977900Y-62598800D02*
X69989600Y-62645400D01*
X69961700Y-62553500D02*
X69977900Y-62598800D01*
X69941100Y-62510000D02*
X69961700Y-62553500D01*
X69916400Y-62468800D02*
X69941100Y-62510000D01*
X69887800Y-62430200D02*
X69916400Y-62468800D01*
X69855500Y-62394500D02*
X69887800Y-62430200D01*
X69819800Y-62362200D02*
X69855500Y-62394500D01*
X69781200Y-62333600D02*
X69819800Y-62362200D01*
X69740000Y-62308900D02*
X69781200Y-62333600D01*
X69696500Y-62288300D02*
X69740000Y-62308900D01*
X69651200Y-62272100D02*
X69696500Y-62288300D01*
X69604600Y-62260400D02*
X69651200Y-62272100D01*
X69557000Y-62253400D02*
X69604600Y-62260400D01*
X69508800Y-62251000D02*
X69557000Y-62253400D01*
X68491200Y-62251000D02*
X69508800Y-62251000D01*
X68443000Y-62253400D02*
X68491200Y-62251000D01*
X68395400Y-62260400D02*
X68443000Y-62253400D01*
X68348800Y-62272100D02*
X68395400Y-62260400D01*
X68303500Y-62288300D02*
X68348800Y-62272100D01*
X68260000Y-62308900D02*
X68303500Y-62288300D01*
X68218800Y-62333600D02*
X68260000Y-62308900D01*
X68180200Y-62362200D02*
X68218800Y-62333600D01*
X68144500Y-62394500D02*
X68180200Y-62362200D01*
X68112200Y-62430200D02*
X68144500Y-62394500D01*
X68083600Y-62468800D02*
X68112200Y-62430200D01*
X68058900Y-62510000D02*
X68083600Y-62468800D01*
X68038300Y-62553500D02*
X68058900Y-62510000D01*
X68022100Y-62598800D02*
X68038300Y-62553500D01*
X68010400Y-62645400D02*
X68022100Y-62598800D01*
X68003400Y-62693000D02*
X68010400Y-62645400D01*
X68001000Y-62741200D02*
X68003400Y-62693000D01*
X68001000Y-64496800D02*
X68001000Y-62741200D01*
X67989800Y-64709400D02*
X68001000Y-64496800D01*
X67955600Y-64922400D02*
X67989800Y-64709400D01*
X67903000Y-65118100D02*
X67955600Y-64922400D01*
X67830400Y-65307700D02*
X67903000Y-65118100D01*
X67732900Y-65500200D02*
X67830400Y-65307700D01*
X67614700Y-65681300D02*
X67732900Y-65500200D01*
X67486700Y-65839000D02*
X67614700Y-65681300D01*
X67339000Y-65986700D02*
X67486700Y-65839000D01*
X67176200Y-66118600D02*
X67339000Y-65986700D01*
X67006100Y-66229300D02*
X67176200Y-66118600D01*
X66807700Y-66330400D02*
X67006100Y-66229300D01*
X66618000Y-66403000D02*
X66807700Y-66330400D01*
X66415700Y-66457200D02*
X66618000Y-66403000D01*
X66209400Y-66489800D02*
X66415700Y-66457200D01*
X65999900Y-66501000D02*
X66209400Y-66489800D01*
X63491200Y-66501000D02*
X65999900Y-66501000D01*
X63443000Y-66503400D02*
X63491200Y-66501000D01*
X63395400Y-66510400D02*
X63443000Y-66503400D01*
X63348800Y-66522100D02*
X63395400Y-66510400D01*
X63303500Y-66538300D02*
X63348800Y-66522100D01*
X63260000Y-66558900D02*
X63303500Y-66538300D01*
X63218800Y-66583600D02*
X63260000Y-66558900D01*
X63180200Y-66612200D02*
X63218800Y-66583600D01*
X63144500Y-66644500D02*
X63180200Y-66612200D01*
X63112200Y-66680200D02*
X63144500Y-66644500D01*
X63083600Y-66718800D02*
X63112200Y-66680200D01*
X63058900Y-66760000D02*
X63083600Y-66718800D01*
X63038300Y-66803500D02*
X63058900Y-66760000D01*
X63022100Y-66848800D02*
X63038300Y-66803500D01*
X63010400Y-66895400D02*
X63022100Y-66848800D01*
X63003400Y-66943000D02*
X63010400Y-66895400D01*
X63001000Y-66991200D02*
X63003400Y-66943000D01*
X63001000Y-68008800D02*
X63001000Y-66991200D01*
X63003400Y-68057000D02*
X63001000Y-68008800D01*
X63010400Y-68104600D02*
X63003400Y-68057000D01*
X63022100Y-68151200D02*
X63010400Y-68104600D01*
X63038300Y-68196500D02*
X63022100Y-68151200D01*
X63058900Y-68240000D02*
X63038300Y-68196500D01*
X63083600Y-68281200D02*
X63058900Y-68240000D01*
X63112200Y-68319900D02*
X63083600Y-68281200D01*
X63144500Y-68355500D02*
X63112200Y-68319900D01*
X63180200Y-68387800D02*
X63144500Y-68355500D01*
X63218800Y-68416400D02*
X63180200Y-68387800D01*
X63260000Y-68441100D02*
X63218800Y-68416400D01*
X63303500Y-68461700D02*
X63260000Y-68441100D01*
X63348800Y-68477900D02*
X63303500Y-68461700D01*
X63395400Y-68489600D02*
X63348800Y-68477900D01*
X63443000Y-68496600D02*
X63395400Y-68489600D01*
X63491200Y-68499000D02*
X63443000Y-68496600D01*
X90000000Y-62741200D02*
X90000000Y-72258800D01*
X89997600Y-62693000D02*
X90000000Y-62741200D01*
X89990600Y-62645400D02*
X89997600Y-62693000D01*
X89978900Y-62598800D02*
X89990600Y-62645400D01*
X89962700Y-62553500D02*
X89978900Y-62598800D01*
X89942100Y-62510000D02*
X89962700Y-62553500D01*
X89917400Y-62468800D02*
X89942100Y-62510000D01*
X89888800Y-62430200D02*
X89917400Y-62468800D01*
X89856500Y-62394500D02*
X89888800Y-62430200D01*
X89820900Y-62362200D02*
X89856500Y-62394500D01*
X89782200Y-62333600D02*
X89820900Y-62362200D01*
X89741000Y-62308900D02*
X89782200Y-62333600D01*
X89697500Y-62288300D02*
X89741000Y-62308900D01*
X89652300Y-62272100D02*
X89697500Y-62288300D01*
X89605600Y-62260400D02*
X89652300Y-62272100D01*
X89558000Y-62253400D02*
X89605600Y-62260400D01*
X89509800Y-62251000D02*
X89558000Y-62253400D01*
X88491300Y-62251000D02*
X89509800Y-62251000D01*
X88443000Y-62253400D02*
X88491300Y-62251000D01*
X88395400Y-62260400D02*
X88443000Y-62253400D01*
X88348800Y-62272100D02*
X88395400Y-62260400D01*
X88303500Y-62288300D02*
X88348800Y-62272100D01*
X88260000Y-62308900D02*
X88303500Y-62288300D01*
X88218800Y-62333600D02*
X88260000Y-62308900D01*
X88180200Y-62362200D02*
X88218800Y-62333600D01*
X88144500Y-62394500D02*
X88180200Y-62362200D01*
X88112200Y-62430200D02*
X88144500Y-62394500D01*
X88083600Y-62468800D02*
X88112200Y-62430200D01*
X88058900Y-62510000D02*
X88083600Y-62468800D01*
X88038300Y-62553500D02*
X88058900Y-62510000D01*
X88022100Y-62598800D02*
X88038300Y-62553500D01*
X88010400Y-62645400D02*
X88022100Y-62598800D01*
X88003400Y-62693000D02*
X88010400Y-62645400D01*
X88001000Y-62741200D02*
X88003400Y-62693000D01*
X88001000Y-64500200D02*
X88001000Y-62741200D01*
X87989900Y-64708900D02*
X88001000Y-64500200D01*
X87958300Y-64909500D02*
X87989900Y-64708900D01*
X87903000Y-65118100D02*
X87958300Y-64909500D01*
X87825000Y-65319800D02*
X87903000Y-65118100D01*
X87732900Y-65500200D02*
X87825000Y-65319800D01*
X87622500Y-65670600D02*
X87732900Y-65500200D01*
X87486700Y-65839000D02*
X87622500Y-65670600D01*
X87339000Y-65986700D02*
X87486700Y-65839000D01*
X87181300Y-66114700D02*
X87339000Y-65986700D01*
X87000200Y-66232900D02*
X87181300Y-66114700D01*
X86814000Y-66327700D02*
X87000200Y-66232900D01*
X86624500Y-66400700D02*
X86814000Y-66327700D01*
X86409500Y-66458300D02*
X86624500Y-66400700D01*
X86208900Y-66489900D02*
X86409500Y-66458300D01*
X85999900Y-66501000D02*
X86208900Y-66489900D01*
X83491300Y-66501000D02*
X85999900Y-66501000D01*
X83443000Y-66503400D02*
X83491300Y-66501000D01*
X83395400Y-66510400D02*
X83443000Y-66503400D01*
X83348800Y-66522100D02*
X83395400Y-66510400D01*
X83303500Y-66538300D02*
X83348800Y-66522100D01*
X83260000Y-66558900D02*
X83303500Y-66538300D01*
X83218800Y-66583600D02*
X83260000Y-66558900D01*
X83180200Y-66612200D02*
X83218800Y-66583600D01*
X83144500Y-66644500D02*
X83180200Y-66612200D01*
X83112200Y-66680200D02*
X83144500Y-66644500D01*
X83083600Y-66718800D02*
X83112200Y-66680200D01*
X83058900Y-66760000D02*
X83083600Y-66718800D01*
X83038300Y-66803500D02*
X83058900Y-66760000D01*
X83022100Y-66848800D02*
X83038300Y-66803500D01*
X83010400Y-66895400D02*
X83022100Y-66848800D01*
X83003400Y-66943000D02*
X83010400Y-66895400D01*
X83001000Y-66991200D02*
X83003400Y-66943000D01*
X83001000Y-68008800D02*
X83001000Y-66991200D01*
X83003400Y-68057000D02*
X83001000Y-68008800D01*
X83010400Y-68104600D02*
X83003400Y-68057000D01*
X83022100Y-68151200D02*
X83010400Y-68104600D01*
X83038300Y-68196500D02*
X83022100Y-68151200D01*
X83058900Y-68240000D02*
X83038300Y-68196500D01*
X83083600Y-68281200D02*
X83058900Y-68240000D01*
X83112200Y-68319900D02*
X83083600Y-68281200D01*
X83144500Y-68355500D02*
X83112200Y-68319900D01*
X83180200Y-68387800D02*
X83144500Y-68355500D01*
X83218800Y-68416400D02*
X83180200Y-68387800D01*
X83260000Y-68441100D02*
X83218800Y-68416400D01*
X83303500Y-68461700D02*
X83260000Y-68441100D01*
X83348800Y-68477900D02*
X83303500Y-68461700D01*
X83395400Y-68489600D02*
X83348800Y-68477900D01*
X83443000Y-68496600D02*
X83395400Y-68489600D01*
X83491300Y-68499000D02*
X83443000Y-68496600D01*
X85996900Y-68499000D02*
X83491300Y-68499000D01*
X86202800Y-68509600D02*
X85996900Y-68499000D01*
X86415800Y-68542900D02*
X86202800Y-68509600D01*
X86618100Y-68597000D02*
X86415800Y-68542900D01*
X86813600Y-68672100D02*
X86618100Y-68597000D01*
X87000700Y-68767400D02*
X86813600Y-68672100D01*
X87175900Y-68881200D02*
X87000700Y-68767400D01*
X87338600Y-69013000D02*
X87175900Y-68881200D01*
X87486800Y-69161000D02*
X87338600Y-69013000D01*
X87614700Y-69318700D02*
X87486800Y-69161000D01*
X87735900Y-69505400D02*
X87614700Y-69318700D01*
X87828000Y-69686500D02*
X87735900Y-69505400D01*
X87904700Y-69887800D02*
X87828000Y-69686500D01*
X87957100Y-70083800D02*
X87904700Y-69887800D01*
X87989000Y-70284300D02*
X87957100Y-70083800D01*
X88000800Y-70496800D02*
X87989000Y-70284300D01*
X88001000Y-72258800D02*
X88000800Y-70496800D01*
X88003400Y-72307000D02*
X88001000Y-72258800D01*
X88010400Y-72354600D02*
X88003400Y-72307000D01*
X88022100Y-72401200D02*
X88010400Y-72354600D01*
X88038300Y-72446500D02*
X88022100Y-72401200D01*
X88058900Y-72490000D02*
X88038300Y-72446500D01*
X88083600Y-72531200D02*
X88058900Y-72490000D01*
X88112200Y-72569900D02*
X88083600Y-72531200D01*
X88144500Y-72605500D02*
X88112200Y-72569900D01*
X88180200Y-72637800D02*
X88144500Y-72605500D01*
X88218800Y-72666400D02*
X88180200Y-72637800D01*
X88260000Y-72691100D02*
X88218800Y-72666400D01*
X88303500Y-72711700D02*
X88260000Y-72691100D01*
X88348800Y-72727900D02*
X88303500Y-72711700D01*
X88395400Y-72739600D02*
X88348800Y-72727900D01*
X88443000Y-72746600D02*
X88395400Y-72739600D01*
X88491200Y-72749000D02*
X88443000Y-72746600D01*
X89509800Y-72749000D02*
X88491200Y-72749000D01*
X89558000Y-72746600D02*
X89509800Y-72749000D01*
X89605600Y-72739600D02*
X89558000Y-72746600D01*
X89652300Y-72727900D02*
X89605600Y-72739600D01*
X89697500Y-72711700D02*
X89652300Y-72727900D01*
X89741000Y-72691100D02*
X89697500Y-72711700D01*
X89782200Y-72666400D02*
X89741000Y-72691100D01*
X89820900Y-72637800D02*
X89782200Y-72666400D01*
X89856500Y-72605500D02*
X89820900Y-72637800D01*
X89888800Y-72569900D02*
X89856500Y-72605500D01*
X89917400Y-72531200D02*
X89888800Y-72569900D01*
X89942100Y-72490000D02*
X89917400Y-72531200D01*
X89962700Y-72446500D02*
X89942100Y-72490000D01*
X89978900Y-72401200D02*
X89962700Y-72446500D01*
X89990600Y-72354600D02*
X89978900Y-72401200D01*
X89997600Y-72307000D02*
X89990600Y-72354600D01*
X90000000Y-72258800D02*
X89997600Y-72307000D01*
X47986700Y-49999000D02*
X45009600Y-49999100D01*
X47992300Y-49999700D02*
X47986700Y-49999000D01*
X47996900Y-50003100D02*
X47992300Y-49999700D01*
X47999000Y-50011300D02*
X47996900Y-50003100D01*
X47999000Y-53758800D02*
X47999000Y-50011300D01*
X48001400Y-53807000D02*
X47999000Y-53758800D01*
X48008400Y-53854600D02*
X48001400Y-53807000D01*
X48020100Y-53901200D02*
X48008400Y-53854600D01*
X48036300Y-53946500D02*
X48020100Y-53901200D01*
X48056900Y-53990000D02*
X48036300Y-53946500D01*
X48081600Y-54031200D02*
X48056900Y-53990000D01*
X48110200Y-54069800D02*
X48081600Y-54031200D01*
X48142500Y-54105500D02*
X48110200Y-54069800D01*
X48178200Y-54137800D02*
X48142500Y-54105500D01*
X48216800Y-54166400D02*
X48178200Y-54137800D01*
X48258000Y-54191100D02*
X48216800Y-54166400D01*
X48301500Y-54211700D02*
X48258000Y-54191100D01*
X48346800Y-54227900D02*
X48301500Y-54211700D01*
X48393400Y-54239600D02*
X48346800Y-54227900D01*
X48441000Y-54246600D02*
X48393400Y-54239600D01*
X48489200Y-54249000D02*
X48441000Y-54246600D01*
X49508800Y-54249000D02*
X48489200Y-54249000D01*
X49557000Y-54246600D02*
X49508800Y-54249000D01*
X49604600Y-54239600D02*
X49557000Y-54246600D01*
X49651200Y-54227900D02*
X49604600Y-54239600D01*
X49696500Y-54211700D02*
X49651200Y-54227900D01*
X49740000Y-54191100D02*
X49696500Y-54211700D01*
X49781200Y-54166400D02*
X49740000Y-54191100D01*
X49819800Y-54137800D02*
X49781200Y-54166400D01*
X49855500Y-54105500D02*
X49819800Y-54137800D01*
X49887800Y-54069800D02*
X49855500Y-54105500D01*
X49916400Y-54031200D02*
X49887800Y-54069800D01*
X49941100Y-53990000D02*
X49916400Y-54031200D01*
X49961700Y-53946500D02*
X49941100Y-53990000D01*
X49977900Y-53901200D02*
X49961700Y-53946500D01*
X49989600Y-53854600D02*
X49977900Y-53901200D01*
X49996600Y-53807000D02*
X49989600Y-53854600D01*
X49999000Y-53758800D02*
X49996600Y-53807000D01*
X49999000Y-52003200D02*
X49999000Y-53758800D01*
X50010100Y-51791100D02*
X49999000Y-52003200D01*
X50042900Y-51584200D02*
X50010100Y-51791100D01*
X50095200Y-51388100D02*
X50042900Y-51584200D01*
X50172300Y-51185900D02*
X50095200Y-51388100D01*
X50270700Y-50994000D02*
X50172300Y-51185900D01*
X50381200Y-50824100D02*
X50270700Y-50994000D01*
X50508800Y-50666200D02*
X50381200Y-50824100D01*
X50661000Y-50513300D02*
X50508800Y-50666200D01*
X50824200Y-50381100D02*
X50661000Y-50513300D01*
X51005400Y-50264100D02*
X50824200Y-50381100D01*
X51186000Y-50172300D02*
X51005400Y-50264100D01*
X51375500Y-50099300D02*
X51186000Y-50172300D01*
X51583800Y-50042900D02*
X51375500Y-50099300D01*
X51791100Y-50010100D02*
X51583800Y-50042900D01*
X52003300Y-49999000D02*
X51791100Y-50010100D01*
X65996700Y-49999000D02*
X52003300Y-49999000D01*
X66209400Y-50010200D02*
X65996700Y-49999000D01*
X66422200Y-50044400D02*
X66209400Y-50010200D01*
X66618600Y-50097200D02*
X66422200Y-50044400D01*
X66814100Y-50172300D02*
X66618600Y-50097200D01*
X67000700Y-50267400D02*
X66814100Y-50172300D01*
X67181300Y-50385300D02*
X67000700Y-50267400D01*
X67343600Y-50517600D02*
X67181300Y-50385300D01*
X67486700Y-50661000D02*
X67343600Y-50517600D01*
X67614700Y-50818700D02*
X67486700Y-50661000D01*
X67732600Y-50999400D02*
X67614700Y-50818700D01*
X67825100Y-51180500D02*
X67732600Y-50999400D01*
X67904800Y-51388000D02*
X67825100Y-51180500D01*
X67957200Y-51584300D02*
X67904800Y-51388000D01*
X67990400Y-51797200D02*
X67957200Y-51584300D01*
X68001000Y-52003100D02*
X67990400Y-51797200D01*
X68001000Y-53758800D02*
X68001000Y-52003100D01*
X68003400Y-53807000D02*
X68001000Y-53758800D01*
X68010400Y-53854600D02*
X68003400Y-53807000D01*
X68022100Y-53901200D02*
X68010400Y-53854600D01*
X68038300Y-53946500D02*
X68022100Y-53901200D01*
X68058900Y-53990000D02*
X68038300Y-53946500D01*
X68083600Y-54031200D02*
X68058900Y-53990000D01*
X68112200Y-54069800D02*
X68083600Y-54031200D01*
X68144500Y-54105500D02*
X68112200Y-54069800D01*
X68180200Y-54137800D02*
X68144500Y-54105500D01*
X68218800Y-54166400D02*
X68180200Y-54137800D01*
X68260000Y-54191100D02*
X68218800Y-54166400D01*
X68303500Y-54211700D02*
X68260000Y-54191100D01*
X68348800Y-54227900D02*
X68303500Y-54211700D01*
X68395400Y-54239600D02*
X68348800Y-54227900D01*
X68443000Y-54246600D02*
X68395400Y-54239600D01*
X68491200Y-54249000D02*
X68443000Y-54246600D01*
X69508800Y-54249000D02*
X68491200Y-54249000D01*
X69557000Y-54246600D02*
X69508800Y-54249000D01*
X69604600Y-54239600D02*
X69557000Y-54246600D01*
X69651200Y-54227900D02*
X69604600Y-54239600D01*
X69696500Y-54211700D02*
X69651200Y-54227900D01*
X69740000Y-54191100D02*
X69696500Y-54211700D01*
X69781200Y-54166400D02*
X69740000Y-54191100D01*
X69819900Y-54137800D02*
X69781200Y-54166400D01*
X69855500Y-54105500D02*
X69819900Y-54137800D01*
X69887800Y-54069800D02*
X69855500Y-54105500D01*
X69916400Y-54031200D02*
X69887800Y-54069800D01*
X69941100Y-53990000D02*
X69916400Y-54031200D01*
X69961700Y-53946500D02*
X69941100Y-53990000D01*
X69977900Y-53901200D02*
X69961700Y-53946500D01*
X69989600Y-53854600D02*
X69977900Y-53901200D01*
X69996600Y-53807000D02*
X69989600Y-53854600D01*
X69999000Y-53758800D02*
X69996600Y-53807000D01*
X69999000Y-52003300D02*
X69999000Y-53758800D01*
X70010100Y-51791100D02*
X69999000Y-52003300D01*
X70044400Y-51577600D02*
X70010100Y-51791100D01*
X70097200Y-51381400D02*
X70044400Y-51577600D01*
X70172100Y-51186400D02*
X70097200Y-51381400D01*
X70267100Y-50999800D02*
X70172100Y-51186400D01*
X70381500Y-50823700D02*
X70267100Y-50999800D01*
X70513300Y-50661000D02*
X70381500Y-50823700D01*
X70666200Y-50508800D02*
X70513300Y-50661000D01*
X70829400Y-50377600D02*
X70666200Y-50508800D01*
X70999400Y-50267400D02*
X70829400Y-50377600D01*
X71180200Y-50175000D02*
X70999400Y-50267400D01*
X71381500Y-50097200D02*
X71180200Y-50175000D01*
X71583800Y-50042900D02*
X71381500Y-50097200D01*
X71791200Y-50010100D02*
X71583800Y-50042900D01*
X72003300Y-49999000D02*
X71791200Y-50010100D01*
X85996700Y-49999000D02*
X72003300Y-49999000D01*
X86209400Y-50010200D02*
X85996700Y-49999000D01*
X86422400Y-50044400D02*
X86209400Y-50010200D01*
X86618100Y-50097000D02*
X86422400Y-50044400D01*
X86807700Y-50169600D02*
X86618100Y-50097000D01*
X87000200Y-50267100D02*
X86807700Y-50169600D01*
X87175900Y-50381200D02*
X87000200Y-50267100D01*
X87339000Y-50513300D02*
X87175900Y-50381200D01*
X87491200Y-50666200D02*
X87339000Y-50513300D01*
X87618600Y-50823800D02*
X87491200Y-50666200D01*
X87729300Y-50993900D02*
X87618600Y-50823800D01*
X87827800Y-51186000D02*
X87729300Y-50993900D01*
X87902800Y-51381500D02*
X87827800Y-51186000D01*
X87955600Y-51577600D02*
X87902800Y-51381500D01*
X87989900Y-51791100D02*
X87955600Y-51577600D01*
X88001000Y-52003100D02*
X87989900Y-51791100D01*
X88001000Y-53758800D02*
X88001000Y-52003100D01*
X88003400Y-53807000D02*
X88001000Y-53758800D01*
X88010400Y-53854600D02*
X88003400Y-53807000D01*
X88022100Y-53901200D02*
X88010400Y-53854600D01*
X88038300Y-53946500D02*
X88022100Y-53901200D01*
X88058900Y-53990000D02*
X88038300Y-53946500D01*
X88083600Y-54031200D02*
X88058900Y-53990000D01*
X88112200Y-54069800D02*
X88083600Y-54031200D01*
X88144500Y-54105500D02*
X88112200Y-54069800D01*
X88180200Y-54137800D02*
X88144500Y-54105500D01*
X88218800Y-54166400D02*
X88180200Y-54137800D01*
X88260000Y-54191100D02*
X88218800Y-54166400D01*
X88303500Y-54211700D02*
X88260000Y-54191100D01*
X88348800Y-54227900D02*
X88303500Y-54211700D01*
X88395400Y-54239600D02*
X88348800Y-54227900D01*
X88443000Y-54246600D02*
X88395400Y-54239600D01*
X88491200Y-54249000D02*
X88443000Y-54246600D01*
X89509800Y-54249000D02*
X88491200Y-54249000D01*
X89558000Y-54246600D02*
X89509800Y-54249000D01*
X89605600Y-54239600D02*
X89558000Y-54246600D01*
X89652300Y-54227900D02*
X89605600Y-54239600D01*
X89697500Y-54211700D02*
X89652300Y-54227900D01*
X89741000Y-54191100D02*
X89697500Y-54211700D01*
X89782200Y-54166400D02*
X89741000Y-54191100D01*
X89820900Y-54137800D02*
X89782200Y-54166400D01*
X89856500Y-54105500D02*
X89820900Y-54137800D01*
X89888800Y-54069800D02*
X89856500Y-54105500D01*
X89917400Y-54031200D02*
X89888800Y-54069800D01*
X89942100Y-53990000D02*
X89917400Y-54031200D01*
X89962700Y-53946500D02*
X89942100Y-53990000D01*
X89978900Y-53901200D02*
X89962700Y-53946500D01*
X89990600Y-53854600D02*
X89978900Y-53901200D01*
X89997600Y-53807000D02*
X89990600Y-53854600D01*
X90000000Y-53758800D02*
X89997600Y-53807000D01*
X90000000Y-50011300D02*
X90000000Y-53758800D01*
X90002700Y-50002400D02*
X90000000Y-50011300D01*
X90006800Y-49999700D02*
X90002700Y-50002400D01*
X90012300Y-49999000D02*
X90006800Y-49999700D01*
X92988700Y-49999000D02*
X90012300Y-49999000D01*
X92996900Y-50001100D02*
X92988700Y-49999000D01*
X93000300Y-50005700D02*
X92996900Y-50001100D01*
X93001000Y-50011300D02*
X93000300Y-50005700D01*
X93001000Y-84988700D02*
X93001000Y-50011300D01*
X92998900Y-84996900D02*
X93001000Y-84988700D01*
X92994300Y-85000300D02*
X92998900Y-84996900D01*
X92988700Y-85001000D02*
X92994300Y-85000300D01*
X90012300Y-85001000D02*
X92988700Y-85001000D01*
X90006800Y-85000300D02*
X90012300Y-85001000D01*
X90002700Y-84997600D02*
X90006800Y-85000300D01*
X90000000Y-84988700D02*
X90002700Y-84997600D01*
X90000000Y-81241300D02*
X90000000Y-84988700D01*
X89997600Y-81193000D02*
X90000000Y-81241300D01*
X89990600Y-81145400D02*
X89997600Y-81193000D01*
X89978900Y-81098800D02*
X89990600Y-81145400D01*
X89962700Y-81053500D02*
X89978900Y-81098800D01*
X89942100Y-81010000D02*
X89962700Y-81053500D01*
X89917400Y-80968800D02*
X89942100Y-81010000D01*
X89888800Y-80930200D02*
X89917400Y-80968800D01*
X89856500Y-80894500D02*
X89888800Y-80930200D01*
X89820900Y-80862200D02*
X89856500Y-80894500D01*
X89782200Y-80833600D02*
X89820900Y-80862200D01*
X89741000Y-80808900D02*
X89782200Y-80833600D01*
X89697500Y-80788300D02*
X89741000Y-80808900D01*
X89652300Y-80772100D02*
X89697500Y-80788300D01*
X89605600Y-80760400D02*
X89652300Y-80772100D01*
X89558000Y-80753400D02*
X89605600Y-80760400D01*
X89509800Y-80751000D02*
X89558000Y-80753400D01*
X88491300Y-80751000D02*
X89509800Y-80751000D01*
X88443000Y-80753400D02*
X88491300Y-80751000D01*
X88395400Y-80760400D02*
X88443000Y-80753400D01*
X88348800Y-80772100D02*
X88395400Y-80760400D01*
X88303500Y-80788300D02*
X88348800Y-80772100D01*
X88260000Y-80808900D02*
X88303500Y-80788300D01*
X88218800Y-80833600D02*
X88260000Y-80808900D01*
X88180200Y-80862200D02*
X88218800Y-80833600D01*
X88144500Y-80894500D02*
X88180200Y-80862200D01*
X88112200Y-80930200D02*
X88144500Y-80894500D01*
X88083600Y-80968800D02*
X88112200Y-80930200D01*
X88058900Y-81010000D02*
X88083600Y-80968800D01*
X88038300Y-81053500D02*
X88058900Y-81010000D01*
X88022100Y-81098800D02*
X88038300Y-81053500D01*
X88010400Y-81145400D02*
X88022100Y-81098800D01*
X88003400Y-81193000D02*
X88010400Y-81145400D01*
X88001000Y-81241300D02*
X88003400Y-81193000D01*
X88001000Y-82996900D02*
X88001000Y-81241300D01*
X87989900Y-83208900D02*
X88001000Y-82996900D01*
X87957200Y-83415800D02*
X87989900Y-83208900D01*
X87904800Y-83612000D02*
X87957200Y-83415800D01*
X87827700Y-83814100D02*
X87904800Y-83612000D01*
X87729300Y-84006000D02*
X87827700Y-83814100D01*
X87618800Y-84175900D02*
X87729300Y-84006000D01*
X87491200Y-84333800D02*
X87618800Y-84175900D01*
X87339000Y-84486800D02*
X87491200Y-84333800D01*
X87176300Y-84618600D02*
X87339000Y-84486800D01*
X87000200Y-84732900D02*
X87176300Y-84618600D01*
X86807700Y-84830400D02*
X87000200Y-84732900D01*
X86618500Y-84902800D02*
X86807700Y-84830400D01*
X86422400Y-84955600D02*
X86618500Y-84902800D01*
X86209400Y-84989800D02*
X86422400Y-84955600D01*
X85996700Y-85001000D02*
X86209400Y-84989800D01*
X72003300Y-85001000D02*
X85996700Y-85001000D01*
X71791100Y-84989900D02*
X72003300Y-85001000D01*
X71583700Y-84957100D02*
X71791100Y-84989900D01*
X71381400Y-84902800D02*
X71583700Y-84957100D01*
X71180300Y-84825000D02*
X71381400Y-84902800D01*
X70994000Y-84729300D02*
X71180300Y-84825000D01*
X70824100Y-84618800D02*
X70994000Y-84729300D01*
X70666200Y-84491200D02*
X70824100Y-84618800D01*
X70513300Y-84339000D02*
X70666200Y-84491200D01*
X70381400Y-84176300D02*
X70513300Y-84339000D01*
X70267400Y-84000600D02*
X70381400Y-84176300D01*
X70172000Y-83813600D02*
X70267400Y-84000600D01*
X70097200Y-83618500D02*
X70172000Y-83813600D01*
X70044400Y-83422400D02*
X70097200Y-83618500D01*
X70010100Y-83208900D02*
X70044400Y-83422400D01*
X69999000Y-82996700D02*
X70010100Y-83208900D01*
X69999000Y-81241300D02*
X69999000Y-82996700D01*
X69996600Y-81193000D02*
X69999000Y-81241300D01*
X69989600Y-81145400D02*
X69996600Y-81193000D01*
X69977900Y-81098800D02*
X69989600Y-81145400D01*
X69961700Y-81053500D02*
X69977900Y-81098800D01*
X69941100Y-81010000D02*
X69961700Y-81053500D01*
X69916400Y-80968800D02*
X69941100Y-81010000D01*
X69887800Y-80930200D02*
X69916400Y-80968800D01*
X69855500Y-80894500D02*
X69887800Y-80930200D01*
X69819800Y-80862200D02*
X69855500Y-80894500D01*
X69781200Y-80833600D02*
X69819800Y-80862200D01*
X69740000Y-80808900D02*
X69781200Y-80833600D01*
X69696500Y-80788300D02*
X69740000Y-80808900D01*
X69651200Y-80772100D02*
X69696500Y-80788300D01*
X69604600Y-80760400D02*
X69651200Y-80772100D01*
X69557000Y-80753400D02*
X69604600Y-80760400D01*
X69508800Y-80751000D02*
X69557000Y-80753400D01*
X68491200Y-80751000D02*
X69508800Y-80751000D01*
X68443000Y-80753400D02*
X68491200Y-80751000D01*
X68395400Y-80760400D02*
X68443000Y-80753400D01*
X68348800Y-80772100D02*
X68395400Y-80760400D01*
X68303500Y-80788300D02*
X68348800Y-80772100D01*
X68260000Y-80808900D02*
X68303500Y-80788300D01*
X68218800Y-80833600D02*
X68260000Y-80808900D01*
X68180200Y-80862200D02*
X68218800Y-80833600D01*
X68144500Y-80894500D02*
X68180200Y-80862200D01*
X68112200Y-80930200D02*
X68144500Y-80894500D01*
X68083600Y-80968800D02*
X68112200Y-80930200D01*
X68058900Y-81010000D02*
X68083600Y-80968800D01*
X68038300Y-81053500D02*
X68058900Y-81010000D01*
X68022100Y-81098800D02*
X68038300Y-81053500D01*
X68010400Y-81145400D02*
X68022100Y-81098800D01*
X68003400Y-81193000D02*
X68010400Y-81145400D01*
X68001000Y-81241300D02*
X68003400Y-81193000D01*
X68001000Y-82996900D02*
X68001000Y-81241300D01*
X67990400Y-83202800D02*
X68001000Y-82996900D01*
X67955600Y-83422400D02*
X67990400Y-83202800D01*
X67902800Y-83618600D02*
X67955600Y-83422400D01*
X67825100Y-83819500D02*
X67902800Y-83618600D01*
X67732600Y-84000700D02*
X67825100Y-83819500D01*
X67618500Y-84176300D02*
X67732600Y-84000700D01*
X67486700Y-84339000D02*
X67618500Y-84176300D01*
X67333800Y-84491200D02*
X67486700Y-84339000D01*
X67170600Y-84622400D02*
X67333800Y-84491200D01*
X67000600Y-84732700D02*
X67170600Y-84622400D01*
X66819800Y-84825000D02*
X67000600Y-84732700D01*
X66618500Y-84902800D02*
X66819800Y-84825000D01*
X66422200Y-84955600D02*
X66618500Y-84902800D01*
X66209400Y-84989800D02*
X66422200Y-84955600D01*
X65996700Y-85001000D02*
X66209400Y-84989800D01*
X52003300Y-85001000D02*
X65996700Y-85001000D01*
X51791100Y-84989900D02*
X52003300Y-85001000D01*
X51583700Y-84957100D02*
X51791100Y-84989900D01*
X51375500Y-84900700D02*
X51583700Y-84957100D01*
X51186400Y-84827900D02*
X51375500Y-84900700D01*
X51005400Y-84735900D02*
X51186400Y-84827900D01*
X50824100Y-84618800D02*
X51005400Y-84735900D01*
X50661000Y-84486700D02*
X50824100Y-84618800D01*
X50508800Y-84333800D02*
X50661000Y-84486700D01*
X50381400Y-84176300D02*
X50508800Y-84333800D01*
X50270700Y-84006100D02*
X50381400Y-84176300D01*
X50172300Y-83814000D02*
X50270700Y-84006100D01*
X50097200Y-83618500D02*
X50172300Y-83814000D01*
X50044400Y-83422400D02*
X50097200Y-83618500D01*
X50010100Y-83208900D02*
X50044400Y-83422400D01*
X49999000Y-82996900D02*
X50010100Y-83208900D01*
X49999000Y-81241300D02*
X49999000Y-82996900D01*
X49996600Y-81193000D02*
X49999000Y-81241300D01*
X49989600Y-81145400D02*
X49996600Y-81193000D01*
X49977900Y-81098800D02*
X49989600Y-81145400D01*
X49961700Y-81053500D02*
X49977900Y-81098800D01*
X49941100Y-81010000D02*
X49961700Y-81053500D01*
X49916400Y-80968800D02*
X49941100Y-81010000D01*
X49887800Y-80930200D02*
X49916400Y-80968800D01*
X49855500Y-80894500D02*
X49887800Y-80930200D01*
X49819800Y-80862200D02*
X49855500Y-80894500D01*
X49781200Y-80833600D02*
X49819800Y-80862200D01*
X49740000Y-80808900D02*
X49781200Y-80833600D01*
X49696500Y-80788300D02*
X49740000Y-80808900D01*
X49651200Y-80772100D02*
X49696500Y-80788300D01*
X49604600Y-80760400D02*
X49651200Y-80772100D01*
X49557000Y-80753400D02*
X49604600Y-80760400D01*
X49508800Y-80751000D02*
X49557000Y-80753400D01*
X48489200Y-80751000D02*
X49508800Y-80751000D01*
X48441000Y-80753400D02*
X48489200Y-80751000D01*
X48393400Y-80760400D02*
X48441000Y-80753400D01*
X48346800Y-80772100D02*
X48393400Y-80760400D01*
X48301500Y-80788300D02*
X48346800Y-80772100D01*
X48258000Y-80808900D02*
X48301500Y-80788300D01*
X48216800Y-80833600D02*
X48258000Y-80808900D01*
X48178200Y-80862200D02*
X48216800Y-80833600D01*
X48142500Y-80894500D02*
X48178200Y-80862200D01*
X48110200Y-80930200D02*
X48142500Y-80894500D01*
X48081600Y-80968800D02*
X48110200Y-80930200D01*
X48056900Y-81010000D02*
X48081600Y-80968800D01*
X48036300Y-81053500D02*
X48056900Y-81010000D01*
X48020100Y-81098800D02*
X48036300Y-81053500D01*
X48008400Y-81145400D02*
X48020100Y-81098800D01*
X48001400Y-81193000D02*
X48008400Y-81145400D01*
X47999000Y-81241300D02*
X48001400Y-81193000D01*
X47999000Y-84988700D02*
X47999000Y-81241300D01*
X47996900Y-84996900D02*
X47999000Y-84988700D01*
X47992300Y-85000300D02*
X47996900Y-84996900D01*
X47986700Y-85001000D02*
X47992300Y-85000300D01*
X45012300Y-85001000D02*
X47986700Y-85001000D01*
X45004100Y-84998900D02*
X45012300Y-85001000D01*
X45000700Y-84994300D02*
X45004100Y-84998900D01*
X45000000Y-84988700D02*
X45000700Y-84994300D01*
X45000000Y-50011300D02*
X45000000Y-84988700D01*
X45002100Y-50003100D02*
X45000000Y-50011300D01*
X45009600Y-49999100D02*
X45002100Y-50003100D01*
D11*
G04 #@! TO.C,J2*
G36*
X77662713Y-79169232D02*
G01*
X77677274Y-79171392D01*
X77691553Y-79174969D01*
X77705413Y-79179928D01*
X77718720Y-79186222D01*
X77731346Y-79193790D01*
X77743169Y-79202558D01*
X77754076Y-79212444D01*
X77763962Y-79223351D01*
X77772730Y-79235174D01*
X77780298Y-79247800D01*
X77786592Y-79261107D01*
X77791551Y-79274967D01*
X77795128Y-79289246D01*
X77797288Y-79303807D01*
X77798010Y-79318510D01*
X77798010Y-80568510D01*
X77797288Y-80583213D01*
X77795128Y-80597774D01*
X77791551Y-80612053D01*
X77786592Y-80625913D01*
X77780298Y-80639220D01*
X77772730Y-80651846D01*
X77763962Y-80663669D01*
X77754076Y-80674576D01*
X77743169Y-80684462D01*
X77731346Y-80693230D01*
X77718720Y-80700798D01*
X77705413Y-80707092D01*
X77691553Y-80712051D01*
X77677274Y-80715628D01*
X77662713Y-80717788D01*
X77648010Y-80718510D01*
X77348010Y-80718510D01*
X77333307Y-80717788D01*
X77318746Y-80715628D01*
X77304467Y-80712051D01*
X77290607Y-80707092D01*
X77277300Y-80700798D01*
X77264674Y-80693230D01*
X77252851Y-80684462D01*
X77241944Y-80674576D01*
X77232058Y-80663669D01*
X77223290Y-80651846D01*
X77215722Y-80639220D01*
X77209428Y-80625913D01*
X77204469Y-80612053D01*
X77200892Y-80597774D01*
X77198732Y-80583213D01*
X77198010Y-80568510D01*
X77198010Y-79318510D01*
X77198732Y-79303807D01*
X77200892Y-79289246D01*
X77204469Y-79274967D01*
X77209428Y-79261107D01*
X77215722Y-79247800D01*
X77223290Y-79235174D01*
X77232058Y-79223351D01*
X77241944Y-79212444D01*
X77252851Y-79202558D01*
X77264674Y-79193790D01*
X77277300Y-79186222D01*
X77290607Y-79179928D01*
X77304467Y-79174969D01*
X77318746Y-79171392D01*
X77333307Y-79169232D01*
X77348010Y-79168510D01*
X77648010Y-79168510D01*
X77662713Y-79169232D01*
G37*
G36*
X78662713Y-79169232D02*
G01*
X78677274Y-79171392D01*
X78691553Y-79174969D01*
X78705413Y-79179928D01*
X78718720Y-79186222D01*
X78731346Y-79193790D01*
X78743169Y-79202558D01*
X78754076Y-79212444D01*
X78763962Y-79223351D01*
X78772730Y-79235174D01*
X78780298Y-79247800D01*
X78786592Y-79261107D01*
X78791551Y-79274967D01*
X78795128Y-79289246D01*
X78797288Y-79303807D01*
X78798010Y-79318510D01*
X78798010Y-80568510D01*
X78797288Y-80583213D01*
X78795128Y-80597774D01*
X78791551Y-80612053D01*
X78786592Y-80625913D01*
X78780298Y-80639220D01*
X78772730Y-80651846D01*
X78763962Y-80663669D01*
X78754076Y-80674576D01*
X78743169Y-80684462D01*
X78731346Y-80693230D01*
X78718720Y-80700798D01*
X78705413Y-80707092D01*
X78691553Y-80712051D01*
X78677274Y-80715628D01*
X78662713Y-80717788D01*
X78648010Y-80718510D01*
X78348010Y-80718510D01*
X78333307Y-80717788D01*
X78318746Y-80715628D01*
X78304467Y-80712051D01*
X78290607Y-80707092D01*
X78277300Y-80700798D01*
X78264674Y-80693230D01*
X78252851Y-80684462D01*
X78241944Y-80674576D01*
X78232058Y-80663669D01*
X78223290Y-80651846D01*
X78215722Y-80639220D01*
X78209428Y-80625913D01*
X78204469Y-80612053D01*
X78200892Y-80597774D01*
X78198732Y-80583213D01*
X78198010Y-80568510D01*
X78198010Y-79318510D01*
X78198732Y-79303807D01*
X78200892Y-79289246D01*
X78204469Y-79274967D01*
X78209428Y-79261107D01*
X78215722Y-79247800D01*
X78223290Y-79235174D01*
X78232058Y-79223351D01*
X78241944Y-79212444D01*
X78252851Y-79202558D01*
X78264674Y-79193790D01*
X78277300Y-79186222D01*
X78290607Y-79179928D01*
X78304467Y-79174969D01*
X78318746Y-79171392D01*
X78333307Y-79169232D01*
X78348010Y-79168510D01*
X78648010Y-79168510D01*
X78662713Y-79169232D01*
G37*
G36*
X79662713Y-79169232D02*
G01*
X79677274Y-79171392D01*
X79691553Y-79174969D01*
X79705413Y-79179928D01*
X79718720Y-79186222D01*
X79731346Y-79193790D01*
X79743169Y-79202558D01*
X79754076Y-79212444D01*
X79763962Y-79223351D01*
X79772730Y-79235174D01*
X79780298Y-79247800D01*
X79786592Y-79261107D01*
X79791551Y-79274967D01*
X79795128Y-79289246D01*
X79797288Y-79303807D01*
X79798010Y-79318510D01*
X79798010Y-80568510D01*
X79797288Y-80583213D01*
X79795128Y-80597774D01*
X79791551Y-80612053D01*
X79786592Y-80625913D01*
X79780298Y-80639220D01*
X79772730Y-80651846D01*
X79763962Y-80663669D01*
X79754076Y-80674576D01*
X79743169Y-80684462D01*
X79731346Y-80693230D01*
X79718720Y-80700798D01*
X79705413Y-80707092D01*
X79691553Y-80712051D01*
X79677274Y-80715628D01*
X79662713Y-80717788D01*
X79648010Y-80718510D01*
X79348010Y-80718510D01*
X79333307Y-80717788D01*
X79318746Y-80715628D01*
X79304467Y-80712051D01*
X79290607Y-80707092D01*
X79277300Y-80700798D01*
X79264674Y-80693230D01*
X79252851Y-80684462D01*
X79241944Y-80674576D01*
X79232058Y-80663669D01*
X79223290Y-80651846D01*
X79215722Y-80639220D01*
X79209428Y-80625913D01*
X79204469Y-80612053D01*
X79200892Y-80597774D01*
X79198732Y-80583213D01*
X79198010Y-80568510D01*
X79198010Y-79318510D01*
X79198732Y-79303807D01*
X79200892Y-79289246D01*
X79204469Y-79274967D01*
X79209428Y-79261107D01*
X79215722Y-79247800D01*
X79223290Y-79235174D01*
X79232058Y-79223351D01*
X79241944Y-79212444D01*
X79252851Y-79202558D01*
X79264674Y-79193790D01*
X79277300Y-79186222D01*
X79290607Y-79179928D01*
X79304467Y-79174969D01*
X79318746Y-79171392D01*
X79333307Y-79169232D01*
X79348010Y-79168510D01*
X79648010Y-79168510D01*
X79662713Y-79169232D01*
G37*
G36*
X80662713Y-79169232D02*
G01*
X80677274Y-79171392D01*
X80691553Y-79174969D01*
X80705413Y-79179928D01*
X80718720Y-79186222D01*
X80731346Y-79193790D01*
X80743169Y-79202558D01*
X80754076Y-79212444D01*
X80763962Y-79223351D01*
X80772730Y-79235174D01*
X80780298Y-79247800D01*
X80786592Y-79261107D01*
X80791551Y-79274967D01*
X80795128Y-79289246D01*
X80797288Y-79303807D01*
X80798010Y-79318510D01*
X80798010Y-80568510D01*
X80797288Y-80583213D01*
X80795128Y-80597774D01*
X80791551Y-80612053D01*
X80786592Y-80625913D01*
X80780298Y-80639220D01*
X80772730Y-80651846D01*
X80763962Y-80663669D01*
X80754076Y-80674576D01*
X80743169Y-80684462D01*
X80731346Y-80693230D01*
X80718720Y-80700798D01*
X80705413Y-80707092D01*
X80691553Y-80712051D01*
X80677274Y-80715628D01*
X80662713Y-80717788D01*
X80648010Y-80718510D01*
X80348010Y-80718510D01*
X80333307Y-80717788D01*
X80318746Y-80715628D01*
X80304467Y-80712051D01*
X80290607Y-80707092D01*
X80277300Y-80700798D01*
X80264674Y-80693230D01*
X80252851Y-80684462D01*
X80241944Y-80674576D01*
X80232058Y-80663669D01*
X80223290Y-80651846D01*
X80215722Y-80639220D01*
X80209428Y-80625913D01*
X80204469Y-80612053D01*
X80200892Y-80597774D01*
X80198732Y-80583213D01*
X80198010Y-80568510D01*
X80198010Y-79318510D01*
X80198732Y-79303807D01*
X80200892Y-79289246D01*
X80204469Y-79274967D01*
X80209428Y-79261107D01*
X80215722Y-79247800D01*
X80223290Y-79235174D01*
X80232058Y-79223351D01*
X80241944Y-79212444D01*
X80252851Y-79202558D01*
X80264674Y-79193790D01*
X80277300Y-79186222D01*
X80290607Y-79179928D01*
X80304467Y-79174969D01*
X80318746Y-79171392D01*
X80333307Y-79169232D01*
X80348010Y-79168510D01*
X80648010Y-79168510D01*
X80662713Y-79169232D01*
G37*
G36*
X76572875Y-82919712D02*
G01*
X76597105Y-82923306D01*
X76620865Y-82929258D01*
X76643928Y-82937510D01*
X76666071Y-82947982D01*
X76687080Y-82960575D01*
X76706755Y-82975167D01*
X76724904Y-82991616D01*
X76741353Y-83009765D01*
X76755945Y-83029440D01*
X76768538Y-83050449D01*
X76779010Y-83072592D01*
X76787262Y-83095655D01*
X76793214Y-83119415D01*
X76796808Y-83143645D01*
X76798010Y-83168110D01*
X76798010Y-84468910D01*
X76796808Y-84493375D01*
X76793214Y-84517605D01*
X76787262Y-84541365D01*
X76779010Y-84564428D01*
X76768538Y-84586571D01*
X76755945Y-84607580D01*
X76741353Y-84627255D01*
X76724904Y-84645404D01*
X76706755Y-84661853D01*
X76687080Y-84676445D01*
X76666071Y-84689038D01*
X76643928Y-84699510D01*
X76620865Y-84707762D01*
X76597105Y-84713714D01*
X76572875Y-84717308D01*
X76548410Y-84718510D01*
X75847610Y-84718510D01*
X75823145Y-84717308D01*
X75798915Y-84713714D01*
X75775155Y-84707762D01*
X75752092Y-84699510D01*
X75729949Y-84689038D01*
X75708940Y-84676445D01*
X75689265Y-84661853D01*
X75671116Y-84645404D01*
X75654667Y-84627255D01*
X75640075Y-84607580D01*
X75627482Y-84586571D01*
X75617010Y-84564428D01*
X75608758Y-84541365D01*
X75602806Y-84517605D01*
X75599212Y-84493375D01*
X75598010Y-84468910D01*
X75598010Y-83168110D01*
X75599212Y-83143645D01*
X75602806Y-83119415D01*
X75608758Y-83095655D01*
X75617010Y-83072592D01*
X75627482Y-83050449D01*
X75640075Y-83029440D01*
X75654667Y-83009765D01*
X75671116Y-82991616D01*
X75689265Y-82975167D01*
X75708940Y-82960575D01*
X75729949Y-82947982D01*
X75752092Y-82937510D01*
X75775155Y-82929258D01*
X75798915Y-82923306D01*
X75823145Y-82919712D01*
X75847610Y-82918510D01*
X76548410Y-82918510D01*
X76572875Y-82919712D01*
G37*
G36*
X82172875Y-82919712D02*
G01*
X82197105Y-82923306D01*
X82220865Y-82929258D01*
X82243928Y-82937510D01*
X82266071Y-82947982D01*
X82287080Y-82960575D01*
X82306755Y-82975167D01*
X82324904Y-82991616D01*
X82341353Y-83009765D01*
X82355945Y-83029440D01*
X82368538Y-83050449D01*
X82379010Y-83072592D01*
X82387262Y-83095655D01*
X82393214Y-83119415D01*
X82396808Y-83143645D01*
X82398010Y-83168110D01*
X82398010Y-84468910D01*
X82396808Y-84493375D01*
X82393214Y-84517605D01*
X82387262Y-84541365D01*
X82379010Y-84564428D01*
X82368538Y-84586571D01*
X82355945Y-84607580D01*
X82341353Y-84627255D01*
X82324904Y-84645404D01*
X82306755Y-84661853D01*
X82287080Y-84676445D01*
X82266071Y-84689038D01*
X82243928Y-84699510D01*
X82220865Y-84707762D01*
X82197105Y-84713714D01*
X82172875Y-84717308D01*
X82148410Y-84718510D01*
X81447610Y-84718510D01*
X81423145Y-84717308D01*
X81398915Y-84713714D01*
X81375155Y-84707762D01*
X81352092Y-84699510D01*
X81329949Y-84689038D01*
X81308940Y-84676445D01*
X81289265Y-84661853D01*
X81271116Y-84645404D01*
X81254667Y-84627255D01*
X81240075Y-84607580D01*
X81227482Y-84586571D01*
X81217010Y-84564428D01*
X81208758Y-84541365D01*
X81202806Y-84517605D01*
X81199212Y-84493375D01*
X81198010Y-84468910D01*
X81198010Y-83168110D01*
X81199212Y-83143645D01*
X81202806Y-83119415D01*
X81208758Y-83095655D01*
X81217010Y-83072592D01*
X81227482Y-83050449D01*
X81240075Y-83029440D01*
X81254667Y-83009765D01*
X81271116Y-82991616D01*
X81289265Y-82975167D01*
X81308940Y-82960575D01*
X81329949Y-82947982D01*
X81352092Y-82937510D01*
X81375155Y-82929258D01*
X81398915Y-82923306D01*
X81423145Y-82919712D01*
X81447610Y-82918510D01*
X82148410Y-82918510D01*
X82172875Y-82919712D01*
G37*
G36*
X78420375Y-82919712D02*
G01*
X78444605Y-82923306D01*
X78468365Y-82929258D01*
X78491428Y-82937510D01*
X78513571Y-82947982D01*
X78534580Y-82960575D01*
X78554255Y-82975167D01*
X78572404Y-82991616D01*
X78588853Y-83009765D01*
X78603445Y-83029440D01*
X78616038Y-83050449D01*
X78626510Y-83072592D01*
X78634762Y-83095655D01*
X78640714Y-83119415D01*
X78644308Y-83143645D01*
X78645510Y-83168110D01*
X78645510Y-84468910D01*
X78644308Y-84493375D01*
X78640714Y-84517605D01*
X78634762Y-84541365D01*
X78626510Y-84564428D01*
X78616038Y-84586571D01*
X78603445Y-84607580D01*
X78588853Y-84627255D01*
X78572404Y-84645404D01*
X78554255Y-84661853D01*
X78534580Y-84676445D01*
X78513571Y-84689038D01*
X78491428Y-84699510D01*
X78468365Y-84707762D01*
X78444605Y-84713714D01*
X78420375Y-84717308D01*
X78395910Y-84718510D01*
X77695110Y-84718510D01*
X77670645Y-84717308D01*
X77646415Y-84713714D01*
X77622655Y-84707762D01*
X77599592Y-84699510D01*
X77577449Y-84689038D01*
X77556440Y-84676445D01*
X77536765Y-84661853D01*
X77518616Y-84645404D01*
X77502167Y-84627255D01*
X77487575Y-84607580D01*
X77474982Y-84586571D01*
X77464510Y-84564428D01*
X77456258Y-84541365D01*
X77450306Y-84517605D01*
X77446712Y-84493375D01*
X77445510Y-84468910D01*
X77445510Y-83168110D01*
X77446712Y-83143645D01*
X77450306Y-83119415D01*
X77456258Y-83095655D01*
X77464510Y-83072592D01*
X77474982Y-83050449D01*
X77487575Y-83029440D01*
X77502167Y-83009765D01*
X77518616Y-82991616D01*
X77536765Y-82975167D01*
X77556440Y-82960575D01*
X77577449Y-82947982D01*
X77599592Y-82937510D01*
X77622655Y-82929258D01*
X77646415Y-82923306D01*
X77670645Y-82919712D01*
X77695110Y-82918510D01*
X78395910Y-82918510D01*
X78420375Y-82919712D01*
G37*
G36*
X80325375Y-82919712D02*
G01*
X80349605Y-82923306D01*
X80373365Y-82929258D01*
X80396428Y-82937510D01*
X80418571Y-82947982D01*
X80439580Y-82960575D01*
X80459255Y-82975167D01*
X80477404Y-82991616D01*
X80493853Y-83009765D01*
X80508445Y-83029440D01*
X80521038Y-83050449D01*
X80531510Y-83072592D01*
X80539762Y-83095655D01*
X80545714Y-83119415D01*
X80549308Y-83143645D01*
X80550510Y-83168110D01*
X80550510Y-84468910D01*
X80549308Y-84493375D01*
X80545714Y-84517605D01*
X80539762Y-84541365D01*
X80531510Y-84564428D01*
X80521038Y-84586571D01*
X80508445Y-84607580D01*
X80493853Y-84627255D01*
X80477404Y-84645404D01*
X80459255Y-84661853D01*
X80439580Y-84676445D01*
X80418571Y-84689038D01*
X80396428Y-84699510D01*
X80373365Y-84707762D01*
X80349605Y-84713714D01*
X80325375Y-84717308D01*
X80300910Y-84718510D01*
X79600110Y-84718510D01*
X79575645Y-84717308D01*
X79551415Y-84713714D01*
X79527655Y-84707762D01*
X79504592Y-84699510D01*
X79482449Y-84689038D01*
X79461440Y-84676445D01*
X79441765Y-84661853D01*
X79423616Y-84645404D01*
X79407167Y-84627255D01*
X79392575Y-84607580D01*
X79379982Y-84586571D01*
X79369510Y-84564428D01*
X79361258Y-84541365D01*
X79355306Y-84517605D01*
X79351712Y-84493375D01*
X79350510Y-84468910D01*
X79350510Y-83168110D01*
X79351712Y-83143645D01*
X79355306Y-83119415D01*
X79361258Y-83095655D01*
X79369510Y-83072592D01*
X79379982Y-83050449D01*
X79392575Y-83029440D01*
X79407167Y-83009765D01*
X79423616Y-82991616D01*
X79441765Y-82975167D01*
X79461440Y-82960575D01*
X79482449Y-82947982D01*
X79504592Y-82937510D01*
X79527655Y-82929258D01*
X79551415Y-82923306D01*
X79575645Y-82919712D01*
X79600110Y-82918510D01*
X80300910Y-82918510D01*
X80325375Y-82919712D01*
G37*
G04 #@! TD*
G04 #@! TO.C,L1*
G36*
X86834515Y-76962214D02*
G01*
X86858783Y-76965814D01*
X86882582Y-76971775D01*
X86905681Y-76980040D01*
X86927860Y-76990530D01*
X86948903Y-77003142D01*
X86968609Y-77017757D01*
X86986787Y-77034233D01*
X87003263Y-77052411D01*
X87017878Y-77072117D01*
X87030490Y-77093160D01*
X87040980Y-77115339D01*
X87049245Y-77138438D01*
X87055206Y-77162237D01*
X87058806Y-77186505D01*
X87060010Y-77211009D01*
X87060010Y-77761011D01*
X87058806Y-77785515D01*
X87055206Y-77809783D01*
X87049245Y-77833582D01*
X87040980Y-77856681D01*
X87030490Y-77878860D01*
X87017878Y-77899903D01*
X87003263Y-77919609D01*
X86986787Y-77937787D01*
X86968609Y-77954263D01*
X86948903Y-77968878D01*
X86927860Y-77981490D01*
X86905681Y-77991980D01*
X86882582Y-78000245D01*
X86858783Y-78006206D01*
X86834515Y-78009806D01*
X86810011Y-78011010D01*
X85410009Y-78011010D01*
X85385505Y-78009806D01*
X85361237Y-78006206D01*
X85337438Y-78000245D01*
X85314339Y-77991980D01*
X85292160Y-77981490D01*
X85271117Y-77968878D01*
X85251411Y-77954263D01*
X85233233Y-77937787D01*
X85216757Y-77919609D01*
X85202142Y-77899903D01*
X85189530Y-77878860D01*
X85179040Y-77856681D01*
X85170775Y-77833582D01*
X85164814Y-77809783D01*
X85161214Y-77785515D01*
X85160010Y-77761011D01*
X85160010Y-77211009D01*
X85161214Y-77186505D01*
X85164814Y-77162237D01*
X85170775Y-77138438D01*
X85179040Y-77115339D01*
X85189530Y-77093160D01*
X85202142Y-77072117D01*
X85216757Y-77052411D01*
X85233233Y-77034233D01*
X85251411Y-77017757D01*
X85271117Y-77003142D01*
X85292160Y-76990530D01*
X85314339Y-76980040D01*
X85337438Y-76971775D01*
X85361237Y-76965814D01*
X85385505Y-76962214D01*
X85410009Y-76961010D01*
X86810011Y-76961010D01*
X86834515Y-76962214D01*
G37*
G36*
X86834515Y-73812214D02*
G01*
X86858783Y-73815814D01*
X86882582Y-73821775D01*
X86905681Y-73830040D01*
X86927860Y-73840530D01*
X86948903Y-73853142D01*
X86968609Y-73867757D01*
X86986787Y-73884233D01*
X87003263Y-73902411D01*
X87017878Y-73922117D01*
X87030490Y-73943160D01*
X87040980Y-73965339D01*
X87049245Y-73988438D01*
X87055206Y-74012237D01*
X87058806Y-74036505D01*
X87060010Y-74061009D01*
X87060010Y-74611011D01*
X87058806Y-74635515D01*
X87055206Y-74659783D01*
X87049245Y-74683582D01*
X87040980Y-74706681D01*
X87030490Y-74728860D01*
X87017878Y-74749903D01*
X87003263Y-74769609D01*
X86986787Y-74787787D01*
X86968609Y-74804263D01*
X86948903Y-74818878D01*
X86927860Y-74831490D01*
X86905681Y-74841980D01*
X86882582Y-74850245D01*
X86858783Y-74856206D01*
X86834515Y-74859806D01*
X86810011Y-74861010D01*
X85410009Y-74861010D01*
X85385505Y-74859806D01*
X85361237Y-74856206D01*
X85337438Y-74850245D01*
X85314339Y-74841980D01*
X85292160Y-74831490D01*
X85271117Y-74818878D01*
X85251411Y-74804263D01*
X85233233Y-74787787D01*
X85216757Y-74769609D01*
X85202142Y-74749903D01*
X85189530Y-74728860D01*
X85179040Y-74706681D01*
X85170775Y-74683582D01*
X85164814Y-74659783D01*
X85161214Y-74635515D01*
X85160010Y-74611011D01*
X85160010Y-74061009D01*
X85161214Y-74036505D01*
X85164814Y-74012237D01*
X85170775Y-73988438D01*
X85179040Y-73965339D01*
X85189530Y-73943160D01*
X85202142Y-73922117D01*
X85216757Y-73902411D01*
X85233233Y-73884233D01*
X85251411Y-73867757D01*
X85271117Y-73853142D01*
X85292160Y-73840530D01*
X85314339Y-73830040D01*
X85337438Y-73821775D01*
X85361237Y-73815814D01*
X85385505Y-73812214D01*
X85410009Y-73811010D01*
X86810011Y-73811010D01*
X86834515Y-73812214D01*
G37*
G04 #@! TD*
G04 #@! TO.C,R1*
G36*
X74530113Y-79829473D02*
G01*
X74549528Y-79832353D01*
X74568567Y-79837122D01*
X74587047Y-79843734D01*
X74604789Y-79852126D01*
X74621624Y-79862216D01*
X74637389Y-79873908D01*
X74651931Y-79887089D01*
X74665112Y-79901631D01*
X74676804Y-79917396D01*
X74686894Y-79934231D01*
X74695286Y-79951973D01*
X74701898Y-79970453D01*
X74706667Y-79989492D01*
X74709547Y-80008907D01*
X74710510Y-80028510D01*
X74710510Y-80428510D01*
X74709547Y-80448113D01*
X74706667Y-80467528D01*
X74701898Y-80486567D01*
X74695286Y-80505047D01*
X74686894Y-80522789D01*
X74676804Y-80539624D01*
X74665112Y-80555389D01*
X74651931Y-80569931D01*
X74637389Y-80583112D01*
X74621624Y-80594804D01*
X74604789Y-80604894D01*
X74587047Y-80613286D01*
X74568567Y-80619898D01*
X74549528Y-80624667D01*
X74530113Y-80627547D01*
X74510510Y-80628510D01*
X73960510Y-80628510D01*
X73940907Y-80627547D01*
X73921492Y-80624667D01*
X73902453Y-80619898D01*
X73883973Y-80613286D01*
X73866231Y-80604894D01*
X73849396Y-80594804D01*
X73833631Y-80583112D01*
X73819089Y-80569931D01*
X73805908Y-80555389D01*
X73794216Y-80539624D01*
X73784126Y-80522789D01*
X73775734Y-80505047D01*
X73769122Y-80486567D01*
X73764353Y-80467528D01*
X73761473Y-80448113D01*
X73760510Y-80428510D01*
X73760510Y-80028510D01*
X73761473Y-80008907D01*
X73764353Y-79989492D01*
X73769122Y-79970453D01*
X73775734Y-79951973D01*
X73784126Y-79934231D01*
X73794216Y-79917396D01*
X73805908Y-79901631D01*
X73819089Y-79887089D01*
X73833631Y-79873908D01*
X73849396Y-79862216D01*
X73866231Y-79852126D01*
X73883973Y-79843734D01*
X73902453Y-79837122D01*
X73921492Y-79832353D01*
X73940907Y-79829473D01*
X73960510Y-79828510D01*
X74510510Y-79828510D01*
X74530113Y-79829473D01*
G37*
G36*
X74530113Y-78179473D02*
G01*
X74549528Y-78182353D01*
X74568567Y-78187122D01*
X74587047Y-78193734D01*
X74604789Y-78202126D01*
X74621624Y-78212216D01*
X74637389Y-78223908D01*
X74651931Y-78237089D01*
X74665112Y-78251631D01*
X74676804Y-78267396D01*
X74686894Y-78284231D01*
X74695286Y-78301973D01*
X74701898Y-78320453D01*
X74706667Y-78339492D01*
X74709547Y-78358907D01*
X74710510Y-78378510D01*
X74710510Y-78778510D01*
X74709547Y-78798113D01*
X74706667Y-78817528D01*
X74701898Y-78836567D01*
X74695286Y-78855047D01*
X74686894Y-78872789D01*
X74676804Y-78889624D01*
X74665112Y-78905389D01*
X74651931Y-78919931D01*
X74637389Y-78933112D01*
X74621624Y-78944804D01*
X74604789Y-78954894D01*
X74587047Y-78963286D01*
X74568567Y-78969898D01*
X74549528Y-78974667D01*
X74530113Y-78977547D01*
X74510510Y-78978510D01*
X73960510Y-78978510D01*
X73940907Y-78977547D01*
X73921492Y-78974667D01*
X73902453Y-78969898D01*
X73883973Y-78963286D01*
X73866231Y-78954894D01*
X73849396Y-78944804D01*
X73833631Y-78933112D01*
X73819089Y-78919931D01*
X73805908Y-78905389D01*
X73794216Y-78889624D01*
X73784126Y-78872789D01*
X73775734Y-78855047D01*
X73769122Y-78836567D01*
X73764353Y-78817528D01*
X73761473Y-78798113D01*
X73760510Y-78778510D01*
X73760510Y-78378510D01*
X73761473Y-78358907D01*
X73764353Y-78339492D01*
X73769122Y-78320453D01*
X73775734Y-78301973D01*
X73784126Y-78284231D01*
X73794216Y-78267396D01*
X73805908Y-78251631D01*
X73819089Y-78237089D01*
X73833631Y-78223908D01*
X73849396Y-78212216D01*
X73866231Y-78202126D01*
X73883973Y-78193734D01*
X73902453Y-78187122D01*
X73921492Y-78182353D01*
X73940907Y-78179473D01*
X73960510Y-78178510D01*
X74510510Y-78178510D01*
X74530113Y-78179473D01*
G37*
G04 #@! TD*
G04 #@! TO.C,R2*
G36*
X84055113Y-79829473D02*
G01*
X84074528Y-79832353D01*
X84093567Y-79837122D01*
X84112047Y-79843734D01*
X84129789Y-79852126D01*
X84146624Y-79862216D01*
X84162389Y-79873908D01*
X84176931Y-79887089D01*
X84190112Y-79901631D01*
X84201804Y-79917396D01*
X84211894Y-79934231D01*
X84220286Y-79951973D01*
X84226898Y-79970453D01*
X84231667Y-79989492D01*
X84234547Y-80008907D01*
X84235510Y-80028510D01*
X84235510Y-80428510D01*
X84234547Y-80448113D01*
X84231667Y-80467528D01*
X84226898Y-80486567D01*
X84220286Y-80505047D01*
X84211894Y-80522789D01*
X84201804Y-80539624D01*
X84190112Y-80555389D01*
X84176931Y-80569931D01*
X84162389Y-80583112D01*
X84146624Y-80594804D01*
X84129789Y-80604894D01*
X84112047Y-80613286D01*
X84093567Y-80619898D01*
X84074528Y-80624667D01*
X84055113Y-80627547D01*
X84035510Y-80628510D01*
X83485510Y-80628510D01*
X83465907Y-80627547D01*
X83446492Y-80624667D01*
X83427453Y-80619898D01*
X83408973Y-80613286D01*
X83391231Y-80604894D01*
X83374396Y-80594804D01*
X83358631Y-80583112D01*
X83344089Y-80569931D01*
X83330908Y-80555389D01*
X83319216Y-80539624D01*
X83309126Y-80522789D01*
X83300734Y-80505047D01*
X83294122Y-80486567D01*
X83289353Y-80467528D01*
X83286473Y-80448113D01*
X83285510Y-80428510D01*
X83285510Y-80028510D01*
X83286473Y-80008907D01*
X83289353Y-79989492D01*
X83294122Y-79970453D01*
X83300734Y-79951973D01*
X83309126Y-79934231D01*
X83319216Y-79917396D01*
X83330908Y-79901631D01*
X83344089Y-79887089D01*
X83358631Y-79873908D01*
X83374396Y-79862216D01*
X83391231Y-79852126D01*
X83408973Y-79843734D01*
X83427453Y-79837122D01*
X83446492Y-79832353D01*
X83465907Y-79829473D01*
X83485510Y-79828510D01*
X84035510Y-79828510D01*
X84055113Y-79829473D01*
G37*
G36*
X84055113Y-78179473D02*
G01*
X84074528Y-78182353D01*
X84093567Y-78187122D01*
X84112047Y-78193734D01*
X84129789Y-78202126D01*
X84146624Y-78212216D01*
X84162389Y-78223908D01*
X84176931Y-78237089D01*
X84190112Y-78251631D01*
X84201804Y-78267396D01*
X84211894Y-78284231D01*
X84220286Y-78301973D01*
X84226898Y-78320453D01*
X84231667Y-78339492D01*
X84234547Y-78358907D01*
X84235510Y-78378510D01*
X84235510Y-78778510D01*
X84234547Y-78798113D01*
X84231667Y-78817528D01*
X84226898Y-78836567D01*
X84220286Y-78855047D01*
X84211894Y-78872789D01*
X84201804Y-78889624D01*
X84190112Y-78905389D01*
X84176931Y-78919931D01*
X84162389Y-78933112D01*
X84146624Y-78944804D01*
X84129789Y-78954894D01*
X84112047Y-78963286D01*
X84093567Y-78969898D01*
X84074528Y-78974667D01*
X84055113Y-78977547D01*
X84035510Y-78978510D01*
X83485510Y-78978510D01*
X83465907Y-78977547D01*
X83446492Y-78974667D01*
X83427453Y-78969898D01*
X83408973Y-78963286D01*
X83391231Y-78954894D01*
X83374396Y-78944804D01*
X83358631Y-78933112D01*
X83344089Y-78919931D01*
X83330908Y-78905389D01*
X83319216Y-78889624D01*
X83309126Y-78872789D01*
X83300734Y-78855047D01*
X83294122Y-78836567D01*
X83289353Y-78817528D01*
X83286473Y-78798113D01*
X83285510Y-78778510D01*
X83285510Y-78378510D01*
X83286473Y-78358907D01*
X83289353Y-78339492D01*
X83294122Y-78320453D01*
X83300734Y-78301973D01*
X83309126Y-78284231D01*
X83319216Y-78267396D01*
X83330908Y-78251631D01*
X83344089Y-78237089D01*
X83358631Y-78223908D01*
X83374396Y-78212216D01*
X83391231Y-78202126D01*
X83408973Y-78193734D01*
X83427453Y-78187122D01*
X83446492Y-78182353D01*
X83465907Y-78179473D01*
X83485510Y-78178510D01*
X84035510Y-78178510D01*
X84055113Y-78179473D01*
G37*
G04 #@! TD*
D12*
G04 #@! TO.C,J1*
X79248010Y-76209510D03*
X77248010Y-76209510D03*
X77748010Y-76209510D03*
X78248010Y-76209510D03*
X78748010Y-76209510D03*
X79748010Y-76209510D03*
X80248010Y-76209510D03*
X80748010Y-76209510D03*
D13*
X75748010Y-76209510D03*
X76548010Y-76209510D03*
X81448010Y-76209510D03*
X82248010Y-76209510D03*
X82248010Y-76209510D03*
X81448010Y-76209510D03*
X76548010Y-76209510D03*
X75748010Y-76209510D03*
G04 #@! TD*
D14*
G04 #@! TO.C,D1*
X72076510Y-76897510D03*
X72076510Y-74797510D03*
G04 #@! TD*
D11*
G04 #@! TO.C,J2*
G36*
X57662704Y-79169232D02*
G01*
X57677265Y-79171392D01*
X57691544Y-79174969D01*
X57705404Y-79179928D01*
X57718711Y-79186222D01*
X57731337Y-79193790D01*
X57743160Y-79202558D01*
X57754067Y-79212444D01*
X57763953Y-79223351D01*
X57772721Y-79235174D01*
X57780289Y-79247800D01*
X57786583Y-79261107D01*
X57791542Y-79274967D01*
X57795119Y-79289246D01*
X57797279Y-79303807D01*
X57798001Y-79318510D01*
X57798001Y-80568510D01*
X57797279Y-80583213D01*
X57795119Y-80597774D01*
X57791542Y-80612053D01*
X57786583Y-80625913D01*
X57780289Y-80639220D01*
X57772721Y-80651846D01*
X57763953Y-80663669D01*
X57754067Y-80674576D01*
X57743160Y-80684462D01*
X57731337Y-80693230D01*
X57718711Y-80700798D01*
X57705404Y-80707092D01*
X57691544Y-80712051D01*
X57677265Y-80715628D01*
X57662704Y-80717788D01*
X57648001Y-80718510D01*
X57348001Y-80718510D01*
X57333298Y-80717788D01*
X57318737Y-80715628D01*
X57304458Y-80712051D01*
X57290598Y-80707092D01*
X57277291Y-80700798D01*
X57264665Y-80693230D01*
X57252842Y-80684462D01*
X57241935Y-80674576D01*
X57232049Y-80663669D01*
X57223281Y-80651846D01*
X57215713Y-80639220D01*
X57209419Y-80625913D01*
X57204460Y-80612053D01*
X57200883Y-80597774D01*
X57198723Y-80583213D01*
X57198001Y-80568510D01*
X57198001Y-79318510D01*
X57198723Y-79303807D01*
X57200883Y-79289246D01*
X57204460Y-79274967D01*
X57209419Y-79261107D01*
X57215713Y-79247800D01*
X57223281Y-79235174D01*
X57232049Y-79223351D01*
X57241935Y-79212444D01*
X57252842Y-79202558D01*
X57264665Y-79193790D01*
X57277291Y-79186222D01*
X57290598Y-79179928D01*
X57304458Y-79174969D01*
X57318737Y-79171392D01*
X57333298Y-79169232D01*
X57348001Y-79168510D01*
X57648001Y-79168510D01*
X57662704Y-79169232D01*
G37*
G36*
X58662704Y-79169232D02*
G01*
X58677265Y-79171392D01*
X58691544Y-79174969D01*
X58705404Y-79179928D01*
X58718711Y-79186222D01*
X58731337Y-79193790D01*
X58743160Y-79202558D01*
X58754067Y-79212444D01*
X58763953Y-79223351D01*
X58772721Y-79235174D01*
X58780289Y-79247800D01*
X58786583Y-79261107D01*
X58791542Y-79274967D01*
X58795119Y-79289246D01*
X58797279Y-79303807D01*
X58798001Y-79318510D01*
X58798001Y-80568510D01*
X58797279Y-80583213D01*
X58795119Y-80597774D01*
X58791542Y-80612053D01*
X58786583Y-80625913D01*
X58780289Y-80639220D01*
X58772721Y-80651846D01*
X58763953Y-80663669D01*
X58754067Y-80674576D01*
X58743160Y-80684462D01*
X58731337Y-80693230D01*
X58718711Y-80700798D01*
X58705404Y-80707092D01*
X58691544Y-80712051D01*
X58677265Y-80715628D01*
X58662704Y-80717788D01*
X58648001Y-80718510D01*
X58348001Y-80718510D01*
X58333298Y-80717788D01*
X58318737Y-80715628D01*
X58304458Y-80712051D01*
X58290598Y-80707092D01*
X58277291Y-80700798D01*
X58264665Y-80693230D01*
X58252842Y-80684462D01*
X58241935Y-80674576D01*
X58232049Y-80663669D01*
X58223281Y-80651846D01*
X58215713Y-80639220D01*
X58209419Y-80625913D01*
X58204460Y-80612053D01*
X58200883Y-80597774D01*
X58198723Y-80583213D01*
X58198001Y-80568510D01*
X58198001Y-79318510D01*
X58198723Y-79303807D01*
X58200883Y-79289246D01*
X58204460Y-79274967D01*
X58209419Y-79261107D01*
X58215713Y-79247800D01*
X58223281Y-79235174D01*
X58232049Y-79223351D01*
X58241935Y-79212444D01*
X58252842Y-79202558D01*
X58264665Y-79193790D01*
X58277291Y-79186222D01*
X58290598Y-79179928D01*
X58304458Y-79174969D01*
X58318737Y-79171392D01*
X58333298Y-79169232D01*
X58348001Y-79168510D01*
X58648001Y-79168510D01*
X58662704Y-79169232D01*
G37*
G36*
X59662704Y-79169232D02*
G01*
X59677265Y-79171392D01*
X59691544Y-79174969D01*
X59705404Y-79179928D01*
X59718711Y-79186222D01*
X59731337Y-79193790D01*
X59743160Y-79202558D01*
X59754067Y-79212444D01*
X59763953Y-79223351D01*
X59772721Y-79235174D01*
X59780289Y-79247800D01*
X59786583Y-79261107D01*
X59791542Y-79274967D01*
X59795119Y-79289246D01*
X59797279Y-79303807D01*
X59798001Y-79318510D01*
X59798001Y-80568510D01*
X59797279Y-80583213D01*
X59795119Y-80597774D01*
X59791542Y-80612053D01*
X59786583Y-80625913D01*
X59780289Y-80639220D01*
X59772721Y-80651846D01*
X59763953Y-80663669D01*
X59754067Y-80674576D01*
X59743160Y-80684462D01*
X59731337Y-80693230D01*
X59718711Y-80700798D01*
X59705404Y-80707092D01*
X59691544Y-80712051D01*
X59677265Y-80715628D01*
X59662704Y-80717788D01*
X59648001Y-80718510D01*
X59348001Y-80718510D01*
X59333298Y-80717788D01*
X59318737Y-80715628D01*
X59304458Y-80712051D01*
X59290598Y-80707092D01*
X59277291Y-80700798D01*
X59264665Y-80693230D01*
X59252842Y-80684462D01*
X59241935Y-80674576D01*
X59232049Y-80663669D01*
X59223281Y-80651846D01*
X59215713Y-80639220D01*
X59209419Y-80625913D01*
X59204460Y-80612053D01*
X59200883Y-80597774D01*
X59198723Y-80583213D01*
X59198001Y-80568510D01*
X59198001Y-79318510D01*
X59198723Y-79303807D01*
X59200883Y-79289246D01*
X59204460Y-79274967D01*
X59209419Y-79261107D01*
X59215713Y-79247800D01*
X59223281Y-79235174D01*
X59232049Y-79223351D01*
X59241935Y-79212444D01*
X59252842Y-79202558D01*
X59264665Y-79193790D01*
X59277291Y-79186222D01*
X59290598Y-79179928D01*
X59304458Y-79174969D01*
X59318737Y-79171392D01*
X59333298Y-79169232D01*
X59348001Y-79168510D01*
X59648001Y-79168510D01*
X59662704Y-79169232D01*
G37*
G36*
X60662704Y-79169232D02*
G01*
X60677265Y-79171392D01*
X60691544Y-79174969D01*
X60705404Y-79179928D01*
X60718711Y-79186222D01*
X60731337Y-79193790D01*
X60743160Y-79202558D01*
X60754067Y-79212444D01*
X60763953Y-79223351D01*
X60772721Y-79235174D01*
X60780289Y-79247800D01*
X60786583Y-79261107D01*
X60791542Y-79274967D01*
X60795119Y-79289246D01*
X60797279Y-79303807D01*
X60798001Y-79318510D01*
X60798001Y-80568510D01*
X60797279Y-80583213D01*
X60795119Y-80597774D01*
X60791542Y-80612053D01*
X60786583Y-80625913D01*
X60780289Y-80639220D01*
X60772721Y-80651846D01*
X60763953Y-80663669D01*
X60754067Y-80674576D01*
X60743160Y-80684462D01*
X60731337Y-80693230D01*
X60718711Y-80700798D01*
X60705404Y-80707092D01*
X60691544Y-80712051D01*
X60677265Y-80715628D01*
X60662704Y-80717788D01*
X60648001Y-80718510D01*
X60348001Y-80718510D01*
X60333298Y-80717788D01*
X60318737Y-80715628D01*
X60304458Y-80712051D01*
X60290598Y-80707092D01*
X60277291Y-80700798D01*
X60264665Y-80693230D01*
X60252842Y-80684462D01*
X60241935Y-80674576D01*
X60232049Y-80663669D01*
X60223281Y-80651846D01*
X60215713Y-80639220D01*
X60209419Y-80625913D01*
X60204460Y-80612053D01*
X60200883Y-80597774D01*
X60198723Y-80583213D01*
X60198001Y-80568510D01*
X60198001Y-79318510D01*
X60198723Y-79303807D01*
X60200883Y-79289246D01*
X60204460Y-79274967D01*
X60209419Y-79261107D01*
X60215713Y-79247800D01*
X60223281Y-79235174D01*
X60232049Y-79223351D01*
X60241935Y-79212444D01*
X60252842Y-79202558D01*
X60264665Y-79193790D01*
X60277291Y-79186222D01*
X60290598Y-79179928D01*
X60304458Y-79174969D01*
X60318737Y-79171392D01*
X60333298Y-79169232D01*
X60348001Y-79168510D01*
X60648001Y-79168510D01*
X60662704Y-79169232D01*
G37*
G36*
X56572866Y-82919712D02*
G01*
X56597096Y-82923306D01*
X56620856Y-82929258D01*
X56643919Y-82937510D01*
X56666062Y-82947982D01*
X56687071Y-82960575D01*
X56706746Y-82975167D01*
X56724895Y-82991616D01*
X56741344Y-83009765D01*
X56755936Y-83029440D01*
X56768529Y-83050449D01*
X56779001Y-83072592D01*
X56787253Y-83095655D01*
X56793205Y-83119415D01*
X56796799Y-83143645D01*
X56798001Y-83168110D01*
X56798001Y-84468910D01*
X56796799Y-84493375D01*
X56793205Y-84517605D01*
X56787253Y-84541365D01*
X56779001Y-84564428D01*
X56768529Y-84586571D01*
X56755936Y-84607580D01*
X56741344Y-84627255D01*
X56724895Y-84645404D01*
X56706746Y-84661853D01*
X56687071Y-84676445D01*
X56666062Y-84689038D01*
X56643919Y-84699510D01*
X56620856Y-84707762D01*
X56597096Y-84713714D01*
X56572866Y-84717308D01*
X56548401Y-84718510D01*
X55847601Y-84718510D01*
X55823136Y-84717308D01*
X55798906Y-84713714D01*
X55775146Y-84707762D01*
X55752083Y-84699510D01*
X55729940Y-84689038D01*
X55708931Y-84676445D01*
X55689256Y-84661853D01*
X55671107Y-84645404D01*
X55654658Y-84627255D01*
X55640066Y-84607580D01*
X55627473Y-84586571D01*
X55617001Y-84564428D01*
X55608749Y-84541365D01*
X55602797Y-84517605D01*
X55599203Y-84493375D01*
X55598001Y-84468910D01*
X55598001Y-83168110D01*
X55599203Y-83143645D01*
X55602797Y-83119415D01*
X55608749Y-83095655D01*
X55617001Y-83072592D01*
X55627473Y-83050449D01*
X55640066Y-83029440D01*
X55654658Y-83009765D01*
X55671107Y-82991616D01*
X55689256Y-82975167D01*
X55708931Y-82960575D01*
X55729940Y-82947982D01*
X55752083Y-82937510D01*
X55775146Y-82929258D01*
X55798906Y-82923306D01*
X55823136Y-82919712D01*
X55847601Y-82918510D01*
X56548401Y-82918510D01*
X56572866Y-82919712D01*
G37*
G36*
X62172866Y-82919712D02*
G01*
X62197096Y-82923306D01*
X62220856Y-82929258D01*
X62243919Y-82937510D01*
X62266062Y-82947982D01*
X62287071Y-82960575D01*
X62306746Y-82975167D01*
X62324895Y-82991616D01*
X62341344Y-83009765D01*
X62355936Y-83029440D01*
X62368529Y-83050449D01*
X62379001Y-83072592D01*
X62387253Y-83095655D01*
X62393205Y-83119415D01*
X62396799Y-83143645D01*
X62398001Y-83168110D01*
X62398001Y-84468910D01*
X62396799Y-84493375D01*
X62393205Y-84517605D01*
X62387253Y-84541365D01*
X62379001Y-84564428D01*
X62368529Y-84586571D01*
X62355936Y-84607580D01*
X62341344Y-84627255D01*
X62324895Y-84645404D01*
X62306746Y-84661853D01*
X62287071Y-84676445D01*
X62266062Y-84689038D01*
X62243919Y-84699510D01*
X62220856Y-84707762D01*
X62197096Y-84713714D01*
X62172866Y-84717308D01*
X62148401Y-84718510D01*
X61447601Y-84718510D01*
X61423136Y-84717308D01*
X61398906Y-84713714D01*
X61375146Y-84707762D01*
X61352083Y-84699510D01*
X61329940Y-84689038D01*
X61308931Y-84676445D01*
X61289256Y-84661853D01*
X61271107Y-84645404D01*
X61254658Y-84627255D01*
X61240066Y-84607580D01*
X61227473Y-84586571D01*
X61217001Y-84564428D01*
X61208749Y-84541365D01*
X61202797Y-84517605D01*
X61199203Y-84493375D01*
X61198001Y-84468910D01*
X61198001Y-83168110D01*
X61199203Y-83143645D01*
X61202797Y-83119415D01*
X61208749Y-83095655D01*
X61217001Y-83072592D01*
X61227473Y-83050449D01*
X61240066Y-83029440D01*
X61254658Y-83009765D01*
X61271107Y-82991616D01*
X61289256Y-82975167D01*
X61308931Y-82960575D01*
X61329940Y-82947982D01*
X61352083Y-82937510D01*
X61375146Y-82929258D01*
X61398906Y-82923306D01*
X61423136Y-82919712D01*
X61447601Y-82918510D01*
X62148401Y-82918510D01*
X62172866Y-82919712D01*
G37*
G36*
X58420366Y-82919712D02*
G01*
X58444596Y-82923306D01*
X58468356Y-82929258D01*
X58491419Y-82937510D01*
X58513562Y-82947982D01*
X58534571Y-82960575D01*
X58554246Y-82975167D01*
X58572395Y-82991616D01*
X58588844Y-83009765D01*
X58603436Y-83029440D01*
X58616029Y-83050449D01*
X58626501Y-83072592D01*
X58634753Y-83095655D01*
X58640705Y-83119415D01*
X58644299Y-83143645D01*
X58645501Y-83168110D01*
X58645501Y-84468910D01*
X58644299Y-84493375D01*
X58640705Y-84517605D01*
X58634753Y-84541365D01*
X58626501Y-84564428D01*
X58616029Y-84586571D01*
X58603436Y-84607580D01*
X58588844Y-84627255D01*
X58572395Y-84645404D01*
X58554246Y-84661853D01*
X58534571Y-84676445D01*
X58513562Y-84689038D01*
X58491419Y-84699510D01*
X58468356Y-84707762D01*
X58444596Y-84713714D01*
X58420366Y-84717308D01*
X58395901Y-84718510D01*
X57695101Y-84718510D01*
X57670636Y-84717308D01*
X57646406Y-84713714D01*
X57622646Y-84707762D01*
X57599583Y-84699510D01*
X57577440Y-84689038D01*
X57556431Y-84676445D01*
X57536756Y-84661853D01*
X57518607Y-84645404D01*
X57502158Y-84627255D01*
X57487566Y-84607580D01*
X57474973Y-84586571D01*
X57464501Y-84564428D01*
X57456249Y-84541365D01*
X57450297Y-84517605D01*
X57446703Y-84493375D01*
X57445501Y-84468910D01*
X57445501Y-83168110D01*
X57446703Y-83143645D01*
X57450297Y-83119415D01*
X57456249Y-83095655D01*
X57464501Y-83072592D01*
X57474973Y-83050449D01*
X57487566Y-83029440D01*
X57502158Y-83009765D01*
X57518607Y-82991616D01*
X57536756Y-82975167D01*
X57556431Y-82960575D01*
X57577440Y-82947982D01*
X57599583Y-82937510D01*
X57622646Y-82929258D01*
X57646406Y-82923306D01*
X57670636Y-82919712D01*
X57695101Y-82918510D01*
X58395901Y-82918510D01*
X58420366Y-82919712D01*
G37*
G36*
X60325366Y-82919712D02*
G01*
X60349596Y-82923306D01*
X60373356Y-82929258D01*
X60396419Y-82937510D01*
X60418562Y-82947982D01*
X60439571Y-82960575D01*
X60459246Y-82975167D01*
X60477395Y-82991616D01*
X60493844Y-83009765D01*
X60508436Y-83029440D01*
X60521029Y-83050449D01*
X60531501Y-83072592D01*
X60539753Y-83095655D01*
X60545705Y-83119415D01*
X60549299Y-83143645D01*
X60550501Y-83168110D01*
X60550501Y-84468910D01*
X60549299Y-84493375D01*
X60545705Y-84517605D01*
X60539753Y-84541365D01*
X60531501Y-84564428D01*
X60521029Y-84586571D01*
X60508436Y-84607580D01*
X60493844Y-84627255D01*
X60477395Y-84645404D01*
X60459246Y-84661853D01*
X60439571Y-84676445D01*
X60418562Y-84689038D01*
X60396419Y-84699510D01*
X60373356Y-84707762D01*
X60349596Y-84713714D01*
X60325366Y-84717308D01*
X60300901Y-84718510D01*
X59600101Y-84718510D01*
X59575636Y-84717308D01*
X59551406Y-84713714D01*
X59527646Y-84707762D01*
X59504583Y-84699510D01*
X59482440Y-84689038D01*
X59461431Y-84676445D01*
X59441756Y-84661853D01*
X59423607Y-84645404D01*
X59407158Y-84627255D01*
X59392566Y-84607580D01*
X59379973Y-84586571D01*
X59369501Y-84564428D01*
X59361249Y-84541365D01*
X59355297Y-84517605D01*
X59351703Y-84493375D01*
X59350501Y-84468910D01*
X59350501Y-83168110D01*
X59351703Y-83143645D01*
X59355297Y-83119415D01*
X59361249Y-83095655D01*
X59369501Y-83072592D01*
X59379973Y-83050449D01*
X59392566Y-83029440D01*
X59407158Y-83009765D01*
X59423607Y-82991616D01*
X59441756Y-82975167D01*
X59461431Y-82960575D01*
X59482440Y-82947982D01*
X59504583Y-82937510D01*
X59527646Y-82929258D01*
X59551406Y-82923306D01*
X59575636Y-82919712D01*
X59600101Y-82918510D01*
X60300901Y-82918510D01*
X60325366Y-82919712D01*
G37*
G04 #@! TD*
G04 #@! TO.C,L1*
G36*
X66834506Y-76962214D02*
G01*
X66858774Y-76965814D01*
X66882573Y-76971775D01*
X66905672Y-76980040D01*
X66927851Y-76990530D01*
X66948894Y-77003142D01*
X66968600Y-77017757D01*
X66986778Y-77034233D01*
X67003254Y-77052411D01*
X67017869Y-77072117D01*
X67030481Y-77093160D01*
X67040971Y-77115339D01*
X67049236Y-77138438D01*
X67055197Y-77162237D01*
X67058797Y-77186505D01*
X67060001Y-77211009D01*
X67060001Y-77761011D01*
X67058797Y-77785515D01*
X67055197Y-77809783D01*
X67049236Y-77833582D01*
X67040971Y-77856681D01*
X67030481Y-77878860D01*
X67017869Y-77899903D01*
X67003254Y-77919609D01*
X66986778Y-77937787D01*
X66968600Y-77954263D01*
X66948894Y-77968878D01*
X66927851Y-77981490D01*
X66905672Y-77991980D01*
X66882573Y-78000245D01*
X66858774Y-78006206D01*
X66834506Y-78009806D01*
X66810002Y-78011010D01*
X65410000Y-78011010D01*
X65385496Y-78009806D01*
X65361228Y-78006206D01*
X65337429Y-78000245D01*
X65314330Y-77991980D01*
X65292151Y-77981490D01*
X65271108Y-77968878D01*
X65251402Y-77954263D01*
X65233224Y-77937787D01*
X65216748Y-77919609D01*
X65202133Y-77899903D01*
X65189521Y-77878860D01*
X65179031Y-77856681D01*
X65170766Y-77833582D01*
X65164805Y-77809783D01*
X65161205Y-77785515D01*
X65160001Y-77761011D01*
X65160001Y-77211009D01*
X65161205Y-77186505D01*
X65164805Y-77162237D01*
X65170766Y-77138438D01*
X65179031Y-77115339D01*
X65189521Y-77093160D01*
X65202133Y-77072117D01*
X65216748Y-77052411D01*
X65233224Y-77034233D01*
X65251402Y-77017757D01*
X65271108Y-77003142D01*
X65292151Y-76990530D01*
X65314330Y-76980040D01*
X65337429Y-76971775D01*
X65361228Y-76965814D01*
X65385496Y-76962214D01*
X65410000Y-76961010D01*
X66810002Y-76961010D01*
X66834506Y-76962214D01*
G37*
G36*
X66834506Y-73812214D02*
G01*
X66858774Y-73815814D01*
X66882573Y-73821775D01*
X66905672Y-73830040D01*
X66927851Y-73840530D01*
X66948894Y-73853142D01*
X66968600Y-73867757D01*
X66986778Y-73884233D01*
X67003254Y-73902411D01*
X67017869Y-73922117D01*
X67030481Y-73943160D01*
X67040971Y-73965339D01*
X67049236Y-73988438D01*
X67055197Y-74012237D01*
X67058797Y-74036505D01*
X67060001Y-74061009D01*
X67060001Y-74611011D01*
X67058797Y-74635515D01*
X67055197Y-74659783D01*
X67049236Y-74683582D01*
X67040971Y-74706681D01*
X67030481Y-74728860D01*
X67017869Y-74749903D01*
X67003254Y-74769609D01*
X66986778Y-74787787D01*
X66968600Y-74804263D01*
X66948894Y-74818878D01*
X66927851Y-74831490D01*
X66905672Y-74841980D01*
X66882573Y-74850245D01*
X66858774Y-74856206D01*
X66834506Y-74859806D01*
X66810002Y-74861010D01*
X65410000Y-74861010D01*
X65385496Y-74859806D01*
X65361228Y-74856206D01*
X65337429Y-74850245D01*
X65314330Y-74841980D01*
X65292151Y-74831490D01*
X65271108Y-74818878D01*
X65251402Y-74804263D01*
X65233224Y-74787787D01*
X65216748Y-74769609D01*
X65202133Y-74749903D01*
X65189521Y-74728860D01*
X65179031Y-74706681D01*
X65170766Y-74683582D01*
X65164805Y-74659783D01*
X65161205Y-74635515D01*
X65160001Y-74611011D01*
X65160001Y-74061009D01*
X65161205Y-74036505D01*
X65164805Y-74012237D01*
X65170766Y-73988438D01*
X65179031Y-73965339D01*
X65189521Y-73943160D01*
X65202133Y-73922117D01*
X65216748Y-73902411D01*
X65233224Y-73884233D01*
X65251402Y-73867757D01*
X65271108Y-73853142D01*
X65292151Y-73840530D01*
X65314330Y-73830040D01*
X65337429Y-73821775D01*
X65361228Y-73815814D01*
X65385496Y-73812214D01*
X65410000Y-73811010D01*
X66810002Y-73811010D01*
X66834506Y-73812214D01*
G37*
G04 #@! TD*
G04 #@! TO.C,R1*
G36*
X54530104Y-79829473D02*
G01*
X54549519Y-79832353D01*
X54568558Y-79837122D01*
X54587038Y-79843734D01*
X54604780Y-79852126D01*
X54621615Y-79862216D01*
X54637380Y-79873908D01*
X54651922Y-79887089D01*
X54665103Y-79901631D01*
X54676795Y-79917396D01*
X54686885Y-79934231D01*
X54695277Y-79951973D01*
X54701889Y-79970453D01*
X54706658Y-79989492D01*
X54709538Y-80008907D01*
X54710501Y-80028510D01*
X54710501Y-80428510D01*
X54709538Y-80448113D01*
X54706658Y-80467528D01*
X54701889Y-80486567D01*
X54695277Y-80505047D01*
X54686885Y-80522789D01*
X54676795Y-80539624D01*
X54665103Y-80555389D01*
X54651922Y-80569931D01*
X54637380Y-80583112D01*
X54621615Y-80594804D01*
X54604780Y-80604894D01*
X54587038Y-80613286D01*
X54568558Y-80619898D01*
X54549519Y-80624667D01*
X54530104Y-80627547D01*
X54510501Y-80628510D01*
X53960501Y-80628510D01*
X53940898Y-80627547D01*
X53921483Y-80624667D01*
X53902444Y-80619898D01*
X53883964Y-80613286D01*
X53866222Y-80604894D01*
X53849387Y-80594804D01*
X53833622Y-80583112D01*
X53819080Y-80569931D01*
X53805899Y-80555389D01*
X53794207Y-80539624D01*
X53784117Y-80522789D01*
X53775725Y-80505047D01*
X53769113Y-80486567D01*
X53764344Y-80467528D01*
X53761464Y-80448113D01*
X53760501Y-80428510D01*
X53760501Y-80028510D01*
X53761464Y-80008907D01*
X53764344Y-79989492D01*
X53769113Y-79970453D01*
X53775725Y-79951973D01*
X53784117Y-79934231D01*
X53794207Y-79917396D01*
X53805899Y-79901631D01*
X53819080Y-79887089D01*
X53833622Y-79873908D01*
X53849387Y-79862216D01*
X53866222Y-79852126D01*
X53883964Y-79843734D01*
X53902444Y-79837122D01*
X53921483Y-79832353D01*
X53940898Y-79829473D01*
X53960501Y-79828510D01*
X54510501Y-79828510D01*
X54530104Y-79829473D01*
G37*
G36*
X54530104Y-78179473D02*
G01*
X54549519Y-78182353D01*
X54568558Y-78187122D01*
X54587038Y-78193734D01*
X54604780Y-78202126D01*
X54621615Y-78212216D01*
X54637380Y-78223908D01*
X54651922Y-78237089D01*
X54665103Y-78251631D01*
X54676795Y-78267396D01*
X54686885Y-78284231D01*
X54695277Y-78301973D01*
X54701889Y-78320453D01*
X54706658Y-78339492D01*
X54709538Y-78358907D01*
X54710501Y-78378510D01*
X54710501Y-78778510D01*
X54709538Y-78798113D01*
X54706658Y-78817528D01*
X54701889Y-78836567D01*
X54695277Y-78855047D01*
X54686885Y-78872789D01*
X54676795Y-78889624D01*
X54665103Y-78905389D01*
X54651922Y-78919931D01*
X54637380Y-78933112D01*
X54621615Y-78944804D01*
X54604780Y-78954894D01*
X54587038Y-78963286D01*
X54568558Y-78969898D01*
X54549519Y-78974667D01*
X54530104Y-78977547D01*
X54510501Y-78978510D01*
X53960501Y-78978510D01*
X53940898Y-78977547D01*
X53921483Y-78974667D01*
X53902444Y-78969898D01*
X53883964Y-78963286D01*
X53866222Y-78954894D01*
X53849387Y-78944804D01*
X53833622Y-78933112D01*
X53819080Y-78919931D01*
X53805899Y-78905389D01*
X53794207Y-78889624D01*
X53784117Y-78872789D01*
X53775725Y-78855047D01*
X53769113Y-78836567D01*
X53764344Y-78817528D01*
X53761464Y-78798113D01*
X53760501Y-78778510D01*
X53760501Y-78378510D01*
X53761464Y-78358907D01*
X53764344Y-78339492D01*
X53769113Y-78320453D01*
X53775725Y-78301973D01*
X53784117Y-78284231D01*
X53794207Y-78267396D01*
X53805899Y-78251631D01*
X53819080Y-78237089D01*
X53833622Y-78223908D01*
X53849387Y-78212216D01*
X53866222Y-78202126D01*
X53883964Y-78193734D01*
X53902444Y-78187122D01*
X53921483Y-78182353D01*
X53940898Y-78179473D01*
X53960501Y-78178510D01*
X54510501Y-78178510D01*
X54530104Y-78179473D01*
G37*
G04 #@! TD*
G04 #@! TO.C,R2*
G36*
X64055104Y-79829473D02*
G01*
X64074519Y-79832353D01*
X64093558Y-79837122D01*
X64112038Y-79843734D01*
X64129780Y-79852126D01*
X64146615Y-79862216D01*
X64162380Y-79873908D01*
X64176922Y-79887089D01*
X64190103Y-79901631D01*
X64201795Y-79917396D01*
X64211885Y-79934231D01*
X64220277Y-79951973D01*
X64226889Y-79970453D01*
X64231658Y-79989492D01*
X64234538Y-80008907D01*
X64235501Y-80028510D01*
X64235501Y-80428510D01*
X64234538Y-80448113D01*
X64231658Y-80467528D01*
X64226889Y-80486567D01*
X64220277Y-80505047D01*
X64211885Y-80522789D01*
X64201795Y-80539624D01*
X64190103Y-80555389D01*
X64176922Y-80569931D01*
X64162380Y-80583112D01*
X64146615Y-80594804D01*
X64129780Y-80604894D01*
X64112038Y-80613286D01*
X64093558Y-80619898D01*
X64074519Y-80624667D01*
X64055104Y-80627547D01*
X64035501Y-80628510D01*
X63485501Y-80628510D01*
X63465898Y-80627547D01*
X63446483Y-80624667D01*
X63427444Y-80619898D01*
X63408964Y-80613286D01*
X63391222Y-80604894D01*
X63374387Y-80594804D01*
X63358622Y-80583112D01*
X63344080Y-80569931D01*
X63330899Y-80555389D01*
X63319207Y-80539624D01*
X63309117Y-80522789D01*
X63300725Y-80505047D01*
X63294113Y-80486567D01*
X63289344Y-80467528D01*
X63286464Y-80448113D01*
X63285501Y-80428510D01*
X63285501Y-80028510D01*
X63286464Y-80008907D01*
X63289344Y-79989492D01*
X63294113Y-79970453D01*
X63300725Y-79951973D01*
X63309117Y-79934231D01*
X63319207Y-79917396D01*
X63330899Y-79901631D01*
X63344080Y-79887089D01*
X63358622Y-79873908D01*
X63374387Y-79862216D01*
X63391222Y-79852126D01*
X63408964Y-79843734D01*
X63427444Y-79837122D01*
X63446483Y-79832353D01*
X63465898Y-79829473D01*
X63485501Y-79828510D01*
X64035501Y-79828510D01*
X64055104Y-79829473D01*
G37*
G36*
X64055104Y-78179473D02*
G01*
X64074519Y-78182353D01*
X64093558Y-78187122D01*
X64112038Y-78193734D01*
X64129780Y-78202126D01*
X64146615Y-78212216D01*
X64162380Y-78223908D01*
X64176922Y-78237089D01*
X64190103Y-78251631D01*
X64201795Y-78267396D01*
X64211885Y-78284231D01*
X64220277Y-78301973D01*
X64226889Y-78320453D01*
X64231658Y-78339492D01*
X64234538Y-78358907D01*
X64235501Y-78378510D01*
X64235501Y-78778510D01*
X64234538Y-78798113D01*
X64231658Y-78817528D01*
X64226889Y-78836567D01*
X64220277Y-78855047D01*
X64211885Y-78872789D01*
X64201795Y-78889624D01*
X64190103Y-78905389D01*
X64176922Y-78919931D01*
X64162380Y-78933112D01*
X64146615Y-78944804D01*
X64129780Y-78954894D01*
X64112038Y-78963286D01*
X64093558Y-78969898D01*
X64074519Y-78974667D01*
X64055104Y-78977547D01*
X64035501Y-78978510D01*
X63485501Y-78978510D01*
X63465898Y-78977547D01*
X63446483Y-78974667D01*
X63427444Y-78969898D01*
X63408964Y-78963286D01*
X63391222Y-78954894D01*
X63374387Y-78944804D01*
X63358622Y-78933112D01*
X63344080Y-78919931D01*
X63330899Y-78905389D01*
X63319207Y-78889624D01*
X63309117Y-78872789D01*
X63300725Y-78855047D01*
X63294113Y-78836567D01*
X63289344Y-78817528D01*
X63286464Y-78798113D01*
X63285501Y-78778510D01*
X63285501Y-78378510D01*
X63286464Y-78358907D01*
X63289344Y-78339492D01*
X63294113Y-78320453D01*
X63300725Y-78301973D01*
X63309117Y-78284231D01*
X63319207Y-78267396D01*
X63330899Y-78251631D01*
X63344080Y-78237089D01*
X63358622Y-78223908D01*
X63374387Y-78212216D01*
X63391222Y-78202126D01*
X63408964Y-78193734D01*
X63427444Y-78187122D01*
X63446483Y-78182353D01*
X63465898Y-78179473D01*
X63485501Y-78178510D01*
X64035501Y-78178510D01*
X64055104Y-78179473D01*
G37*
G04 #@! TD*
D12*
G04 #@! TO.C,J1*
X59248001Y-76209510D03*
X57248001Y-76209510D03*
X57748001Y-76209510D03*
X58248001Y-76209510D03*
X58748001Y-76209510D03*
X59748001Y-76209510D03*
X60248001Y-76209510D03*
X60748001Y-76209510D03*
D13*
X55748001Y-76209510D03*
X56548001Y-76209510D03*
X61448001Y-76209510D03*
X62248001Y-76209510D03*
X62248001Y-76209510D03*
X61448001Y-76209510D03*
X56548001Y-76209510D03*
X55748001Y-76209510D03*
G04 #@! TD*
D14*
G04 #@! TO.C,D1*
X52076501Y-76897510D03*
X52076501Y-74797510D03*
G04 #@! TD*
D11*
G04 #@! TO.C,J2*
G36*
X77662713Y-60669223D02*
G01*
X77677274Y-60671383D01*
X77691553Y-60674960D01*
X77705413Y-60679919D01*
X77718720Y-60686213D01*
X77731346Y-60693781D01*
X77743169Y-60702549D01*
X77754076Y-60712435D01*
X77763962Y-60723342D01*
X77772730Y-60735165D01*
X77780298Y-60747791D01*
X77786592Y-60761098D01*
X77791551Y-60774958D01*
X77795128Y-60789237D01*
X77797288Y-60803798D01*
X77798010Y-60818501D01*
X77798010Y-62068501D01*
X77797288Y-62083204D01*
X77795128Y-62097765D01*
X77791551Y-62112044D01*
X77786592Y-62125904D01*
X77780298Y-62139211D01*
X77772730Y-62151837D01*
X77763962Y-62163660D01*
X77754076Y-62174567D01*
X77743169Y-62184453D01*
X77731346Y-62193221D01*
X77718720Y-62200789D01*
X77705413Y-62207083D01*
X77691553Y-62212042D01*
X77677274Y-62215619D01*
X77662713Y-62217779D01*
X77648010Y-62218501D01*
X77348010Y-62218501D01*
X77333307Y-62217779D01*
X77318746Y-62215619D01*
X77304467Y-62212042D01*
X77290607Y-62207083D01*
X77277300Y-62200789D01*
X77264674Y-62193221D01*
X77252851Y-62184453D01*
X77241944Y-62174567D01*
X77232058Y-62163660D01*
X77223290Y-62151837D01*
X77215722Y-62139211D01*
X77209428Y-62125904D01*
X77204469Y-62112044D01*
X77200892Y-62097765D01*
X77198732Y-62083204D01*
X77198010Y-62068501D01*
X77198010Y-60818501D01*
X77198732Y-60803798D01*
X77200892Y-60789237D01*
X77204469Y-60774958D01*
X77209428Y-60761098D01*
X77215722Y-60747791D01*
X77223290Y-60735165D01*
X77232058Y-60723342D01*
X77241944Y-60712435D01*
X77252851Y-60702549D01*
X77264674Y-60693781D01*
X77277300Y-60686213D01*
X77290607Y-60679919D01*
X77304467Y-60674960D01*
X77318746Y-60671383D01*
X77333307Y-60669223D01*
X77348010Y-60668501D01*
X77648010Y-60668501D01*
X77662713Y-60669223D01*
G37*
G36*
X78662713Y-60669223D02*
G01*
X78677274Y-60671383D01*
X78691553Y-60674960D01*
X78705413Y-60679919D01*
X78718720Y-60686213D01*
X78731346Y-60693781D01*
X78743169Y-60702549D01*
X78754076Y-60712435D01*
X78763962Y-60723342D01*
X78772730Y-60735165D01*
X78780298Y-60747791D01*
X78786592Y-60761098D01*
X78791551Y-60774958D01*
X78795128Y-60789237D01*
X78797288Y-60803798D01*
X78798010Y-60818501D01*
X78798010Y-62068501D01*
X78797288Y-62083204D01*
X78795128Y-62097765D01*
X78791551Y-62112044D01*
X78786592Y-62125904D01*
X78780298Y-62139211D01*
X78772730Y-62151837D01*
X78763962Y-62163660D01*
X78754076Y-62174567D01*
X78743169Y-62184453D01*
X78731346Y-62193221D01*
X78718720Y-62200789D01*
X78705413Y-62207083D01*
X78691553Y-62212042D01*
X78677274Y-62215619D01*
X78662713Y-62217779D01*
X78648010Y-62218501D01*
X78348010Y-62218501D01*
X78333307Y-62217779D01*
X78318746Y-62215619D01*
X78304467Y-62212042D01*
X78290607Y-62207083D01*
X78277300Y-62200789D01*
X78264674Y-62193221D01*
X78252851Y-62184453D01*
X78241944Y-62174567D01*
X78232058Y-62163660D01*
X78223290Y-62151837D01*
X78215722Y-62139211D01*
X78209428Y-62125904D01*
X78204469Y-62112044D01*
X78200892Y-62097765D01*
X78198732Y-62083204D01*
X78198010Y-62068501D01*
X78198010Y-60818501D01*
X78198732Y-60803798D01*
X78200892Y-60789237D01*
X78204469Y-60774958D01*
X78209428Y-60761098D01*
X78215722Y-60747791D01*
X78223290Y-60735165D01*
X78232058Y-60723342D01*
X78241944Y-60712435D01*
X78252851Y-60702549D01*
X78264674Y-60693781D01*
X78277300Y-60686213D01*
X78290607Y-60679919D01*
X78304467Y-60674960D01*
X78318746Y-60671383D01*
X78333307Y-60669223D01*
X78348010Y-60668501D01*
X78648010Y-60668501D01*
X78662713Y-60669223D01*
G37*
G36*
X79662713Y-60669223D02*
G01*
X79677274Y-60671383D01*
X79691553Y-60674960D01*
X79705413Y-60679919D01*
X79718720Y-60686213D01*
X79731346Y-60693781D01*
X79743169Y-60702549D01*
X79754076Y-60712435D01*
X79763962Y-60723342D01*
X79772730Y-60735165D01*
X79780298Y-60747791D01*
X79786592Y-60761098D01*
X79791551Y-60774958D01*
X79795128Y-60789237D01*
X79797288Y-60803798D01*
X79798010Y-60818501D01*
X79798010Y-62068501D01*
X79797288Y-62083204D01*
X79795128Y-62097765D01*
X79791551Y-62112044D01*
X79786592Y-62125904D01*
X79780298Y-62139211D01*
X79772730Y-62151837D01*
X79763962Y-62163660D01*
X79754076Y-62174567D01*
X79743169Y-62184453D01*
X79731346Y-62193221D01*
X79718720Y-62200789D01*
X79705413Y-62207083D01*
X79691553Y-62212042D01*
X79677274Y-62215619D01*
X79662713Y-62217779D01*
X79648010Y-62218501D01*
X79348010Y-62218501D01*
X79333307Y-62217779D01*
X79318746Y-62215619D01*
X79304467Y-62212042D01*
X79290607Y-62207083D01*
X79277300Y-62200789D01*
X79264674Y-62193221D01*
X79252851Y-62184453D01*
X79241944Y-62174567D01*
X79232058Y-62163660D01*
X79223290Y-62151837D01*
X79215722Y-62139211D01*
X79209428Y-62125904D01*
X79204469Y-62112044D01*
X79200892Y-62097765D01*
X79198732Y-62083204D01*
X79198010Y-62068501D01*
X79198010Y-60818501D01*
X79198732Y-60803798D01*
X79200892Y-60789237D01*
X79204469Y-60774958D01*
X79209428Y-60761098D01*
X79215722Y-60747791D01*
X79223290Y-60735165D01*
X79232058Y-60723342D01*
X79241944Y-60712435D01*
X79252851Y-60702549D01*
X79264674Y-60693781D01*
X79277300Y-60686213D01*
X79290607Y-60679919D01*
X79304467Y-60674960D01*
X79318746Y-60671383D01*
X79333307Y-60669223D01*
X79348010Y-60668501D01*
X79648010Y-60668501D01*
X79662713Y-60669223D01*
G37*
G36*
X80662713Y-60669223D02*
G01*
X80677274Y-60671383D01*
X80691553Y-60674960D01*
X80705413Y-60679919D01*
X80718720Y-60686213D01*
X80731346Y-60693781D01*
X80743169Y-60702549D01*
X80754076Y-60712435D01*
X80763962Y-60723342D01*
X80772730Y-60735165D01*
X80780298Y-60747791D01*
X80786592Y-60761098D01*
X80791551Y-60774958D01*
X80795128Y-60789237D01*
X80797288Y-60803798D01*
X80798010Y-60818501D01*
X80798010Y-62068501D01*
X80797288Y-62083204D01*
X80795128Y-62097765D01*
X80791551Y-62112044D01*
X80786592Y-62125904D01*
X80780298Y-62139211D01*
X80772730Y-62151837D01*
X80763962Y-62163660D01*
X80754076Y-62174567D01*
X80743169Y-62184453D01*
X80731346Y-62193221D01*
X80718720Y-62200789D01*
X80705413Y-62207083D01*
X80691553Y-62212042D01*
X80677274Y-62215619D01*
X80662713Y-62217779D01*
X80648010Y-62218501D01*
X80348010Y-62218501D01*
X80333307Y-62217779D01*
X80318746Y-62215619D01*
X80304467Y-62212042D01*
X80290607Y-62207083D01*
X80277300Y-62200789D01*
X80264674Y-62193221D01*
X80252851Y-62184453D01*
X80241944Y-62174567D01*
X80232058Y-62163660D01*
X80223290Y-62151837D01*
X80215722Y-62139211D01*
X80209428Y-62125904D01*
X80204469Y-62112044D01*
X80200892Y-62097765D01*
X80198732Y-62083204D01*
X80198010Y-62068501D01*
X80198010Y-60818501D01*
X80198732Y-60803798D01*
X80200892Y-60789237D01*
X80204469Y-60774958D01*
X80209428Y-60761098D01*
X80215722Y-60747791D01*
X80223290Y-60735165D01*
X80232058Y-60723342D01*
X80241944Y-60712435D01*
X80252851Y-60702549D01*
X80264674Y-60693781D01*
X80277300Y-60686213D01*
X80290607Y-60679919D01*
X80304467Y-60674960D01*
X80318746Y-60671383D01*
X80333307Y-60669223D01*
X80348010Y-60668501D01*
X80648010Y-60668501D01*
X80662713Y-60669223D01*
G37*
G36*
X76572875Y-64419703D02*
G01*
X76597105Y-64423297D01*
X76620865Y-64429249D01*
X76643928Y-64437501D01*
X76666071Y-64447973D01*
X76687080Y-64460566D01*
X76706755Y-64475158D01*
X76724904Y-64491607D01*
X76741353Y-64509756D01*
X76755945Y-64529431D01*
X76768538Y-64550440D01*
X76779010Y-64572583D01*
X76787262Y-64595646D01*
X76793214Y-64619406D01*
X76796808Y-64643636D01*
X76798010Y-64668101D01*
X76798010Y-65968901D01*
X76796808Y-65993366D01*
X76793214Y-66017596D01*
X76787262Y-66041356D01*
X76779010Y-66064419D01*
X76768538Y-66086562D01*
X76755945Y-66107571D01*
X76741353Y-66127246D01*
X76724904Y-66145395D01*
X76706755Y-66161844D01*
X76687080Y-66176436D01*
X76666071Y-66189029D01*
X76643928Y-66199501D01*
X76620865Y-66207753D01*
X76597105Y-66213705D01*
X76572875Y-66217299D01*
X76548410Y-66218501D01*
X75847610Y-66218501D01*
X75823145Y-66217299D01*
X75798915Y-66213705D01*
X75775155Y-66207753D01*
X75752092Y-66199501D01*
X75729949Y-66189029D01*
X75708940Y-66176436D01*
X75689265Y-66161844D01*
X75671116Y-66145395D01*
X75654667Y-66127246D01*
X75640075Y-66107571D01*
X75627482Y-66086562D01*
X75617010Y-66064419D01*
X75608758Y-66041356D01*
X75602806Y-66017596D01*
X75599212Y-65993366D01*
X75598010Y-65968901D01*
X75598010Y-64668101D01*
X75599212Y-64643636D01*
X75602806Y-64619406D01*
X75608758Y-64595646D01*
X75617010Y-64572583D01*
X75627482Y-64550440D01*
X75640075Y-64529431D01*
X75654667Y-64509756D01*
X75671116Y-64491607D01*
X75689265Y-64475158D01*
X75708940Y-64460566D01*
X75729949Y-64447973D01*
X75752092Y-64437501D01*
X75775155Y-64429249D01*
X75798915Y-64423297D01*
X75823145Y-64419703D01*
X75847610Y-64418501D01*
X76548410Y-64418501D01*
X76572875Y-64419703D01*
G37*
G36*
X82172875Y-64419703D02*
G01*
X82197105Y-64423297D01*
X82220865Y-64429249D01*
X82243928Y-64437501D01*
X82266071Y-64447973D01*
X82287080Y-64460566D01*
X82306755Y-64475158D01*
X82324904Y-64491607D01*
X82341353Y-64509756D01*
X82355945Y-64529431D01*
X82368538Y-64550440D01*
X82379010Y-64572583D01*
X82387262Y-64595646D01*
X82393214Y-64619406D01*
X82396808Y-64643636D01*
X82398010Y-64668101D01*
X82398010Y-65968901D01*
X82396808Y-65993366D01*
X82393214Y-66017596D01*
X82387262Y-66041356D01*
X82379010Y-66064419D01*
X82368538Y-66086562D01*
X82355945Y-66107571D01*
X82341353Y-66127246D01*
X82324904Y-66145395D01*
X82306755Y-66161844D01*
X82287080Y-66176436D01*
X82266071Y-66189029D01*
X82243928Y-66199501D01*
X82220865Y-66207753D01*
X82197105Y-66213705D01*
X82172875Y-66217299D01*
X82148410Y-66218501D01*
X81447610Y-66218501D01*
X81423145Y-66217299D01*
X81398915Y-66213705D01*
X81375155Y-66207753D01*
X81352092Y-66199501D01*
X81329949Y-66189029D01*
X81308940Y-66176436D01*
X81289265Y-66161844D01*
X81271116Y-66145395D01*
X81254667Y-66127246D01*
X81240075Y-66107571D01*
X81227482Y-66086562D01*
X81217010Y-66064419D01*
X81208758Y-66041356D01*
X81202806Y-66017596D01*
X81199212Y-65993366D01*
X81198010Y-65968901D01*
X81198010Y-64668101D01*
X81199212Y-64643636D01*
X81202806Y-64619406D01*
X81208758Y-64595646D01*
X81217010Y-64572583D01*
X81227482Y-64550440D01*
X81240075Y-64529431D01*
X81254667Y-64509756D01*
X81271116Y-64491607D01*
X81289265Y-64475158D01*
X81308940Y-64460566D01*
X81329949Y-64447973D01*
X81352092Y-64437501D01*
X81375155Y-64429249D01*
X81398915Y-64423297D01*
X81423145Y-64419703D01*
X81447610Y-64418501D01*
X82148410Y-64418501D01*
X82172875Y-64419703D01*
G37*
G36*
X78420375Y-64419703D02*
G01*
X78444605Y-64423297D01*
X78468365Y-64429249D01*
X78491428Y-64437501D01*
X78513571Y-64447973D01*
X78534580Y-64460566D01*
X78554255Y-64475158D01*
X78572404Y-64491607D01*
X78588853Y-64509756D01*
X78603445Y-64529431D01*
X78616038Y-64550440D01*
X78626510Y-64572583D01*
X78634762Y-64595646D01*
X78640714Y-64619406D01*
X78644308Y-64643636D01*
X78645510Y-64668101D01*
X78645510Y-65968901D01*
X78644308Y-65993366D01*
X78640714Y-66017596D01*
X78634762Y-66041356D01*
X78626510Y-66064419D01*
X78616038Y-66086562D01*
X78603445Y-66107571D01*
X78588853Y-66127246D01*
X78572404Y-66145395D01*
X78554255Y-66161844D01*
X78534580Y-66176436D01*
X78513571Y-66189029D01*
X78491428Y-66199501D01*
X78468365Y-66207753D01*
X78444605Y-66213705D01*
X78420375Y-66217299D01*
X78395910Y-66218501D01*
X77695110Y-66218501D01*
X77670645Y-66217299D01*
X77646415Y-66213705D01*
X77622655Y-66207753D01*
X77599592Y-66199501D01*
X77577449Y-66189029D01*
X77556440Y-66176436D01*
X77536765Y-66161844D01*
X77518616Y-66145395D01*
X77502167Y-66127246D01*
X77487575Y-66107571D01*
X77474982Y-66086562D01*
X77464510Y-66064419D01*
X77456258Y-66041356D01*
X77450306Y-66017596D01*
X77446712Y-65993366D01*
X77445510Y-65968901D01*
X77445510Y-64668101D01*
X77446712Y-64643636D01*
X77450306Y-64619406D01*
X77456258Y-64595646D01*
X77464510Y-64572583D01*
X77474982Y-64550440D01*
X77487575Y-64529431D01*
X77502167Y-64509756D01*
X77518616Y-64491607D01*
X77536765Y-64475158D01*
X77556440Y-64460566D01*
X77577449Y-64447973D01*
X77599592Y-64437501D01*
X77622655Y-64429249D01*
X77646415Y-64423297D01*
X77670645Y-64419703D01*
X77695110Y-64418501D01*
X78395910Y-64418501D01*
X78420375Y-64419703D01*
G37*
G36*
X80325375Y-64419703D02*
G01*
X80349605Y-64423297D01*
X80373365Y-64429249D01*
X80396428Y-64437501D01*
X80418571Y-64447973D01*
X80439580Y-64460566D01*
X80459255Y-64475158D01*
X80477404Y-64491607D01*
X80493853Y-64509756D01*
X80508445Y-64529431D01*
X80521038Y-64550440D01*
X80531510Y-64572583D01*
X80539762Y-64595646D01*
X80545714Y-64619406D01*
X80549308Y-64643636D01*
X80550510Y-64668101D01*
X80550510Y-65968901D01*
X80549308Y-65993366D01*
X80545714Y-66017596D01*
X80539762Y-66041356D01*
X80531510Y-66064419D01*
X80521038Y-66086562D01*
X80508445Y-66107571D01*
X80493853Y-66127246D01*
X80477404Y-66145395D01*
X80459255Y-66161844D01*
X80439580Y-66176436D01*
X80418571Y-66189029D01*
X80396428Y-66199501D01*
X80373365Y-66207753D01*
X80349605Y-66213705D01*
X80325375Y-66217299D01*
X80300910Y-66218501D01*
X79600110Y-66218501D01*
X79575645Y-66217299D01*
X79551415Y-66213705D01*
X79527655Y-66207753D01*
X79504592Y-66199501D01*
X79482449Y-66189029D01*
X79461440Y-66176436D01*
X79441765Y-66161844D01*
X79423616Y-66145395D01*
X79407167Y-66127246D01*
X79392575Y-66107571D01*
X79379982Y-66086562D01*
X79369510Y-66064419D01*
X79361258Y-66041356D01*
X79355306Y-66017596D01*
X79351712Y-65993366D01*
X79350510Y-65968901D01*
X79350510Y-64668101D01*
X79351712Y-64643636D01*
X79355306Y-64619406D01*
X79361258Y-64595646D01*
X79369510Y-64572583D01*
X79379982Y-64550440D01*
X79392575Y-64529431D01*
X79407167Y-64509756D01*
X79423616Y-64491607D01*
X79441765Y-64475158D01*
X79461440Y-64460566D01*
X79482449Y-64447973D01*
X79504592Y-64437501D01*
X79527655Y-64429249D01*
X79551415Y-64423297D01*
X79575645Y-64419703D01*
X79600110Y-64418501D01*
X80300910Y-64418501D01*
X80325375Y-64419703D01*
G37*
G04 #@! TD*
G04 #@! TO.C,L1*
G36*
X86834515Y-58462205D02*
G01*
X86858783Y-58465805D01*
X86882582Y-58471766D01*
X86905681Y-58480031D01*
X86927860Y-58490521D01*
X86948903Y-58503133D01*
X86968609Y-58517748D01*
X86986787Y-58534224D01*
X87003263Y-58552402D01*
X87017878Y-58572108D01*
X87030490Y-58593151D01*
X87040980Y-58615330D01*
X87049245Y-58638429D01*
X87055206Y-58662228D01*
X87058806Y-58686496D01*
X87060010Y-58711000D01*
X87060010Y-59261002D01*
X87058806Y-59285506D01*
X87055206Y-59309774D01*
X87049245Y-59333573D01*
X87040980Y-59356672D01*
X87030490Y-59378851D01*
X87017878Y-59399894D01*
X87003263Y-59419600D01*
X86986787Y-59437778D01*
X86968609Y-59454254D01*
X86948903Y-59468869D01*
X86927860Y-59481481D01*
X86905681Y-59491971D01*
X86882582Y-59500236D01*
X86858783Y-59506197D01*
X86834515Y-59509797D01*
X86810011Y-59511001D01*
X85410009Y-59511001D01*
X85385505Y-59509797D01*
X85361237Y-59506197D01*
X85337438Y-59500236D01*
X85314339Y-59491971D01*
X85292160Y-59481481D01*
X85271117Y-59468869D01*
X85251411Y-59454254D01*
X85233233Y-59437778D01*
X85216757Y-59419600D01*
X85202142Y-59399894D01*
X85189530Y-59378851D01*
X85179040Y-59356672D01*
X85170775Y-59333573D01*
X85164814Y-59309774D01*
X85161214Y-59285506D01*
X85160010Y-59261002D01*
X85160010Y-58711000D01*
X85161214Y-58686496D01*
X85164814Y-58662228D01*
X85170775Y-58638429D01*
X85179040Y-58615330D01*
X85189530Y-58593151D01*
X85202142Y-58572108D01*
X85216757Y-58552402D01*
X85233233Y-58534224D01*
X85251411Y-58517748D01*
X85271117Y-58503133D01*
X85292160Y-58490521D01*
X85314339Y-58480031D01*
X85337438Y-58471766D01*
X85361237Y-58465805D01*
X85385505Y-58462205D01*
X85410009Y-58461001D01*
X86810011Y-58461001D01*
X86834515Y-58462205D01*
G37*
G36*
X86834515Y-55312205D02*
G01*
X86858783Y-55315805D01*
X86882582Y-55321766D01*
X86905681Y-55330031D01*
X86927860Y-55340521D01*
X86948903Y-55353133D01*
X86968609Y-55367748D01*
X86986787Y-55384224D01*
X87003263Y-55402402D01*
X87017878Y-55422108D01*
X87030490Y-55443151D01*
X87040980Y-55465330D01*
X87049245Y-55488429D01*
X87055206Y-55512228D01*
X87058806Y-55536496D01*
X87060010Y-55561000D01*
X87060010Y-56111002D01*
X87058806Y-56135506D01*
X87055206Y-56159774D01*
X87049245Y-56183573D01*
X87040980Y-56206672D01*
X87030490Y-56228851D01*
X87017878Y-56249894D01*
X87003263Y-56269600D01*
X86986787Y-56287778D01*
X86968609Y-56304254D01*
X86948903Y-56318869D01*
X86927860Y-56331481D01*
X86905681Y-56341971D01*
X86882582Y-56350236D01*
X86858783Y-56356197D01*
X86834515Y-56359797D01*
X86810011Y-56361001D01*
X85410009Y-56361001D01*
X85385505Y-56359797D01*
X85361237Y-56356197D01*
X85337438Y-56350236D01*
X85314339Y-56341971D01*
X85292160Y-56331481D01*
X85271117Y-56318869D01*
X85251411Y-56304254D01*
X85233233Y-56287778D01*
X85216757Y-56269600D01*
X85202142Y-56249894D01*
X85189530Y-56228851D01*
X85179040Y-56206672D01*
X85170775Y-56183573D01*
X85164814Y-56159774D01*
X85161214Y-56135506D01*
X85160010Y-56111002D01*
X85160010Y-55561000D01*
X85161214Y-55536496D01*
X85164814Y-55512228D01*
X85170775Y-55488429D01*
X85179040Y-55465330D01*
X85189530Y-55443151D01*
X85202142Y-55422108D01*
X85216757Y-55402402D01*
X85233233Y-55384224D01*
X85251411Y-55367748D01*
X85271117Y-55353133D01*
X85292160Y-55340521D01*
X85314339Y-55330031D01*
X85337438Y-55321766D01*
X85361237Y-55315805D01*
X85385505Y-55312205D01*
X85410009Y-55311001D01*
X86810011Y-55311001D01*
X86834515Y-55312205D01*
G37*
G04 #@! TD*
G04 #@! TO.C,R1*
G36*
X74530113Y-61329464D02*
G01*
X74549528Y-61332344D01*
X74568567Y-61337113D01*
X74587047Y-61343725D01*
X74604789Y-61352117D01*
X74621624Y-61362207D01*
X74637389Y-61373899D01*
X74651931Y-61387080D01*
X74665112Y-61401622D01*
X74676804Y-61417387D01*
X74686894Y-61434222D01*
X74695286Y-61451964D01*
X74701898Y-61470444D01*
X74706667Y-61489483D01*
X74709547Y-61508898D01*
X74710510Y-61528501D01*
X74710510Y-61928501D01*
X74709547Y-61948104D01*
X74706667Y-61967519D01*
X74701898Y-61986558D01*
X74695286Y-62005038D01*
X74686894Y-62022780D01*
X74676804Y-62039615D01*
X74665112Y-62055380D01*
X74651931Y-62069922D01*
X74637389Y-62083103D01*
X74621624Y-62094795D01*
X74604789Y-62104885D01*
X74587047Y-62113277D01*
X74568567Y-62119889D01*
X74549528Y-62124658D01*
X74530113Y-62127538D01*
X74510510Y-62128501D01*
X73960510Y-62128501D01*
X73940907Y-62127538D01*
X73921492Y-62124658D01*
X73902453Y-62119889D01*
X73883973Y-62113277D01*
X73866231Y-62104885D01*
X73849396Y-62094795D01*
X73833631Y-62083103D01*
X73819089Y-62069922D01*
X73805908Y-62055380D01*
X73794216Y-62039615D01*
X73784126Y-62022780D01*
X73775734Y-62005038D01*
X73769122Y-61986558D01*
X73764353Y-61967519D01*
X73761473Y-61948104D01*
X73760510Y-61928501D01*
X73760510Y-61528501D01*
X73761473Y-61508898D01*
X73764353Y-61489483D01*
X73769122Y-61470444D01*
X73775734Y-61451964D01*
X73784126Y-61434222D01*
X73794216Y-61417387D01*
X73805908Y-61401622D01*
X73819089Y-61387080D01*
X73833631Y-61373899D01*
X73849396Y-61362207D01*
X73866231Y-61352117D01*
X73883973Y-61343725D01*
X73902453Y-61337113D01*
X73921492Y-61332344D01*
X73940907Y-61329464D01*
X73960510Y-61328501D01*
X74510510Y-61328501D01*
X74530113Y-61329464D01*
G37*
G36*
X74530113Y-59679464D02*
G01*
X74549528Y-59682344D01*
X74568567Y-59687113D01*
X74587047Y-59693725D01*
X74604789Y-59702117D01*
X74621624Y-59712207D01*
X74637389Y-59723899D01*
X74651931Y-59737080D01*
X74665112Y-59751622D01*
X74676804Y-59767387D01*
X74686894Y-59784222D01*
X74695286Y-59801964D01*
X74701898Y-59820444D01*
X74706667Y-59839483D01*
X74709547Y-59858898D01*
X74710510Y-59878501D01*
X74710510Y-60278501D01*
X74709547Y-60298104D01*
X74706667Y-60317519D01*
X74701898Y-60336558D01*
X74695286Y-60355038D01*
X74686894Y-60372780D01*
X74676804Y-60389615D01*
X74665112Y-60405380D01*
X74651931Y-60419922D01*
X74637389Y-60433103D01*
X74621624Y-60444795D01*
X74604789Y-60454885D01*
X74587047Y-60463277D01*
X74568567Y-60469889D01*
X74549528Y-60474658D01*
X74530113Y-60477538D01*
X74510510Y-60478501D01*
X73960510Y-60478501D01*
X73940907Y-60477538D01*
X73921492Y-60474658D01*
X73902453Y-60469889D01*
X73883973Y-60463277D01*
X73866231Y-60454885D01*
X73849396Y-60444795D01*
X73833631Y-60433103D01*
X73819089Y-60419922D01*
X73805908Y-60405380D01*
X73794216Y-60389615D01*
X73784126Y-60372780D01*
X73775734Y-60355038D01*
X73769122Y-60336558D01*
X73764353Y-60317519D01*
X73761473Y-60298104D01*
X73760510Y-60278501D01*
X73760510Y-59878501D01*
X73761473Y-59858898D01*
X73764353Y-59839483D01*
X73769122Y-59820444D01*
X73775734Y-59801964D01*
X73784126Y-59784222D01*
X73794216Y-59767387D01*
X73805908Y-59751622D01*
X73819089Y-59737080D01*
X73833631Y-59723899D01*
X73849396Y-59712207D01*
X73866231Y-59702117D01*
X73883973Y-59693725D01*
X73902453Y-59687113D01*
X73921492Y-59682344D01*
X73940907Y-59679464D01*
X73960510Y-59678501D01*
X74510510Y-59678501D01*
X74530113Y-59679464D01*
G37*
G04 #@! TD*
G04 #@! TO.C,R2*
G36*
X84055113Y-61329464D02*
G01*
X84074528Y-61332344D01*
X84093567Y-61337113D01*
X84112047Y-61343725D01*
X84129789Y-61352117D01*
X84146624Y-61362207D01*
X84162389Y-61373899D01*
X84176931Y-61387080D01*
X84190112Y-61401622D01*
X84201804Y-61417387D01*
X84211894Y-61434222D01*
X84220286Y-61451964D01*
X84226898Y-61470444D01*
X84231667Y-61489483D01*
X84234547Y-61508898D01*
X84235510Y-61528501D01*
X84235510Y-61928501D01*
X84234547Y-61948104D01*
X84231667Y-61967519D01*
X84226898Y-61986558D01*
X84220286Y-62005038D01*
X84211894Y-62022780D01*
X84201804Y-62039615D01*
X84190112Y-62055380D01*
X84176931Y-62069922D01*
X84162389Y-62083103D01*
X84146624Y-62094795D01*
X84129789Y-62104885D01*
X84112047Y-62113277D01*
X84093567Y-62119889D01*
X84074528Y-62124658D01*
X84055113Y-62127538D01*
X84035510Y-62128501D01*
X83485510Y-62128501D01*
X83465907Y-62127538D01*
X83446492Y-62124658D01*
X83427453Y-62119889D01*
X83408973Y-62113277D01*
X83391231Y-62104885D01*
X83374396Y-62094795D01*
X83358631Y-62083103D01*
X83344089Y-62069922D01*
X83330908Y-62055380D01*
X83319216Y-62039615D01*
X83309126Y-62022780D01*
X83300734Y-62005038D01*
X83294122Y-61986558D01*
X83289353Y-61967519D01*
X83286473Y-61948104D01*
X83285510Y-61928501D01*
X83285510Y-61528501D01*
X83286473Y-61508898D01*
X83289353Y-61489483D01*
X83294122Y-61470444D01*
X83300734Y-61451964D01*
X83309126Y-61434222D01*
X83319216Y-61417387D01*
X83330908Y-61401622D01*
X83344089Y-61387080D01*
X83358631Y-61373899D01*
X83374396Y-61362207D01*
X83391231Y-61352117D01*
X83408973Y-61343725D01*
X83427453Y-61337113D01*
X83446492Y-61332344D01*
X83465907Y-61329464D01*
X83485510Y-61328501D01*
X84035510Y-61328501D01*
X84055113Y-61329464D01*
G37*
G36*
X84055113Y-59679464D02*
G01*
X84074528Y-59682344D01*
X84093567Y-59687113D01*
X84112047Y-59693725D01*
X84129789Y-59702117D01*
X84146624Y-59712207D01*
X84162389Y-59723899D01*
X84176931Y-59737080D01*
X84190112Y-59751622D01*
X84201804Y-59767387D01*
X84211894Y-59784222D01*
X84220286Y-59801964D01*
X84226898Y-59820444D01*
X84231667Y-59839483D01*
X84234547Y-59858898D01*
X84235510Y-59878501D01*
X84235510Y-60278501D01*
X84234547Y-60298104D01*
X84231667Y-60317519D01*
X84226898Y-60336558D01*
X84220286Y-60355038D01*
X84211894Y-60372780D01*
X84201804Y-60389615D01*
X84190112Y-60405380D01*
X84176931Y-60419922D01*
X84162389Y-60433103D01*
X84146624Y-60444795D01*
X84129789Y-60454885D01*
X84112047Y-60463277D01*
X84093567Y-60469889D01*
X84074528Y-60474658D01*
X84055113Y-60477538D01*
X84035510Y-60478501D01*
X83485510Y-60478501D01*
X83465907Y-60477538D01*
X83446492Y-60474658D01*
X83427453Y-60469889D01*
X83408973Y-60463277D01*
X83391231Y-60454885D01*
X83374396Y-60444795D01*
X83358631Y-60433103D01*
X83344089Y-60419922D01*
X83330908Y-60405380D01*
X83319216Y-60389615D01*
X83309126Y-60372780D01*
X83300734Y-60355038D01*
X83294122Y-60336558D01*
X83289353Y-60317519D01*
X83286473Y-60298104D01*
X83285510Y-60278501D01*
X83285510Y-59878501D01*
X83286473Y-59858898D01*
X83289353Y-59839483D01*
X83294122Y-59820444D01*
X83300734Y-59801964D01*
X83309126Y-59784222D01*
X83319216Y-59767387D01*
X83330908Y-59751622D01*
X83344089Y-59737080D01*
X83358631Y-59723899D01*
X83374396Y-59712207D01*
X83391231Y-59702117D01*
X83408973Y-59693725D01*
X83427453Y-59687113D01*
X83446492Y-59682344D01*
X83465907Y-59679464D01*
X83485510Y-59678501D01*
X84035510Y-59678501D01*
X84055113Y-59679464D01*
G37*
G04 #@! TD*
D12*
G04 #@! TO.C,J1*
X79248010Y-57709501D03*
X77248010Y-57709501D03*
X77748010Y-57709501D03*
X78248010Y-57709501D03*
X78748010Y-57709501D03*
X79748010Y-57709501D03*
X80248010Y-57709501D03*
X80748010Y-57709501D03*
D13*
X75748010Y-57709501D03*
X76548010Y-57709501D03*
X81448010Y-57709501D03*
X82248010Y-57709501D03*
X82248010Y-57709501D03*
X81448010Y-57709501D03*
X76548010Y-57709501D03*
X75748010Y-57709501D03*
G04 #@! TD*
D14*
G04 #@! TO.C,D1*
X72076510Y-58397501D03*
X72076510Y-56297501D03*
G04 #@! TD*
D11*
G04 #@! TO.C,J2*
G36*
X57662704Y-60669223D02*
G01*
X57677265Y-60671383D01*
X57691544Y-60674960D01*
X57705404Y-60679919D01*
X57718711Y-60686213D01*
X57731337Y-60693781D01*
X57743160Y-60702549D01*
X57754067Y-60712435D01*
X57763953Y-60723342D01*
X57772721Y-60735165D01*
X57780289Y-60747791D01*
X57786583Y-60761098D01*
X57791542Y-60774958D01*
X57795119Y-60789237D01*
X57797279Y-60803798D01*
X57798001Y-60818501D01*
X57798001Y-62068501D01*
X57797279Y-62083204D01*
X57795119Y-62097765D01*
X57791542Y-62112044D01*
X57786583Y-62125904D01*
X57780289Y-62139211D01*
X57772721Y-62151837D01*
X57763953Y-62163660D01*
X57754067Y-62174567D01*
X57743160Y-62184453D01*
X57731337Y-62193221D01*
X57718711Y-62200789D01*
X57705404Y-62207083D01*
X57691544Y-62212042D01*
X57677265Y-62215619D01*
X57662704Y-62217779D01*
X57648001Y-62218501D01*
X57348001Y-62218501D01*
X57333298Y-62217779D01*
X57318737Y-62215619D01*
X57304458Y-62212042D01*
X57290598Y-62207083D01*
X57277291Y-62200789D01*
X57264665Y-62193221D01*
X57252842Y-62184453D01*
X57241935Y-62174567D01*
X57232049Y-62163660D01*
X57223281Y-62151837D01*
X57215713Y-62139211D01*
X57209419Y-62125904D01*
X57204460Y-62112044D01*
X57200883Y-62097765D01*
X57198723Y-62083204D01*
X57198001Y-62068501D01*
X57198001Y-60818501D01*
X57198723Y-60803798D01*
X57200883Y-60789237D01*
X57204460Y-60774958D01*
X57209419Y-60761098D01*
X57215713Y-60747791D01*
X57223281Y-60735165D01*
X57232049Y-60723342D01*
X57241935Y-60712435D01*
X57252842Y-60702549D01*
X57264665Y-60693781D01*
X57277291Y-60686213D01*
X57290598Y-60679919D01*
X57304458Y-60674960D01*
X57318737Y-60671383D01*
X57333298Y-60669223D01*
X57348001Y-60668501D01*
X57648001Y-60668501D01*
X57662704Y-60669223D01*
G37*
G36*
X58662704Y-60669223D02*
G01*
X58677265Y-60671383D01*
X58691544Y-60674960D01*
X58705404Y-60679919D01*
X58718711Y-60686213D01*
X58731337Y-60693781D01*
X58743160Y-60702549D01*
X58754067Y-60712435D01*
X58763953Y-60723342D01*
X58772721Y-60735165D01*
X58780289Y-60747791D01*
X58786583Y-60761098D01*
X58791542Y-60774958D01*
X58795119Y-60789237D01*
X58797279Y-60803798D01*
X58798001Y-60818501D01*
X58798001Y-62068501D01*
X58797279Y-62083204D01*
X58795119Y-62097765D01*
X58791542Y-62112044D01*
X58786583Y-62125904D01*
X58780289Y-62139211D01*
X58772721Y-62151837D01*
X58763953Y-62163660D01*
X58754067Y-62174567D01*
X58743160Y-62184453D01*
X58731337Y-62193221D01*
X58718711Y-62200789D01*
X58705404Y-62207083D01*
X58691544Y-62212042D01*
X58677265Y-62215619D01*
X58662704Y-62217779D01*
X58648001Y-62218501D01*
X58348001Y-62218501D01*
X58333298Y-62217779D01*
X58318737Y-62215619D01*
X58304458Y-62212042D01*
X58290598Y-62207083D01*
X58277291Y-62200789D01*
X58264665Y-62193221D01*
X58252842Y-62184453D01*
X58241935Y-62174567D01*
X58232049Y-62163660D01*
X58223281Y-62151837D01*
X58215713Y-62139211D01*
X58209419Y-62125904D01*
X58204460Y-62112044D01*
X58200883Y-62097765D01*
X58198723Y-62083204D01*
X58198001Y-62068501D01*
X58198001Y-60818501D01*
X58198723Y-60803798D01*
X58200883Y-60789237D01*
X58204460Y-60774958D01*
X58209419Y-60761098D01*
X58215713Y-60747791D01*
X58223281Y-60735165D01*
X58232049Y-60723342D01*
X58241935Y-60712435D01*
X58252842Y-60702549D01*
X58264665Y-60693781D01*
X58277291Y-60686213D01*
X58290598Y-60679919D01*
X58304458Y-60674960D01*
X58318737Y-60671383D01*
X58333298Y-60669223D01*
X58348001Y-60668501D01*
X58648001Y-60668501D01*
X58662704Y-60669223D01*
G37*
G36*
X59662704Y-60669223D02*
G01*
X59677265Y-60671383D01*
X59691544Y-60674960D01*
X59705404Y-60679919D01*
X59718711Y-60686213D01*
X59731337Y-60693781D01*
X59743160Y-60702549D01*
X59754067Y-60712435D01*
X59763953Y-60723342D01*
X59772721Y-60735165D01*
X59780289Y-60747791D01*
X59786583Y-60761098D01*
X59791542Y-60774958D01*
X59795119Y-60789237D01*
X59797279Y-60803798D01*
X59798001Y-60818501D01*
X59798001Y-62068501D01*
X59797279Y-62083204D01*
X59795119Y-62097765D01*
X59791542Y-62112044D01*
X59786583Y-62125904D01*
X59780289Y-62139211D01*
X59772721Y-62151837D01*
X59763953Y-62163660D01*
X59754067Y-62174567D01*
X59743160Y-62184453D01*
X59731337Y-62193221D01*
X59718711Y-62200789D01*
X59705404Y-62207083D01*
X59691544Y-62212042D01*
X59677265Y-62215619D01*
X59662704Y-62217779D01*
X59648001Y-62218501D01*
X59348001Y-62218501D01*
X59333298Y-62217779D01*
X59318737Y-62215619D01*
X59304458Y-62212042D01*
X59290598Y-62207083D01*
X59277291Y-62200789D01*
X59264665Y-62193221D01*
X59252842Y-62184453D01*
X59241935Y-62174567D01*
X59232049Y-62163660D01*
X59223281Y-62151837D01*
X59215713Y-62139211D01*
X59209419Y-62125904D01*
X59204460Y-62112044D01*
X59200883Y-62097765D01*
X59198723Y-62083204D01*
X59198001Y-62068501D01*
X59198001Y-60818501D01*
X59198723Y-60803798D01*
X59200883Y-60789237D01*
X59204460Y-60774958D01*
X59209419Y-60761098D01*
X59215713Y-60747791D01*
X59223281Y-60735165D01*
X59232049Y-60723342D01*
X59241935Y-60712435D01*
X59252842Y-60702549D01*
X59264665Y-60693781D01*
X59277291Y-60686213D01*
X59290598Y-60679919D01*
X59304458Y-60674960D01*
X59318737Y-60671383D01*
X59333298Y-60669223D01*
X59348001Y-60668501D01*
X59648001Y-60668501D01*
X59662704Y-60669223D01*
G37*
G36*
X60662704Y-60669223D02*
G01*
X60677265Y-60671383D01*
X60691544Y-60674960D01*
X60705404Y-60679919D01*
X60718711Y-60686213D01*
X60731337Y-60693781D01*
X60743160Y-60702549D01*
X60754067Y-60712435D01*
X60763953Y-60723342D01*
X60772721Y-60735165D01*
X60780289Y-60747791D01*
X60786583Y-60761098D01*
X60791542Y-60774958D01*
X60795119Y-60789237D01*
X60797279Y-60803798D01*
X60798001Y-60818501D01*
X60798001Y-62068501D01*
X60797279Y-62083204D01*
X60795119Y-62097765D01*
X60791542Y-62112044D01*
X60786583Y-62125904D01*
X60780289Y-62139211D01*
X60772721Y-62151837D01*
X60763953Y-62163660D01*
X60754067Y-62174567D01*
X60743160Y-62184453D01*
X60731337Y-62193221D01*
X60718711Y-62200789D01*
X60705404Y-62207083D01*
X60691544Y-62212042D01*
X60677265Y-62215619D01*
X60662704Y-62217779D01*
X60648001Y-62218501D01*
X60348001Y-62218501D01*
X60333298Y-62217779D01*
X60318737Y-62215619D01*
X60304458Y-62212042D01*
X60290598Y-62207083D01*
X60277291Y-62200789D01*
X60264665Y-62193221D01*
X60252842Y-62184453D01*
X60241935Y-62174567D01*
X60232049Y-62163660D01*
X60223281Y-62151837D01*
X60215713Y-62139211D01*
X60209419Y-62125904D01*
X60204460Y-62112044D01*
X60200883Y-62097765D01*
X60198723Y-62083204D01*
X60198001Y-62068501D01*
X60198001Y-60818501D01*
X60198723Y-60803798D01*
X60200883Y-60789237D01*
X60204460Y-60774958D01*
X60209419Y-60761098D01*
X60215713Y-60747791D01*
X60223281Y-60735165D01*
X60232049Y-60723342D01*
X60241935Y-60712435D01*
X60252842Y-60702549D01*
X60264665Y-60693781D01*
X60277291Y-60686213D01*
X60290598Y-60679919D01*
X60304458Y-60674960D01*
X60318737Y-60671383D01*
X60333298Y-60669223D01*
X60348001Y-60668501D01*
X60648001Y-60668501D01*
X60662704Y-60669223D01*
G37*
G36*
X56572866Y-64419703D02*
G01*
X56597096Y-64423297D01*
X56620856Y-64429249D01*
X56643919Y-64437501D01*
X56666062Y-64447973D01*
X56687071Y-64460566D01*
X56706746Y-64475158D01*
X56724895Y-64491607D01*
X56741344Y-64509756D01*
X56755936Y-64529431D01*
X56768529Y-64550440D01*
X56779001Y-64572583D01*
X56787253Y-64595646D01*
X56793205Y-64619406D01*
X56796799Y-64643636D01*
X56798001Y-64668101D01*
X56798001Y-65968901D01*
X56796799Y-65993366D01*
X56793205Y-66017596D01*
X56787253Y-66041356D01*
X56779001Y-66064419D01*
X56768529Y-66086562D01*
X56755936Y-66107571D01*
X56741344Y-66127246D01*
X56724895Y-66145395D01*
X56706746Y-66161844D01*
X56687071Y-66176436D01*
X56666062Y-66189029D01*
X56643919Y-66199501D01*
X56620856Y-66207753D01*
X56597096Y-66213705D01*
X56572866Y-66217299D01*
X56548401Y-66218501D01*
X55847601Y-66218501D01*
X55823136Y-66217299D01*
X55798906Y-66213705D01*
X55775146Y-66207753D01*
X55752083Y-66199501D01*
X55729940Y-66189029D01*
X55708931Y-66176436D01*
X55689256Y-66161844D01*
X55671107Y-66145395D01*
X55654658Y-66127246D01*
X55640066Y-66107571D01*
X55627473Y-66086562D01*
X55617001Y-66064419D01*
X55608749Y-66041356D01*
X55602797Y-66017596D01*
X55599203Y-65993366D01*
X55598001Y-65968901D01*
X55598001Y-64668101D01*
X55599203Y-64643636D01*
X55602797Y-64619406D01*
X55608749Y-64595646D01*
X55617001Y-64572583D01*
X55627473Y-64550440D01*
X55640066Y-64529431D01*
X55654658Y-64509756D01*
X55671107Y-64491607D01*
X55689256Y-64475158D01*
X55708931Y-64460566D01*
X55729940Y-64447973D01*
X55752083Y-64437501D01*
X55775146Y-64429249D01*
X55798906Y-64423297D01*
X55823136Y-64419703D01*
X55847601Y-64418501D01*
X56548401Y-64418501D01*
X56572866Y-64419703D01*
G37*
G36*
X62172866Y-64419703D02*
G01*
X62197096Y-64423297D01*
X62220856Y-64429249D01*
X62243919Y-64437501D01*
X62266062Y-64447973D01*
X62287071Y-64460566D01*
X62306746Y-64475158D01*
X62324895Y-64491607D01*
X62341344Y-64509756D01*
X62355936Y-64529431D01*
X62368529Y-64550440D01*
X62379001Y-64572583D01*
X62387253Y-64595646D01*
X62393205Y-64619406D01*
X62396799Y-64643636D01*
X62398001Y-64668101D01*
X62398001Y-65968901D01*
X62396799Y-65993366D01*
X62393205Y-66017596D01*
X62387253Y-66041356D01*
X62379001Y-66064419D01*
X62368529Y-66086562D01*
X62355936Y-66107571D01*
X62341344Y-66127246D01*
X62324895Y-66145395D01*
X62306746Y-66161844D01*
X62287071Y-66176436D01*
X62266062Y-66189029D01*
X62243919Y-66199501D01*
X62220856Y-66207753D01*
X62197096Y-66213705D01*
X62172866Y-66217299D01*
X62148401Y-66218501D01*
X61447601Y-66218501D01*
X61423136Y-66217299D01*
X61398906Y-66213705D01*
X61375146Y-66207753D01*
X61352083Y-66199501D01*
X61329940Y-66189029D01*
X61308931Y-66176436D01*
X61289256Y-66161844D01*
X61271107Y-66145395D01*
X61254658Y-66127246D01*
X61240066Y-66107571D01*
X61227473Y-66086562D01*
X61217001Y-66064419D01*
X61208749Y-66041356D01*
X61202797Y-66017596D01*
X61199203Y-65993366D01*
X61198001Y-65968901D01*
X61198001Y-64668101D01*
X61199203Y-64643636D01*
X61202797Y-64619406D01*
X61208749Y-64595646D01*
X61217001Y-64572583D01*
X61227473Y-64550440D01*
X61240066Y-64529431D01*
X61254658Y-64509756D01*
X61271107Y-64491607D01*
X61289256Y-64475158D01*
X61308931Y-64460566D01*
X61329940Y-64447973D01*
X61352083Y-64437501D01*
X61375146Y-64429249D01*
X61398906Y-64423297D01*
X61423136Y-64419703D01*
X61447601Y-64418501D01*
X62148401Y-64418501D01*
X62172866Y-64419703D01*
G37*
G36*
X58420366Y-64419703D02*
G01*
X58444596Y-64423297D01*
X58468356Y-64429249D01*
X58491419Y-64437501D01*
X58513562Y-64447973D01*
X58534571Y-64460566D01*
X58554246Y-64475158D01*
X58572395Y-64491607D01*
X58588844Y-64509756D01*
X58603436Y-64529431D01*
X58616029Y-64550440D01*
X58626501Y-64572583D01*
X58634753Y-64595646D01*
X58640705Y-64619406D01*
X58644299Y-64643636D01*
X58645501Y-64668101D01*
X58645501Y-65968901D01*
X58644299Y-65993366D01*
X58640705Y-66017596D01*
X58634753Y-66041356D01*
X58626501Y-66064419D01*
X58616029Y-66086562D01*
X58603436Y-66107571D01*
X58588844Y-66127246D01*
X58572395Y-66145395D01*
X58554246Y-66161844D01*
X58534571Y-66176436D01*
X58513562Y-66189029D01*
X58491419Y-66199501D01*
X58468356Y-66207753D01*
X58444596Y-66213705D01*
X58420366Y-66217299D01*
X58395901Y-66218501D01*
X57695101Y-66218501D01*
X57670636Y-66217299D01*
X57646406Y-66213705D01*
X57622646Y-66207753D01*
X57599583Y-66199501D01*
X57577440Y-66189029D01*
X57556431Y-66176436D01*
X57536756Y-66161844D01*
X57518607Y-66145395D01*
X57502158Y-66127246D01*
X57487566Y-66107571D01*
X57474973Y-66086562D01*
X57464501Y-66064419D01*
X57456249Y-66041356D01*
X57450297Y-66017596D01*
X57446703Y-65993366D01*
X57445501Y-65968901D01*
X57445501Y-64668101D01*
X57446703Y-64643636D01*
X57450297Y-64619406D01*
X57456249Y-64595646D01*
X57464501Y-64572583D01*
X57474973Y-64550440D01*
X57487566Y-64529431D01*
X57502158Y-64509756D01*
X57518607Y-64491607D01*
X57536756Y-64475158D01*
X57556431Y-64460566D01*
X57577440Y-64447973D01*
X57599583Y-64437501D01*
X57622646Y-64429249D01*
X57646406Y-64423297D01*
X57670636Y-64419703D01*
X57695101Y-64418501D01*
X58395901Y-64418501D01*
X58420366Y-64419703D01*
G37*
G36*
X60325366Y-64419703D02*
G01*
X60349596Y-64423297D01*
X60373356Y-64429249D01*
X60396419Y-64437501D01*
X60418562Y-64447973D01*
X60439571Y-64460566D01*
X60459246Y-64475158D01*
X60477395Y-64491607D01*
X60493844Y-64509756D01*
X60508436Y-64529431D01*
X60521029Y-64550440D01*
X60531501Y-64572583D01*
X60539753Y-64595646D01*
X60545705Y-64619406D01*
X60549299Y-64643636D01*
X60550501Y-64668101D01*
X60550501Y-65968901D01*
X60549299Y-65993366D01*
X60545705Y-66017596D01*
X60539753Y-66041356D01*
X60531501Y-66064419D01*
X60521029Y-66086562D01*
X60508436Y-66107571D01*
X60493844Y-66127246D01*
X60477395Y-66145395D01*
X60459246Y-66161844D01*
X60439571Y-66176436D01*
X60418562Y-66189029D01*
X60396419Y-66199501D01*
X60373356Y-66207753D01*
X60349596Y-66213705D01*
X60325366Y-66217299D01*
X60300901Y-66218501D01*
X59600101Y-66218501D01*
X59575636Y-66217299D01*
X59551406Y-66213705D01*
X59527646Y-66207753D01*
X59504583Y-66199501D01*
X59482440Y-66189029D01*
X59461431Y-66176436D01*
X59441756Y-66161844D01*
X59423607Y-66145395D01*
X59407158Y-66127246D01*
X59392566Y-66107571D01*
X59379973Y-66086562D01*
X59369501Y-66064419D01*
X59361249Y-66041356D01*
X59355297Y-66017596D01*
X59351703Y-65993366D01*
X59350501Y-65968901D01*
X59350501Y-64668101D01*
X59351703Y-64643636D01*
X59355297Y-64619406D01*
X59361249Y-64595646D01*
X59369501Y-64572583D01*
X59379973Y-64550440D01*
X59392566Y-64529431D01*
X59407158Y-64509756D01*
X59423607Y-64491607D01*
X59441756Y-64475158D01*
X59461431Y-64460566D01*
X59482440Y-64447973D01*
X59504583Y-64437501D01*
X59527646Y-64429249D01*
X59551406Y-64423297D01*
X59575636Y-64419703D01*
X59600101Y-64418501D01*
X60300901Y-64418501D01*
X60325366Y-64419703D01*
G37*
G04 #@! TD*
G04 #@! TO.C,L1*
G36*
X66834506Y-58462205D02*
G01*
X66858774Y-58465805D01*
X66882573Y-58471766D01*
X66905672Y-58480031D01*
X66927851Y-58490521D01*
X66948894Y-58503133D01*
X66968600Y-58517748D01*
X66986778Y-58534224D01*
X67003254Y-58552402D01*
X67017869Y-58572108D01*
X67030481Y-58593151D01*
X67040971Y-58615330D01*
X67049236Y-58638429D01*
X67055197Y-58662228D01*
X67058797Y-58686496D01*
X67060001Y-58711000D01*
X67060001Y-59261002D01*
X67058797Y-59285506D01*
X67055197Y-59309774D01*
X67049236Y-59333573D01*
X67040971Y-59356672D01*
X67030481Y-59378851D01*
X67017869Y-59399894D01*
X67003254Y-59419600D01*
X66986778Y-59437778D01*
X66968600Y-59454254D01*
X66948894Y-59468869D01*
X66927851Y-59481481D01*
X66905672Y-59491971D01*
X66882573Y-59500236D01*
X66858774Y-59506197D01*
X66834506Y-59509797D01*
X66810002Y-59511001D01*
X65410000Y-59511001D01*
X65385496Y-59509797D01*
X65361228Y-59506197D01*
X65337429Y-59500236D01*
X65314330Y-59491971D01*
X65292151Y-59481481D01*
X65271108Y-59468869D01*
X65251402Y-59454254D01*
X65233224Y-59437778D01*
X65216748Y-59419600D01*
X65202133Y-59399894D01*
X65189521Y-59378851D01*
X65179031Y-59356672D01*
X65170766Y-59333573D01*
X65164805Y-59309774D01*
X65161205Y-59285506D01*
X65160001Y-59261002D01*
X65160001Y-58711000D01*
X65161205Y-58686496D01*
X65164805Y-58662228D01*
X65170766Y-58638429D01*
X65179031Y-58615330D01*
X65189521Y-58593151D01*
X65202133Y-58572108D01*
X65216748Y-58552402D01*
X65233224Y-58534224D01*
X65251402Y-58517748D01*
X65271108Y-58503133D01*
X65292151Y-58490521D01*
X65314330Y-58480031D01*
X65337429Y-58471766D01*
X65361228Y-58465805D01*
X65385496Y-58462205D01*
X65410000Y-58461001D01*
X66810002Y-58461001D01*
X66834506Y-58462205D01*
G37*
G36*
X66834506Y-55312205D02*
G01*
X66858774Y-55315805D01*
X66882573Y-55321766D01*
X66905672Y-55330031D01*
X66927851Y-55340521D01*
X66948894Y-55353133D01*
X66968600Y-55367748D01*
X66986778Y-55384224D01*
X67003254Y-55402402D01*
X67017869Y-55422108D01*
X67030481Y-55443151D01*
X67040971Y-55465330D01*
X67049236Y-55488429D01*
X67055197Y-55512228D01*
X67058797Y-55536496D01*
X67060001Y-55561000D01*
X67060001Y-56111002D01*
X67058797Y-56135506D01*
X67055197Y-56159774D01*
X67049236Y-56183573D01*
X67040971Y-56206672D01*
X67030481Y-56228851D01*
X67017869Y-56249894D01*
X67003254Y-56269600D01*
X66986778Y-56287778D01*
X66968600Y-56304254D01*
X66948894Y-56318869D01*
X66927851Y-56331481D01*
X66905672Y-56341971D01*
X66882573Y-56350236D01*
X66858774Y-56356197D01*
X66834506Y-56359797D01*
X66810002Y-56361001D01*
X65410000Y-56361001D01*
X65385496Y-56359797D01*
X65361228Y-56356197D01*
X65337429Y-56350236D01*
X65314330Y-56341971D01*
X65292151Y-56331481D01*
X65271108Y-56318869D01*
X65251402Y-56304254D01*
X65233224Y-56287778D01*
X65216748Y-56269600D01*
X65202133Y-56249894D01*
X65189521Y-56228851D01*
X65179031Y-56206672D01*
X65170766Y-56183573D01*
X65164805Y-56159774D01*
X65161205Y-56135506D01*
X65160001Y-56111002D01*
X65160001Y-55561000D01*
X65161205Y-55536496D01*
X65164805Y-55512228D01*
X65170766Y-55488429D01*
X65179031Y-55465330D01*
X65189521Y-55443151D01*
X65202133Y-55422108D01*
X65216748Y-55402402D01*
X65233224Y-55384224D01*
X65251402Y-55367748D01*
X65271108Y-55353133D01*
X65292151Y-55340521D01*
X65314330Y-55330031D01*
X65337429Y-55321766D01*
X65361228Y-55315805D01*
X65385496Y-55312205D01*
X65410000Y-55311001D01*
X66810002Y-55311001D01*
X66834506Y-55312205D01*
G37*
G04 #@! TD*
G04 #@! TO.C,R1*
G36*
X54530104Y-61329464D02*
G01*
X54549519Y-61332344D01*
X54568558Y-61337113D01*
X54587038Y-61343725D01*
X54604780Y-61352117D01*
X54621615Y-61362207D01*
X54637380Y-61373899D01*
X54651922Y-61387080D01*
X54665103Y-61401622D01*
X54676795Y-61417387D01*
X54686885Y-61434222D01*
X54695277Y-61451964D01*
X54701889Y-61470444D01*
X54706658Y-61489483D01*
X54709538Y-61508898D01*
X54710501Y-61528501D01*
X54710501Y-61928501D01*
X54709538Y-61948104D01*
X54706658Y-61967519D01*
X54701889Y-61986558D01*
X54695277Y-62005038D01*
X54686885Y-62022780D01*
X54676795Y-62039615D01*
X54665103Y-62055380D01*
X54651922Y-62069922D01*
X54637380Y-62083103D01*
X54621615Y-62094795D01*
X54604780Y-62104885D01*
X54587038Y-62113277D01*
X54568558Y-62119889D01*
X54549519Y-62124658D01*
X54530104Y-62127538D01*
X54510501Y-62128501D01*
X53960501Y-62128501D01*
X53940898Y-62127538D01*
X53921483Y-62124658D01*
X53902444Y-62119889D01*
X53883964Y-62113277D01*
X53866222Y-62104885D01*
X53849387Y-62094795D01*
X53833622Y-62083103D01*
X53819080Y-62069922D01*
X53805899Y-62055380D01*
X53794207Y-62039615D01*
X53784117Y-62022780D01*
X53775725Y-62005038D01*
X53769113Y-61986558D01*
X53764344Y-61967519D01*
X53761464Y-61948104D01*
X53760501Y-61928501D01*
X53760501Y-61528501D01*
X53761464Y-61508898D01*
X53764344Y-61489483D01*
X53769113Y-61470444D01*
X53775725Y-61451964D01*
X53784117Y-61434222D01*
X53794207Y-61417387D01*
X53805899Y-61401622D01*
X53819080Y-61387080D01*
X53833622Y-61373899D01*
X53849387Y-61362207D01*
X53866222Y-61352117D01*
X53883964Y-61343725D01*
X53902444Y-61337113D01*
X53921483Y-61332344D01*
X53940898Y-61329464D01*
X53960501Y-61328501D01*
X54510501Y-61328501D01*
X54530104Y-61329464D01*
G37*
G36*
X54530104Y-59679464D02*
G01*
X54549519Y-59682344D01*
X54568558Y-59687113D01*
X54587038Y-59693725D01*
X54604780Y-59702117D01*
X54621615Y-59712207D01*
X54637380Y-59723899D01*
X54651922Y-59737080D01*
X54665103Y-59751622D01*
X54676795Y-59767387D01*
X54686885Y-59784222D01*
X54695277Y-59801964D01*
X54701889Y-59820444D01*
X54706658Y-59839483D01*
X54709538Y-59858898D01*
X54710501Y-59878501D01*
X54710501Y-60278501D01*
X54709538Y-60298104D01*
X54706658Y-60317519D01*
X54701889Y-60336558D01*
X54695277Y-60355038D01*
X54686885Y-60372780D01*
X54676795Y-60389615D01*
X54665103Y-60405380D01*
X54651922Y-60419922D01*
X54637380Y-60433103D01*
X54621615Y-60444795D01*
X54604780Y-60454885D01*
X54587038Y-60463277D01*
X54568558Y-60469889D01*
X54549519Y-60474658D01*
X54530104Y-60477538D01*
X54510501Y-60478501D01*
X53960501Y-60478501D01*
X53940898Y-60477538D01*
X53921483Y-60474658D01*
X53902444Y-60469889D01*
X53883964Y-60463277D01*
X53866222Y-60454885D01*
X53849387Y-60444795D01*
X53833622Y-60433103D01*
X53819080Y-60419922D01*
X53805899Y-60405380D01*
X53794207Y-60389615D01*
X53784117Y-60372780D01*
X53775725Y-60355038D01*
X53769113Y-60336558D01*
X53764344Y-60317519D01*
X53761464Y-60298104D01*
X53760501Y-60278501D01*
X53760501Y-59878501D01*
X53761464Y-59858898D01*
X53764344Y-59839483D01*
X53769113Y-59820444D01*
X53775725Y-59801964D01*
X53784117Y-59784222D01*
X53794207Y-59767387D01*
X53805899Y-59751622D01*
X53819080Y-59737080D01*
X53833622Y-59723899D01*
X53849387Y-59712207D01*
X53866222Y-59702117D01*
X53883964Y-59693725D01*
X53902444Y-59687113D01*
X53921483Y-59682344D01*
X53940898Y-59679464D01*
X53960501Y-59678501D01*
X54510501Y-59678501D01*
X54530104Y-59679464D01*
G37*
G04 #@! TD*
G04 #@! TO.C,R2*
G36*
X64055104Y-61329464D02*
G01*
X64074519Y-61332344D01*
X64093558Y-61337113D01*
X64112038Y-61343725D01*
X64129780Y-61352117D01*
X64146615Y-61362207D01*
X64162380Y-61373899D01*
X64176922Y-61387080D01*
X64190103Y-61401622D01*
X64201795Y-61417387D01*
X64211885Y-61434222D01*
X64220277Y-61451964D01*
X64226889Y-61470444D01*
X64231658Y-61489483D01*
X64234538Y-61508898D01*
X64235501Y-61528501D01*
X64235501Y-61928501D01*
X64234538Y-61948104D01*
X64231658Y-61967519D01*
X64226889Y-61986558D01*
X64220277Y-62005038D01*
X64211885Y-62022780D01*
X64201795Y-62039615D01*
X64190103Y-62055380D01*
X64176922Y-62069922D01*
X64162380Y-62083103D01*
X64146615Y-62094795D01*
X64129780Y-62104885D01*
X64112038Y-62113277D01*
X64093558Y-62119889D01*
X64074519Y-62124658D01*
X64055104Y-62127538D01*
X64035501Y-62128501D01*
X63485501Y-62128501D01*
X63465898Y-62127538D01*
X63446483Y-62124658D01*
X63427444Y-62119889D01*
X63408964Y-62113277D01*
X63391222Y-62104885D01*
X63374387Y-62094795D01*
X63358622Y-62083103D01*
X63344080Y-62069922D01*
X63330899Y-62055380D01*
X63319207Y-62039615D01*
X63309117Y-62022780D01*
X63300725Y-62005038D01*
X63294113Y-61986558D01*
X63289344Y-61967519D01*
X63286464Y-61948104D01*
X63285501Y-61928501D01*
X63285501Y-61528501D01*
X63286464Y-61508898D01*
X63289344Y-61489483D01*
X63294113Y-61470444D01*
X63300725Y-61451964D01*
X63309117Y-61434222D01*
X63319207Y-61417387D01*
X63330899Y-61401622D01*
X63344080Y-61387080D01*
X63358622Y-61373899D01*
X63374387Y-61362207D01*
X63391222Y-61352117D01*
X63408964Y-61343725D01*
X63427444Y-61337113D01*
X63446483Y-61332344D01*
X63465898Y-61329464D01*
X63485501Y-61328501D01*
X64035501Y-61328501D01*
X64055104Y-61329464D01*
G37*
G36*
X64055104Y-59679464D02*
G01*
X64074519Y-59682344D01*
X64093558Y-59687113D01*
X64112038Y-59693725D01*
X64129780Y-59702117D01*
X64146615Y-59712207D01*
X64162380Y-59723899D01*
X64176922Y-59737080D01*
X64190103Y-59751622D01*
X64201795Y-59767387D01*
X64211885Y-59784222D01*
X64220277Y-59801964D01*
X64226889Y-59820444D01*
X64231658Y-59839483D01*
X64234538Y-59858898D01*
X64235501Y-59878501D01*
X64235501Y-60278501D01*
X64234538Y-60298104D01*
X64231658Y-60317519D01*
X64226889Y-60336558D01*
X64220277Y-60355038D01*
X64211885Y-60372780D01*
X64201795Y-60389615D01*
X64190103Y-60405380D01*
X64176922Y-60419922D01*
X64162380Y-60433103D01*
X64146615Y-60444795D01*
X64129780Y-60454885D01*
X64112038Y-60463277D01*
X64093558Y-60469889D01*
X64074519Y-60474658D01*
X64055104Y-60477538D01*
X64035501Y-60478501D01*
X63485501Y-60478501D01*
X63465898Y-60477538D01*
X63446483Y-60474658D01*
X63427444Y-60469889D01*
X63408964Y-60463277D01*
X63391222Y-60454885D01*
X63374387Y-60444795D01*
X63358622Y-60433103D01*
X63344080Y-60419922D01*
X63330899Y-60405380D01*
X63319207Y-60389615D01*
X63309117Y-60372780D01*
X63300725Y-60355038D01*
X63294113Y-60336558D01*
X63289344Y-60317519D01*
X63286464Y-60298104D01*
X63285501Y-60278501D01*
X63285501Y-59878501D01*
X63286464Y-59858898D01*
X63289344Y-59839483D01*
X63294113Y-59820444D01*
X63300725Y-59801964D01*
X63309117Y-59784222D01*
X63319207Y-59767387D01*
X63330899Y-59751622D01*
X63344080Y-59737080D01*
X63358622Y-59723899D01*
X63374387Y-59712207D01*
X63391222Y-59702117D01*
X63408964Y-59693725D01*
X63427444Y-59687113D01*
X63446483Y-59682344D01*
X63465898Y-59679464D01*
X63485501Y-59678501D01*
X64035501Y-59678501D01*
X64055104Y-59679464D01*
G37*
G04 #@! TD*
D12*
G04 #@! TO.C,J1*
X59248001Y-57709501D03*
X57248001Y-57709501D03*
X57748001Y-57709501D03*
X58248001Y-57709501D03*
X58748001Y-57709501D03*
X59748001Y-57709501D03*
X60248001Y-57709501D03*
X60748001Y-57709501D03*
D13*
X55748001Y-57709501D03*
X56548001Y-57709501D03*
X61448001Y-57709501D03*
X62248001Y-57709501D03*
X62248001Y-57709501D03*
X61448001Y-57709501D03*
X56548001Y-57709501D03*
X55748001Y-57709501D03*
G04 #@! TD*
D14*
G04 #@! TO.C,D1*
X52076501Y-58397501D03*
X52076501Y-56297501D03*
G04 #@! TD*
M02*
